<?xml version="1.0" standalone="no"?>
<!DOCTYPE svg PUBLIC "-//W3C//DTD SVG 1.1//EN" "http://www.w3.org/Graphics/SVG/1.1/DTD/svg11.dtd" >
<svg xmlns="http://www.w3.org/2000/svg" xmlns:xlink="http://www.w3.org/1999/xlink" version="1.1">
<metadata>
Created by FontForge 20190801 at Thu Oct  8 12:03:11 2009
 By Jimmy Wärting
Copyright 2003, 2009 B. Jackowski and J. M. Nowacki (on behalf of TeX users groups). This work is released under the GUST Font License --  see http://tug.org/fonts/licenses/GUST-FONT-LICENSE.txt for details.
</metadata>
<defs>
<font id="LMMonoPropLt10-BoldOblique" horiz-adv-x="525" >
  <font-face 
    font-family="LMMonoPropLt10"
    font-weight="700"
    font-style="oblique"
    font-stretch="normal"
    units-per-em="1000"
    panose-1="0 0 8 0 0 0 0 0 0 0"
    ascent="784"
    descent="-216"
    x-height="436"
    cap-height="611"
    bbox="-472.851 -307 1493.67 1021"
    underline-thickness="84"
    underline-position="-162"
    slope="-9.4626"
    stemh="77"
    stemv="85"
    unicode-range="U+0020-FB04"
  />
<missing-glyph horiz-adv-x="280" 
 />
    <glyph glyph-name="f_f" unicode="ff" horiz-adv-x="613" 
d="M745 550c-6 -33 -36 -52 -60 -52c-31 0 -40 27 -42 42c-28 0 -78 -5 -88 -67l-6 -37h70c19 0 47 -1 40 -39c-6 -36 -35 -38 -53 -38h-70l-47 -282h67c19 0 47 -1 40 -39c-6 -37 -35 -38 -53 -38h-195c-20 0 -48 1 -41 39c6 36 35 38 54 38h43l67 402c1 7 3 16 5 23
c-10 11 -11 25 -10 36c-18 2 -35 2 -43 2c-20 0 -58 0 -96 -15c-49 -19 -52 -35 -55 -53l-6 -36h70c20 0 48 -1 41 -39c-6 -36 -36 -38 -54 -38h-70l-47 -282h44c19 0 47 -1 40 -39c-6 -37 -35 -38 -53 -38h-172c-18 0 -48 1 -42 38c7 38 36 39 55 39h44l47 282h-33
c-19 0 -48 2 -42 38c7 38 36 39 56 39h32l7 42c16 98 140 139 254 139c34 0 86 -1 110 -27c40 24 79 27 102 27c16 0 101 -2 90 -67z" />
    <glyph glyph-name="f_f_i" unicode="&#xfb00;i" horiz-adv-x="875" 
d="M860 38c-6 -37 -36 -38 -54 -38h-172c-19 0 -47 1 -40 39c6 36 35 38 53 38h44l47 282h-198l-47 -282h43c20 0 48 -1 41 -39c-6 -37 -35 -38 -54 -38h-171c-19 0 -48 1 -42 38c7 38 35 39 55 39h43l47 282h-199l-47 -282h44c19 0 47 -1 40 -39c-6 -37 -35 -38 -53 -38
h-172c-18 0 -48 1 -42 38c7 38 35 39 55 39h44l47 282h-33c-19 0 -48 2 -42 38c7 38 36 39 56 39h32l7 42c18 107 163 139 247 139c45 0 95 -6 118 -37c54 28 110 37 166 37c26 0 141 -3 127 -87c-5 -33 -32 -53 -60 -53c-27 0 -49 20 -44 52c1 7 3 8 3 11c1 7 -43 0 -46 0
c-20 0 -56 -1 -96 -18c-43 -17 -45 -33 -48 -50l-6 -36h235c40 0 45 -12 39 -48l-52 -311h44c20 0 48 -1 41 -39zM464 436l8 52c-7 6 -15 20 -12 41c1 7 3 8 3 11c1 7 -44 0 -47 0c-13 0 -56 0 -106 -22c-33 -16 -36 -29 -39 -46l-6 -36h199z" />
    <glyph glyph-name="f_f_l" unicode="ffl" horiz-adv-x="875" 
d="M860 38c-6 -37 -36 -38 -54 -38h-172c-19 0 -47 1 -40 39c6 36 35 38 53 38h44l47 282h-198l-47 -282h43c20 0 48 -1 41 -39c-6 -37 -35 -38 -54 -38h-171c-19 0 -48 1 -42 38c7 38 35 39 55 39h43l47 282h-199l-47 -282h44c19 0 47 -1 40 -39c-6 -37 -35 -38 -53 -38
h-172c-18 0 -48 1 -42 38c7 38 35 39 55 39h44l47 282h-33c-19 0 -48 2 -42 38c7 38 36 39 56 39h32l7 42c16 97 141 139 255 139c51 0 96 -4 115 -34c71 34 139 34 169 34c26 0 47 0 73 -6h24c35 0 31 -32 28 -49l-81 -485h44c20 0 48 -1 41 -39zM476 502
c-11 11 -12 25 -10 36c-19 2 -34 2 -44 2c-19 0 -58 0 -96 -15c-49 -19 -52 -35 -55 -53l-6 -36h199l7 42c1 7 2 16 5 24zM755 436l12 76c-7 8 -10 18 -9 27c-16 1 -27 1 -43 1c-21 0 -60 0 -97 -15c-49 -19 -52 -35 -55 -53l-6 -36h198z" />
    <glyph glyph-name="f_i" unicode="fi" horiz-adv-x="583" 
d="M572 38c-6 -37 -35 -38 -54 -38h-172c-19 0 -47 1 -40 39c6 36 35 38 53 38h44l47 282h-198l-47 -282h44c19 0 47 -1 40 -39c-6 -37 -35 -38 -53 -38h-172c-19 0 -48 1 -42 38c7 38 35 39 55 39h43l47 282h-33c-18 0 -47 2 -41 38c7 38 36 39 55 39h32l7 42
c17 105 160 139 248 139c26 0 142 -3 128 -87c-5 -33 -33 -53 -61 -53c-27 0 -48 20 -43 52c1 7 3 8 3 11c1 7 -44 0 -47 0c-20 0 -56 -1 -96 -18c-42 -17 -45 -33 -48 -50l-6 -36h235c40 0 46 -12 40 -48l-52 -311h43c20 0 48 -1 41 -39z" />
    <glyph glyph-name="f_l" unicode="fl" horiz-adv-x="583" 
d="M572 38c-6 -37 -35 -38 -54 -38h-172c-19 0 -47 1 -40 39c6 36 35 38 53 38h44l47 282h-198l-47 -282h44c19 0 47 -1 40 -39c-6 -37 -35 -38 -53 -38h-172c-19 0 -48 1 -42 38c7 38 35 39 55 39h43l47 282h-33c-18 0 -47 2 -41 38c7 38 36 39 55 39h32l7 42
c16 95 136 139 257 139c30 0 60 -3 86 -8c4 1 7 2 11 2c34 0 31 -32 28 -49l-81 -485h43c20 0 48 -1 41 -39zM463 436l12 76c-7 8 -10 18 -9 27c-16 1 -27 1 -43 1c-21 0 -60 0 -97 -15c-49 -19 -52 -35 -55 -53l-6 -36h198z" />
    <glyph glyph-name="I_J" unicode="IJ" horiz-adv-x="840" 
d="M319 38c-6 -37 -35 -38 -54 -38h-181c-19 0 -48 1 -42 38c7 38 35 39 55 39h48l76 457h-48c-19 0 -48 2 -42 38c7 38 35 39 55 39h181c20 0 48 -1 41 -39c-6 -36 -35 -38 -54 -38h-48l-76 -457h48c20 0 48 -1 41 -39zM892 573c-7 -37 -36 -39 -56 -39h-20l-66 -395
c-15 -94 -108 -150 -199 -150c-103 0 -161 51 -150 116c6 37 35 54 62 54c29 0 47 -23 42 -51c-2 -12 -5 -19 -9 -24c23 -18 61 -18 68 -18c17 0 90 4 102 79l65 389h-70c-19 0 -49 2 -42 39c6 36 36 38 55 38h175c19 0 49 -2 43 -38z" />
    <glyph glyph-name="i_j" unicode="ij" horiz-adv-x="583" 
d="M277 537c-5 -28 -32 -57 -67 -57c-31 0 -53 26 -48 57c5 29 33 57 68 57c31 0 52 -26 47 -57zM568 537c-5 -28 -32 -57 -67 -57c-31 0 -53 26 -48 57c5 29 33 57 68 57c31 0 52 -26 47 -57zM276 38c-6 -37 -35 -38 -53 -38h-164c-18 0 -47 1 -41 38c7 38 35 39 54 39h44
l47 282h-39c-18 0 -48 2 -42 39c7 37 37 38 55 38h76c40 0 46 -12 40 -48l-52 -311h34c19 0 48 -2 41 -39zM470 -37c-13 -75 -66 -184 -174 -184c-77 0 -116 33 -108 82c5 34 35 54 61 54c11 0 50 -2 42 -59c3 -1 17 -1 21 -1c53 0 69 79 74 112l66 392h-53
c-19 0 -48 2 -42 39c7 37 37 38 55 38h89c41 0 46 -12 40 -48z" />
    <glyph glyph-name="f_k" unicode="fk" horiz-adv-x="855" 
d="M835 38c-6 -36 -36 -38 -54 -38h-123c-19 0 -47 1 -40 39c6 36 35 38 53 38l-84 131l-85 -66l-11 -65h44c20 0 48 -1 41 -39c-6 -37 -36 -38 -54 -38h-172c-19 0 -47 1 -40 39c6 36 35 38 53 38h44l47 282h-198l-47 -282h43c20 0 48 -1 41 -39c-6 -37 -35 -38 -54 -38
h-171c-19 0 -48 1 -42 38c7 38 35 39 55 39h43l47 282h-33c-18 0 -47 2 -41 38c7 38 36 39 55 39h32l7 42c16 95 135 139 256 139c40 0 87 -8 87 -8c4 1 7 2 10 2c35 0 30 -27 27 -49l-54 -324l158 121h-16c-18 0 -48 2 -42 38c7 38 35 39 55 39h159c18 0 49 -1 42 -39
c-6 -36 -37 -38 -55 -38h-34l-135 -104l115 -178h30c18 0 48 -2 41 -39zM463 436l12 76c-7 8 -10 18 -9 27c-16 1 -27 1 -43 1c-21 0 -60 0 -97 -15c-49 -19 -52 -35 -55 -53l-6 -36h198z" />
    <glyph glyph-name=".notdef" horiz-adv-x="280" 
 />
    <glyph glyph-name="acute.dup" 
d="M470 568c-2 -13 -9 -29 -40 -42l-139 -57c-7 -3 -14 -6 -22 -6c-31 0 -34 38 -33 48c4 22 18 29 36 36l139 58c14 6 23 6 23 6c24 0 40 -18 36 -43z" />
    <glyph glyph-name="AE.dup" horiz-adv-x="933" 
d="M907 49c-6 -38 -16 -49 -55 -49h-412c-18 0 -49 2 -43 38c7 37 37 39 56 39h20l17 101h-188l-61 -101h23c19 0 47 -1 40 -39c-6 -37 -35 -38 -53 -38h-155c-19 0 -48 1 -41 39c6 36 36 38 54 38h40l276 457h-3c-17 0 -48 2 -42 38c7 38 37 39 55 39h491
c40 0 45 -12 39 -49l-12 -70c-4 -24 -8 -49 -50 -49c-41 0 -38 26 -34 49l7 42h-242l-30 -179h125c8 40 14 55 52 55c41 0 38 -26 34 -49l-15 -90c-4 -23 -9 -49 -50 -49c-38 0 -39 15 -34 56h-125l-33 -201h270l10 58c4 24 9 49 51 49c41 0 36 -26 33 -49zM501 255l46 279
h-32l-169 -279h155z" />
    <glyph glyph-name="ae.dup" horiz-adv-x="758" 
d="M746 115c-4 -27 -66 -121 -186 -121c-41 0 -106 12 -152 71c-48 -60 -144 -71 -191 -71c-102 0 -153 63 -142 129c19 118 232 133 305 136l4 21c9 58 -27 88 -97 88c-13 0 -22 0 -36 -1c-6 -1 -8 -2 -8 -2c-8 -42 -42 -53 -60 -53c-28 0 -50 18 -44 53
c13 77 116 80 160 80c27 0 116 -1 156 -72c67 62 129 72 165 72c116 0 166 -92 146 -214c-8 -45 -29 -45 -56 -45h-254c4 -71 60 -115 123 -115c10 0 56 0 86 53c13 24 26 27 44 27c8 0 43 -1 37 -36zM689 261c2 56 -16 107 -77 107c-52 0 -111 -42 -138 -107h215zM359 132
l6 51c-44 -2 -82 -4 -123 -13c-14 -3 -83 -21 -87 -46c-5 -31 28 -53 79 -53c11 0 47 1 81 14c39 14 42 35 44 47z" />
    <glyph glyph-name="cedilla.dup" horiz-adv-x="467" 
d="M373 -95c-17 -103 -148 -107 -233 -107c-14 0 -37 9 -32 39c6 36 33 39 69 39c87 0 109 9 112 30c3 17 -16 28 -42 30c-36 2 -33 26 -30 47l6 32c3 21 8 46 49 46c38 0 39 -17 34 -55c44 -15 76 -49 67 -101z" />
    <glyph glyph-name="circumflex.dup" 
d="M500 502c-4 -20 -25 -39 -46 -39c-6 0 -11 2 -17 6l-86 58l-106 -58c-6 -4 -13 -6 -19 -6c-21 0 -36 19 -32 39c2 11 9 23 23 31l127 72c12 7 30 7 40 0l103 -72c12 -8 15 -20 13 -31z" />
    <glyph glyph-name="dieresis.dup" 
d="M322 537c-5 -27 -29 -52 -62 -52c-28 0 -48 23 -43 52c4 26 28 53 61 53c29 0 48 -25 44 -53zM489 537c-5 -27 -29 -52 -62 -52c-28 0 -48 23 -43 52c4 26 28 53 61 53c29 0 48 -25 44 -53z" />
    <glyph glyph-name="Gcedilla" horiz-adv-x="817" 
d="M811 241c-6 -36 -37 -38 -55 -38h-22l-26 -154c-4 -23 -9 -49 -50 -49c-42 0 -39 25 -35 49l3 15c-46 -35 -123 -75 -222 -75c-191 0 -323 142 -294 317c28 168 202 316 402 316c89 0 155 -26 193 -56c8 13 13 19 18 27c11 18 20 29 43 29c36 0 33 -29 30 -49l-23 -135
c-4 -24 -9 -48 -51 -48c-11 0 -34 0 -36 29c-2 25 -6 63 -53 94c-31 20 -77 32 -127 32c-153 0 -289 -109 -311 -240s80 -239 227 -239c96 0 186 55 222 137h-75c-19 0 -47 1 -41 39c6 36 36 38 54 38h187c19 0 48 -2 42 -39zM446 -88c-12 -72 -74 -118 -92 -118
s-29 18 -27 31s9 19 36 42c10 11 14 21 17 29c-33 8 -29 39 -28 45c4 24 25 44 52 44s51 -20 42 -73z" />
    <glyph glyph-name="gcedilla" 
d="M382 620c-2 -13 -9 -19 -36 -42c-9 -11 -14 -21 -16 -29c32 -8 28 -39 27 -45c-4 -24 -25 -44 -52 -44s-51 20 -42 73c12 72 75 118 93 118s29 -18 26 -31zM575 386c-5 -35 -36 -49 -56 -49c-11 0 -34 7 -38 32c-11 -1 -25 -4 -40 -10c11 -26 13 -53 8 -81
c-15 -91 -102 -165 -196 -165c-37 0 -65 12 -79 20c-3 -6 -4 -14 -4 -14s-2 -19 4 -30c7 -10 12 -10 25 -10c7 -2 19 -2 27 -2h68c90 0 128 -22 140 -29c48 -28 58 -80 51 -119c-14 -86 -130 -151 -260 -151s-224 64 -210 151c2 11 13 77 89 123c-6 14 -12 37 -7 67
c5 29 15 50 28 66c-11 20 -20 52 -14 93c15 87 101 164 197 164c43 0 73 -16 89 -27c50 31 98 32 109 32c60 0 74 -36 69 -61zM364 278c8 47 -22 88 -70 88c-46 0 -91 -39 -100 -89c-8 -47 22 -89 70 -89c46 0 92 40 100 90zM411 -71c13 75 -92 75 -174 75
c-68 0 -77 0 -102 -14c-31 -18 -43 -45 -46 -61c-7 -40 57 -76 148 -76s167 36 174 76z" />
    <glyph glyph-name="germandbls.dup" 
d="M527 179c-19 -112 -124 -185 -218 -185c-72 0 -100 42 -93 82c5 32 31 49 56 49c16 0 29 -8 35 -19c6 -10 7 -13 3 -34c4 -1 9 -1 12 -1c48 0 108 39 120 108c8 51 3 173 -121 180c0 0 -30 7 -25 38c5 29 27 38 72 42c70 9 97 45 100 62c3 21 -37 39 -91 39
c-24 0 -48 -4 -70 -13c-30 -12 -32 -22 -34 -38l-74 -440c-6 -38 -17 -49 -56 -49h-80c-19 0 -48 1 -42 38c7 38 35 39 55 39h43l47 282h-43c-19 0 -48 2 -42 38c7 38 35 39 55 39h43l10 59c16 96 136 122 202 122c99 0 173 -48 162 -115c-5 -29 -25 -73 -93 -111
c77 -68 75 -165 67 -212z" />
    <glyph glyph-name="hyphen.dup" horiz-adv-x="350" 
d="M332 218c-6 -37 -36 -38 -54 -38h-193c-20 0 -48 1 -41 39c6 36 36 37 54 37h193c20 0 48 -1 41 -38z" />
    <glyph glyph-name="Kcedilla" horiz-adv-x="788" 
d="M748 38c-6 -36 -37 -38 -55 -38h-122c-18 0 -48 1 -42 38c5 30 22 37 52 38l-164 233l-168 -120l-19 -112h44c19 0 48 -1 41 -39c-6 -37 -36 -38 -54 -38h-159c-19 0 -48 1 -42 38c7 38 35 39 55 39h43l76 457h-43c-19 0 -48 2 -42 38c7 38 35 39 55 39h159
c19 0 48 -1 41 -39c-6 -36 -36 -38 -54 -38h-44l-42 -252l354 253c-25 2 -37 10 -32 38c6 37 36 38 54 38h141c18 0 48 -1 41 -39c-6 -36 -36 -38 -54 -38h-36l-252 -180l195 -277h31c18 0 49 -2 42 -39zM431 -88c-12 -72 -74 -118 -92 -118s-29 18 -27 31s9 19 36 42
c10 11 14 21 17 29c-33 8 -29 39 -28 45c4 24 25 44 52 44s51 -20 42 -73z" />
    <glyph glyph-name="kcedilla" horiz-adv-x="554" 
d="M543 38c-6 -36 -36 -38 -54 -38h-123c-19 0 -47 1 -40 39c6 36 35 38 53 38h1l-85 131l-85 -66l-11 -65h43c20 0 48 -1 41 -39c-6 -37 -35 -38 -54 -38h-159c-18 0 -47 1 -41 38c7 38 35 39 54 39h44l76 457h-44c-18 0 -47 2 -41 38c7 38 35 39 54 39h68
c41 0 46 -12 40 -49l-54 -324l157 121h-16c-18 0 -47 2 -41 38c7 38 35 39 54 39h160c18 0 48 -1 41 -39c-6 -36 -36 -38 -54 -38h-35l-135 -104l115 -178h30c18 0 48 -2 41 -39zM315 -88c-12 -72 -74 -118 -92 -118s-29 18 -27 31s9 19 36 42c10 11 14 21 17 29
c-33 8 -29 39 -28 45c4 24 25 44 52 44s51 -20 42 -73z" />
    <glyph glyph-name="Lcedilla" horiz-adv-x="642" 
d="M606 49c-6 -38 -17 -49 -56 -49h-457c-19 0 -48 1 -42 38c7 38 35 39 55 39h43l76 457h-43c-19 0 -48 2 -42 38c7 38 35 39 55 39h195c19 0 48 -1 41 -39c-6 -36 -36 -38 -54 -38h-67l-76 -457h292l10 58c4 25 9 49 51 49c41 0 38 -25 34 -49zM358 -88
c-12 -72 -74 -118 -92 -118s-29 18 -27 31s9 19 36 42c10 11 14 21 17 29c-33 8 -29 39 -28 45c4 24 25 44 52 44s51 -20 42 -73z" />
    <glyph glyph-name="lcedilla" horiz-adv-x="292" 
d="M285 38c-6 -37 -35 -38 -54 -38h-171c-19 0 -48 1 -42 38c7 38 35 39 55 39h43l76 457h-43c-19 0 -48 2 -42 38c7 38 35 39 55 39h80c41 0 46 -12 40 -49l-81 -485h43c20 0 48 -1 41 -39zM183 -88c-12 -72 -74 -118 -92 -118s-29 18 -27 31s9 19 36 42c10 11 14 21 17 29
c-33 8 -29 39 -28 45c4 24 25 44 52 44s51 -20 42 -73z" />
    <glyph glyph-name="macron.dup" 
d="M545 537c-7 -37 -35 -39 -54 -39h-289c-20 0 -48 2 -41 40c6 38 34 39 53 39h290c20 0 47 -1 41 -40z" />
    <glyph glyph-name="Ncedilla" horiz-adv-x="758" 
d="M798 572c-6 -36 -35 -38 -53 -38h-44l-81 -485c-7 -42 -19 -49 -56 -49c-23 0 -47 0 -63 37l-197 483l-74 -443h43c20 0 48 -1 41 -39c-6 -37 -35 -38 -54 -38h-159c-18 0 -47 1 -41 38c7 38 35 39 54 39h44l76 457h-44c-18 0 -47 2 -41 38c7 38 35 39 54 39h92
c23 0 47 0 63 -37l197 -483l74 443h-43c-19 0 -48 2 -42 38c7 38 35 39 55 39h159c19 0 47 -1 40 -39zM417 -88c-12 -72 -74 -118 -92 -118s-29 18 -27 31s9 19 36 42c10 11 14 21 17 29c-33 8 -29 39 -28 45c4 24 25 44 52 44s51 -20 42 -73z" />
    <glyph glyph-name="ncedilla" horiz-adv-x="583" 
d="M572 38c-6 -37 -35 -38 -54 -38h-172c-19 0 -47 1 -40 39c6 36 35 38 53 38h44l35 209c8 48 4 79 -57 79c-50 0 -133 -31 -149 -126l-27 -162h44c19 0 47 -1 40 -39c-6 -37 -35 -38 -53 -38h-172c-19 0 -48 1 -42 38c7 38 35 39 55 39h43l47 282h-43c-19 0 -48 2 -42 38
c7 38 35 39 55 39h80c39 0 44 -11 41 -39c42 28 90 45 142 45c85 0 142 -39 124 -151l-36 -214h43c20 0 48 -1 41 -39zM329 -88c-12 -72 -74 -118 -92 -118s-29 18 -27 31s9 19 36 42c10 11 14 21 17 29c-33 8 -29 39 -28 45c4 24 25 44 52 44s51 -20 42 -73z" />
    <glyph glyph-name="OE.dup" horiz-adv-x="1050" 
d="M1023 49c-6 -38 -16 -49 -56 -49h-410c-10 0 -24 -1 -36 -2c-43 -4 -92 -9 -111 -9c-196 0 -325 144 -296 317c28 169 203 316 402 316c0 0 27 0 59 -4c0 0 56 -7 84 -7h382c41 0 46 -12 40 -49l-12 -70c-4 -24 -9 -49 -51 -49c-41 0 -38 26 -34 49l7 42h-301l-30 -179
h198c8 40 14 55 52 55c41 0 38 -26 34 -49l-15 -90c-4 -23 -9 -49 -50 -49c-38 0 -39 15 -34 56h-198l-33 -201h329l10 58c4 24 9 49 51 49c41 0 37 -26 34 -49zM562 306l16 101c17 108 15 138 -76 138c-166 0 -289 -113 -308 -228c-21 -126 63 -251 228 -251
c90 0 103 30 122 136z" />
    <glyph glyph-name="oe.dup" horiz-adv-x="817" 
d="M804 115c-4 -27 -66 -121 -186 -121c-91 0 -144 54 -166 93c-48 -54 -118 -93 -193 -93c-121 0 -203 100 -182 226c21 125 136 225 257 225c67 0 127 -32 161 -91c47 55 116 91 183 91c116 0 166 -92 146 -214c-8 -45 -29 -45 -56 -45h-254c4 -71 60 -115 123 -115
c10 0 56 0 86 53c13 24 26 27 44 27c8 0 43 -1 37 -36zM748 261c2 56 -16 107 -77 107c-52 0 -111 -42 -138 -107h215zM428 225c13 83 -40 143 -112 143s-145 -60 -158 -143c-14 -84 35 -154 109 -154s147 70 161 154z" />
    <glyph glyph-name="Oslash.dup" horiz-adv-x="817" 
d="M808 305c-28 -169 -204 -316 -402 -316c-73 0 -126 21 -151 34l-75 -85c-18 -19 -27 -21 -38 -21c-17 0 -37 14 -32 39c1 9 2 13 21 35l64 71c-81 73 -98 167 -85 244c28 169 204 316 402 316c62 0 130 -26 151 -34l73 83c19 23 32 23 40 23c17 0 36 -14 32 -39
c0 0 -1 -12 -17 -30l-68 -76c81 -73 98 -167 85 -244zM604 525c-28 10 -61 20 -107 20c-155 0 -295 -109 -317 -240c-13 -78 21 -143 67 -182zM738 306c13 80 -22 146 -68 182l-356 -402c28 -10 61 -20 107 -20c155 0 295 109 317 240z" />
    <glyph glyph-name="oslash.dup" 
d="M572 534c0 -3 -2 -11 -12 -25l-89 -120c39 -45 58 -105 48 -170c-21 -126 -139 -225 -258 -225c-17 0 -45 2 -75 14l-91 -121c-7 -10 -18 -23 -38 -23c-15 0 -37 13 -32 38c1 9 14 28 23 41l79 105c-48 50 -58 114 -48 171c20 123 135 226 257 226c35 0 60 -9 77 -15
l89 119c7 11 17 23 37 23c15 0 37 -13 33 -38zM361 363c-11 4 -19 5 -40 5c-80 0 -158 -67 -171 -149c-5 -30 -3 -69 25 -105zM448 219c5 30 1 71 -25 104l-184 -248c10 -3 18 -4 37 -4c80 0 158 65 172 148z" />
    <glyph glyph-name="quoteleft.dup" horiz-adv-x="292" 
d="M307 572c-3 -18 -14 -26 -25 -33c-14 -9 -38 -28 -50 -64c49 -7 42 -50 41 -56c-5 -31 -34 -58 -67 -58c-39 0 -66 34 -56 97c16 93 101 153 124 153c21 0 36 -21 33 -39z" />
    <glyph glyph-name="quoteright.dup" horiz-adv-x="292" 
d="M304 514c-16 -93 -101 -153 -124 -153c-21 0 -36 22 -33 39c3 18 14 26 25 33c14 10 38 29 50 64c-49 7 -42 50 -41 57c6 31 34 57 67 57c39 0 66 -33 56 -97z" />
    <glyph glyph-name="Rcedilla" horiz-adv-x="758" 
d="M770 100c-9 -50 -63 -111 -138 -111c-43 0 -77 19 -93 48c-21 36 -16 63 -6 124c9 53 11 65 -20 85c-19 10 -61 21 -115 21h-130l-32 -190h44c19 0 48 -1 41 -39c-6 -37 -36 -38 -54 -38h-172c-18 0 -48 1 -42 38c7 38 36 39 55 39h44l76 457h-44c-18 0 -48 2 -42 38
c7 38 36 39 55 39h260c147 0 260 -77 244 -172c-8 -52 -54 -101 -123 -133c15 -10 27 -23 36 -39c15 -31 13 -47 4 -102c-9 -53 -17 -99 27 -99c17 0 34 12 40 36c10 37 33 37 48 37c12 0 43 -1 37 -39zM616 439c10 58 -82 95 -181 95h-123l-32 -190h123c99 0 204 37 213 95
zM417 -88c-12 -72 -74 -118 -92 -118s-29 18 -27 31s9 19 36 42c10 11 14 21 17 29c-33 8 -29 39 -28 45c4 24 25 44 52 44s51 -20 42 -73z" />
    <glyph glyph-name="rcedilla" horiz-adv-x="408" 
d="M444 373c-5 -32 -32 -50 -58 -50c-14 0 -41 6 -41 40c-68 -14 -111 -94 -124 -172l-19 -114h67c20 0 48 -1 41 -39c-6 -37 -35 -38 -54 -38h-195c-18 0 -48 1 -42 38c7 38 36 39 55 39h44l47 282h-44c-18 0 -48 2 -42 38c7 38 36 39 55 39h81c38 0 43 -9 40 -40
c34 27 74 46 119 46c55 0 75 -38 70 -69zM184 -88c-12 -72 -74 -118 -92 -118s-29 18 -27 31s9 19 36 42c10 11 14 21 17 29c-33 8 -29 39 -28 45c4 24 25 44 52 44s51 -20 42 -73z" />
    <glyph glyph-name="tilde.dup" 
d="M536 564c-3 -19 -37 -44 -61 -60c-27 -18 -59 -34 -87 -34c-36 0 -54 22 -66 36c-8 9 -16 18 -21 18c-12 0 -37 -16 -68 -41c-10 -7 -19 -13 -32 -13c-20 0 -35 20 -32 40c3 19 37 44 61 60c27 18 59 34 87 34c36 0 54 -21 66 -35c8 -10 16 -18 21 -18c12 0 37 15 69 40
c9 8 18 13 31 13c20 0 35 -20 32 -40z" />
    <glyph glyph-name="A" unicode="A" horiz-adv-x="758" 
d="M721 38c-6 -37 -35 -38 -54 -38h-154c-18 0 -49 1 -42 39c6 36 37 38 55 38h26l-17 90h-257l-47 -90h26c18 0 49 -2 42 -39c-6 -36 -37 -38 -55 -38h-154c-20 0 -48 1 -41 39c6 36 35 38 54 38h38l267 508c19 37 44 38 65 38h19c23 0 46 -1 52 -39l98 -507h38
c20 0 48 -1 41 -39zM520 244l-54 282l-147 -282h201z" />
    <glyph glyph-name="a" unicode="a" horiz-adv-x="510" 
d="M513 39c-7 -37 -31 -39 -63 -39c-41 0 -81 4 -99 28c-31 -17 -81 -34 -142 -34c-100 0 -153 67 -141 139c15 90 131 149 308 153c5 58 -35 82 -97 82c-20 0 -44 -3 -44 -3c-8 -42 -41 -53 -60 -53c-28 0 -50 18 -44 53c13 77 116 80 160 80c141 0 182 -85 170 -159
l-34 -204c6 -3 17 -5 45 -5c18 0 47 -2 41 -38zM350 139l12 72c-140 -5 -204 -38 -211 -78c-5 -33 25 -62 77 -62c7 0 46 0 80 15c36 15 39 34 42 53z" />
    <glyph glyph-name="ampersand" unicode="&#x26;" horiz-adv-x="817" 
d="M828 397c-6 -36 -35 -38 -53 -38h-62l-99 -126c-19 -23 -40 -46 -59 -67c-26 -29 -47 -49 -59 -60c41 -29 85 -40 119 -40c36 0 78 13 89 46c3 13 12 40 42 40c0 0 36 0 30 -40c-10 -57 -76 -123 -174 -123c-49 0 -104 13 -172 65c-60 -40 -126 -65 -193 -65
c-105 0 -182 64 -167 154c9 52 45 91 79 113l110 69c-12 49 -14 102 -6 149c17 99 105 148 168 148c82 0 113 -77 102 -142c-10 -60 -67 -113 -174 -183c27 -70 77 -127 94 -145c66 55 107 108 184 207h-58c-18 0 -48 2 -42 38c7 38 35 39 55 39h206c19 0 47 -1 40 -39z
M448 480c4 26 -5 65 -43 65c-24 0 -74 -16 -83 -71c-1 -4 -9 -52 2 -106c47 30 118 78 124 112zM375 105c-11 13 -33 39 -50 64c-14 21 -33 51 -47 86c-85 -50 -123 -73 -129 -110c-7 -46 37 -79 97 -79c56 0 104 24 129 39z" />
    <glyph glyph-name="asciicircum" unicode="^" 
d="M541 505c-3 -18 -21 -37 -41 -37c-5 0 -11 0 -16 3l-133 62l-153 -62c-7 -3 -12 -3 -17 -3c-20 0 -32 19 -29 38c3 13 11 26 27 33l172 77c9 4 20 4 29 0l146 -77c15 -8 17 -21 15 -34z" />
    <glyph glyph-name="asciitilde" unicode="~" 
d="M498 333c-4 -19 -38 -44 -61 -60c-27 -18 -59 -34 -87 -34c-36 0 -54 22 -66 36c-9 9 -16 18 -21 18c-12 0 -38 -16 -69 -41c-9 -7 -18 -13 -31 -13c-20 0 -36 20 -32 40c3 19 37 44 61 60c27 18 58 34 86 34c36 0 55 -21 66 -35c9 -10 16 -18 21 -18c12 0 38 15 69 40
c9 8 18 13 31 13c20 0 36 -20 33 -40z" />
    <glyph glyph-name="asterisk" unicode="*" 
d="M495 217c-3 -19 -23 -41 -48 -41c-8 0 -12 0 -37 17l-69 46l-15 -102c-2 -11 -9 -50 -49 -50s-35 39 -33 50l19 102l-119 -63c-50 0 -44 36 -43 41c4 23 19 31 36 39l98 50l-83 50c-14 8 -25 16 -21 38c3 19 23 41 48 41c8 0 11 0 25 -10l81 -53l15 102c2 11 9 50 49 50
s35 -39 33 -50l-19 -102l119 63c50 0 44 -36 43 -41c-4 -22 -19 -31 -36 -39l-98 -50l93 -55c4 -4 14 -15 11 -33z" />
    <glyph glyph-name="at" unicode="@" horiz-adv-x="700" 
d="M655 86c-3 -20 -15 -28 -37 -38c-56 -29 -130 -54 -213 -54c-196 0 -324 142 -296 312s207 311 398 311c214 0 206 -187 187 -301c-25 -151 -145 -213 -228 -213c-103 0 -176 87 -157 203c18 110 118 202 226 202c24 0 49 -5 74 -17c-9 13 -19 23 -35 32
c-23 13 -51 17 -80 17c-150 0 -292 -104 -314 -235c-21 -125 82 -234 237 -234c37 0 95 7 161 40c19 11 21 11 38 11c12 0 45 -1 39 -36zM623 306c11 67 -30 125 -99 125c-63 0 -128 -54 -140 -126c-11 -67 30 -125 99 -125c63 0 128 54 140 126z" />
    <glyph glyph-name="B" unicode="B" horiz-adv-x="729" 
d="M699 171c-15 -87 -126 -171 -264 -171h-341c-18 0 -48 1 -42 38c7 38 35 39 55 39h43l76 457h-43c-18 0 -48 2 -42 38c7 38 35 39 55 39h314c135 0 221 -77 207 -159c-10 -64 -77 -108 -141 -131c91 -26 133 -88 123 -150zM633 451c8 45 -50 83 -137 83h-184l-30 -178
h152c109 0 191 43 199 95zM616 173c9 57 -54 106 -145 106h-201l-34 -202h186c94 0 184 39 194 96z" />
    <glyph glyph-name="b" unicode="b" horiz-adv-x="583" 
d="M576 219c-22 -128 -144 -225 -264 -225c-55 0 -91 23 -114 46c-7 -27 -16 -40 -48 -40c-42 0 -39 25 -35 49l81 485h-44c-18 0 -47 2 -41 38c7 38 35 39 54 39h81c40 0 46 -12 40 -49l-27 -163c47 31 96 43 139 43c120 0 198 -102 178 -223zM493 219
c12 76 -33 146 -113 146c-63 0 -134 -45 -143 -102l-11 -65c-8 -50 20 -127 96 -127c77 0 156 62 171 148z" />
    <glyph glyph-name="backslash" unicode="\" 
d="M463 -38c-4 -22 -26 -43 -51 -43c-26 0 -32 20 -36 31l-209 672c-3 6 -5 18 -4 27c4 22 25 43 50 43c26 0 33 -20 37 -31l209 -672c3 -6 5 -18 4 -27z" />
    <glyph glyph-name="bar" unicode="|" 
d="M301 -26c-3 -14 -12 -55 -53 -55s-36 41 -33 55l110 663c3 14 11 55 52 55s37 -41 34 -55z" />
    <glyph glyph-name="braceleft" unicode="{" 
d="M463 -42c-6 -37 -35 -39 -57 -39c-48 0 -101 8 -139 31c-49 30 -42 77 -37 108l27 161c5 43 -94 47 -116 48c-13 0 -42 2 -36 39c5 31 32 38 40 38c22 0 70 1 106 15c31 13 33 26 38 57l15 87c5 28 13 77 15 83c33 90 145 106 216 106c22 0 50 -2 44 -39
c-5 -31 -32 -38 -40 -38c-32 0 -113 0 -135 -34c-3 -7 -9 -44 -13 -67l-22 -129c-5 -24 -23 -54 -62 -80c41 -30 37 -69 33 -93l-26 -157c-4 -27 -8 -56 113 -59c11 0 42 -2 36 -38z" />
    <glyph glyph-name="braceright" unicode="}" 
d="M521 305c-5 -31 -32 -38 -40 -38c-23 0 -69 -1 -105 -15c-31 -13 -33 -26 -38 -57l-15 -87c-5 -28 -13 -77 -15 -83c-30 -83 -130 -106 -218 -106c-21 0 -49 2 -43 39c5 31 32 38 40 38c131 2 137 30 142 56l29 173c0 4 9 47 62 81c-32 23 -40 54 -34 92l27 157
c4 29 8 58 -115 60c-18 0 -41 5 -35 38c6 37 35 39 56 39c35 0 98 -5 141 -31c49 -30 42 -77 38 -106l-27 -162c-6 -44 93 -48 114 -49c13 0 42 -2 36 -39z" />
    <glyph glyph-name="bracketleft" unicode="[" horiz-adv-x="297" 
d="M272 -43c-6 -36 -36 -38 -54 -38h-81c-40 0 -45 12 -38 49l112 675c7 38 16 49 55 49h81c19 0 47 -2 41 -39s-35 -38 -53 -38h-44l-104 -619h44c19 0 47 -1 41 -39z" />
    <glyph glyph-name="bracketright" unicode="]" horiz-adv-x="297" 
d="M187 -32c-7 -38 -17 -49 -56 -49h-81c-19 0 -46 2 -40 39s35 38 53 38h44l104 619h-44c-19 0 -47 1 -41 39c6 36 35 38 53 38h81c40 0 45 -12 39 -49z" />
    <glyph glyph-name="C" unicode="C" horiz-adv-x="758" 
d="M728 172c-17 -103 -140 -183 -321 -183c-205 0 -326 150 -298 317c28 168 202 316 402 316c89 0 155 -26 193 -56c8 13 12 19 18 27c11 18 20 29 43 29c36 0 33 -29 30 -49l-23 -135c-4 -24 -9 -48 -51 -48c-11 0 -34 0 -36 29c-2 25 -6 63 -53 94c-31 20 -77 32 -127 32
c-155 0 -290 -112 -311 -239s74 -240 233 -240c45 0 99 8 138 26c64 29 73 63 79 85c8 35 35 36 48 36s42 -1 36 -41z" />
    <glyph glyph-name="c" unicode="c" horiz-adv-x="467" 
d="M459 115c-3 -18 -54 -121 -197 -121c-127 0 -205 103 -184 225c14 88 97 226 271 226c47 0 153 -4 140 -80c-6 -33 -33 -53 -61 -53s-47 15 -42 56h-50c-124 0 -167 -105 -174 -149c-14 -84 41 -148 119 -148c63 0 90 41 97 53c13 24 25 27 44 27c8 0 43 -1 37 -36z" />
    <glyph glyph-name="colon" unicode=":" horiz-adv-x="292" 
d="M266 379c-5 -32 -34 -57 -66 -57s-53 25 -48 57c6 32 35 57 67 57s53 -25 47 -57zM213 57c-6 -32 -35 -57 -67 -57s-53 25 -47 57c5 32 34 58 66 58s53 -26 48 -58z" />
    <glyph glyph-name="comma" unicode="," horiz-adv-x="292" 
d="M218 18c-15 -92 -98 -153 -121 -153c-21 0 -36 21 -33 39c3 17 13 24 28 36c29 22 40 46 44 61c-45 9 -38 50 -37 56c5 31 32 58 66 58c35 0 65 -27 53 -97z" />
    <glyph glyph-name="D" unicode="D" horiz-adv-x="788" 
d="M777 300c-27 -164 -192 -300 -370 -300h-312c-19 0 -48 1 -42 38c7 38 35 39 55 39h43l76 457h-43c-19 0 -48 2 -42 38c7 38 35 39 55 39h312c176 0 297 -140 268 -311zM694 301c21 122 -67 233 -215 233h-166l-76 -457h167c142 0 270 101 290 224z" />
    <glyph glyph-name="d" unicode="d" horiz-adv-x="583" 
d="M572 38c-6 -37 -35 -38 -53 -38h-81c-39 0 -45 11 -40 44c-32 -24 -81 -50 -141 -50c-117 0 -198 99 -178 224c21 125 140 224 264 224c40 0 81 -12 114 -40l22 132h-43c-20 0 -48 1 -41 39c6 37 36 38 54 38h80c41 0 46 -12 40 -49l-81 -485h44c19 0 47 -1 40 -39z
M422 200l11 64c9 53 -36 101 -99 101c-79 0 -158 -64 -172 -147c-13 -80 36 -147 112 -147c77 0 139 75 148 129z" />
    <glyph glyph-name="dollar" unicode="$" 
d="M498 175c-11 -70 -75 -156 -198 -178l-4 -29c-4 -19 -11 -49 -47 -49c-38 0 -34 30 -30 49l4 28c-110 14 -153 91 -140 174c9 53 52 57 63 57c23 0 48 -19 42 -52c-3 -21 -12 -32 -20 -37c7 -38 35 -57 68 -64l35 208c-158 34 -145 142 -141 166c12 74 87 150 196 166
l5 29c3 19 9 49 47 49c36 0 33 -30 30 -49l-4 -28c112 -13 153 -85 141 -162c-8 -43 -38 -57 -63 -57c-31 0 -47 25 -42 52c2 13 8 25 18 34c-7 37 -41 50 -67 55l-31 -185c136 -29 146 -128 138 -177zM285 368l28 168c-54 -11 -99 -44 -106 -84c-7 -43 31 -73 78 -84z
M421 171c7 43 -22 81 -76 95l-31 -190c56 13 99 52 107 95z" />
    <glyph glyph-name="E" unicode="E" horiz-adv-x="700" 
d="M678 49c-6 -38 -17 -49 -56 -49h-528c-18 0 -48 1 -42 38c7 38 35 39 55 39h43l76 457h-43c-18 0 -48 2 -42 38c7 38 35 39 55 39h500c40 0 46 -12 40 -49l-12 -70c-4 -24 -9 -49 -51 -49c-41 0 -38 26 -34 49l7 42h-335l-30 -179h176c7 40 14 55 52 55
c40 0 37 -26 33 -49l-15 -90c-4 -23 -9 -49 -49 -49c-38 0 -40 15 -34 56h-176l-33 -201h363l10 58c4 24 9 49 51 49c41 0 37 -26 34 -49z" />
    <glyph glyph-name="e" unicode="e" horiz-adv-x="467" 
d="M459 115c-4 -27 -67 -121 -198 -121c-127 0 -210 101 -189 227c20 121 130 224 250 224c125 0 177 -94 156 -215c-7 -44 -29 -44 -55 -44h-269c5 -70 60 -115 126 -115c28 0 73 10 98 53c13 24 25 27 44 27c8 0 43 -1 37 -36zM397 261c4 86 -45 107 -88 107
c-57 0 -115 -44 -140 -107h228z" />
    <glyph glyph-name="eight" unicode="8" 
d="M513 178c-17 -99 -125 -189 -253 -189c-127 0 -206 90 -189 189c11 68 72 124 143 151c-61 28 -91 76 -83 129c14 82 113 164 235 164c121 0 193 -81 179 -164c-8 -53 -53 -100 -126 -129c61 -27 105 -83 94 -151zM460 457c8 46 -37 88 -107 88c-71 0 -129 -42 -137 -88
c-8 -51 41 -90 107 -90s129 38 137 90zM428 179c9 55 -34 111 -118 111c-83 0 -145 -56 -154 -111c-11 -63 42 -113 117 -113s144 50 155 113z" />
    <glyph glyph-name="equal" unicode="=" horiz-adv-x="817" 
d="M820 380c-7 -42 -45 -43 -60 -43h-592c-15 0 -53 1 -46 43c7 41 50 43 67 43h580c17 0 58 -2 51 -43zM796 232c-7 -41 -49 -43 -66 -43h-580c-17 0 -59 2 -52 43c7 42 45 43 60 43h592c15 0 53 -1 46 -43z" />
    <glyph glyph-name="exclam" unicode="!" horiz-adv-x="292" 
d="M296 558c-9 -52 -21 -105 -31 -156l-31 -168c-11 -47 -16 -55 -58 -55c-16 0 -46 2 -43 33l17 118l32 227c10 61 58 65 68 65s56 -4 46 -64zM213 57c-6 -32 -35 -57 -67 -57s-53 25 -47 57c5 32 34 58 66 58s53 -26 48 -58z" />
    <glyph glyph-name="F" unicode="F" horiz-adv-x="671" 
d="M708 492c-4 -24 -8 -49 -50 -49c-41 0 -38 26 -34 49l7 42h-321l-32 -190h170c8 40 15 55 53 55c41 0 37 -25 34 -48l-16 -91c-3 -23 -9 -48 -50 -48c-38 0 -39 15 -33 55h-170l-32 -190h67c20 0 48 -1 41 -39c-6 -37 -35 -38 -54 -38h-195c-18 0 -47 1 -41 38
c7 38 35 39 54 39h44l76 457h-44c-18 0 -47 2 -41 38c7 38 35 39 54 39h486c40 0 45 -12 39 -49z" />
    <glyph glyph-name="f" unicode="f" horiz-adv-x="321" 
d="M458 550c-6 -33 -36 -52 -60 -52c-31 0 -40 27 -42 42c-28 0 -78 -5 -88 -67l-6 -37h70c19 0 48 -1 41 -39c-6 -36 -36 -38 -54 -38h-70l-47 -282h67c19 0 48 -1 41 -39c-6 -37 -36 -38 -54 -38h-195c-18 0 -48 1 -42 38c7 38 35 39 55 39h44l47 282h-34
c-18 0 -47 2 -41 38c7 38 36 39 55 39h33l7 43c15 90 100 138 183 138c16 0 101 -2 90 -67z" />
    <glyph glyph-name="five" unicode="5" 
d="M507 193c-18 -112 -134 -204 -261 -204c-114 0 -187 73 -172 158c7 45 44 55 62 55c24 0 48 -19 42 -52c-3 -17 -9 -27 -15 -33c18 -45 72 -51 96 -51c77 0 151 54 163 127c10 59 -19 126 -93 126c-54 0 -93 -16 -123 -46c-12 -12 -17 -18 -39 -18c-39 0 -36 27 -32 49
l43 258c6 38 17 49 56 49h261c20 0 48 -1 41 -39c-6 -36 -36 -38 -54 -38h-224l-27 -161c40 17 80 22 112 22c119 0 181 -99 164 -202z" />
    <glyph glyph-name="four" unicode="4" 
d="M531 202c-6 -36 -36 -38 -55 -38h-67l-14 -87h52c19 0 48 -1 41 -39c-6 -37 -36 -38 -54 -38h-175c-18 0 -48 1 -42 38c7 38 36 39 55 39h52l14 87h-236c-37 0 -46 8 -40 48c4 22 4 24 17 39l280 347c18 23 24 25 52 25h27c40 0 46 -10 40 -49l-56 -333h67
c20 0 48 -1 42 -39zM349 241l50 300l-241 -300h191z" />
    <glyph glyph-name="G" unicode="G" horiz-adv-x="817" 
d="M811 241c-6 -36 -37 -38 -55 -38h-22l-26 -154c-4 -23 -9 -49 -50 -49c-42 0 -39 25 -35 49l3 15c-46 -35 -123 -75 -222 -75c-191 0 -323 142 -294 317c28 168 202 316 402 316c89 0 155 -26 193 -56c8 13 13 19 18 27c11 18 20 29 43 29c36 0 33 -29 30 -49l-23 -135
c-4 -24 -9 -48 -51 -48c-11 0 -34 0 -36 29c-2 25 -6 63 -53 94c-31 20 -77 32 -127 32c-153 0 -289 -109 -311 -240s80 -239 227 -239c96 0 186 55 222 137h-75c-19 0 -47 1 -41 39c6 36 36 38 54 38h187c19 0 48 -2 42 -39z" />
    <glyph glyph-name="g" unicode="g" 
d="M575 386c-5 -35 -36 -49 -56 -49c-11 0 -34 7 -38 32c-11 -1 -25 -4 -40 -10c11 -26 13 -53 8 -81c-15 -91 -102 -165 -196 -165c-37 0 -65 12 -79 20c-3 -6 -4 -14 -4 -14s-2 -19 4 -30c7 -10 12 -10 25 -10c7 -2 19 -2 27 -2h68c90 0 128 -22 140 -29
c48 -28 58 -80 51 -119c-14 -86 -130 -151 -260 -151s-224 64 -210 151c2 11 13 77 89 123c-6 14 -12 37 -7 67c5 29 15 50 28 66c-11 20 -20 52 -14 93c15 87 101 164 197 164c43 0 73 -16 89 -27c50 31 98 32 109 32c60 0 74 -36 69 -61zM364 278c8 47 -22 88 -70 88
c-46 0 -91 -39 -100 -89c-8 -47 22 -89 70 -89c46 0 92 40 100 90zM411 -71c13 75 -92 75 -174 75c-68 0 -77 0 -102 -14c-31 -18 -43 -45 -46 -61c-7 -40 57 -76 148 -76s167 36 174 76z" />
    <glyph glyph-name="grave" unicode="`" 
d="M459 511c-1 -10 -18 -48 -49 -48c-8 0 -13 3 -20 6l-119 57c-27 13 -28 29 -26 42c4 25 26 43 50 43c0 0 9 0 21 -6l119 -58c16 -7 28 -14 24 -36z" />
    <glyph glyph-name="greater" unicode="&#x3e;" 
d="M522 306c-4 -22 -20 -32 -32 -39l-353 -202c-18 -10 -22 -11 -32 -11c-20 0 -40 15 -36 43c4 22 21 32 35 41l295 168l-239 168c-11 9 -25 19 -21 41c5 28 30 43 50 43c10 0 14 -1 28 -12l289 -203c12 -8 19 -21 16 -37z" />
    <glyph glyph-name="H" unicode="H" horiz-adv-x="758" 
d="M716 38c-6 -37 -35 -38 -53 -38h-172c-19 0 -48 1 -42 38c7 38 35 39 55 39h43l34 202h-311l-34 -202h43c20 0 48 -1 41 -39c-6 -37 -35 -38 -54 -38h-172c-18 0 -47 1 -41 38c7 38 35 39 54 39h44l76 457h-44c-18 0 -47 2 -41 38c7 38 35 39 54 39h172
c20 0 48 -1 41 -39c-6 -36 -35 -38 -54 -38h-43l-30 -178h311l30 178h-43c-19 0 -48 2 -42 38c7 38 35 39 55 39h172c19 0 47 -1 40 -39c-6 -36 -35 -38 -53 -38h-44l-76 -457h44c19 0 47 -1 40 -39z" />
    <glyph glyph-name="h" unicode="h" horiz-adv-x="583" 
d="M572 38c-6 -37 -35 -38 -54 -38h-172c-19 0 -47 1 -40 39c6 36 35 38 53 38h44l35 209c8 48 4 79 -57 79c-50 0 -133 -31 -149 -126l-27 -162h44c19 0 47 -1 40 -39c-6 -37 -35 -38 -53 -38h-172c-19 0 -48 1 -42 38c7 38 35 39 55 39h43l76 457h-43c-19 0 -48 2 -42 38
c7 38 35 39 55 39h80c41 0 46 -12 40 -49l-28 -165c42 29 90 45 142 45c85 0 142 -39 124 -151l-36 -214h43c20 0 48 -1 41 -39z" />
    <glyph glyph-name="hyphen" unicode="-" horiz-adv-x="350" 
d="M332 218c-6 -37 -36 -38 -54 -38h-193c-20 0 -48 1 -41 39c6 36 36 37 54 37h193c20 0 48 -1 41 -38z" />
    <glyph glyph-name="I" unicode="I" horiz-adv-x="350" 
d="M319 38c-6 -37 -35 -38 -54 -38h-181c-19 0 -48 1 -42 38c7 38 35 39 55 39h48l76 457h-48c-19 0 -48 2 -42 38c7 38 35 39 55 39h181c20 0 48 -1 41 -39c-6 -36 -35 -38 -54 -38h-48l-76 -457h48c20 0 48 -1 41 -39z" />
    <glyph glyph-name="i" unicode="i" horiz-adv-x="292" 
d="M276 38c-6 -37 -35 -38 -53 -38h-164c-18 0 -47 1 -41 38c7 38 35 39 54 39h44l47 282h-39c-18 0 -48 2 -42 39c7 37 37 38 55 38h76c40 0 46 -12 40 -48l-52 -311h34c19 0 48 -2 41 -39zM293 537c-5 -28 -33 -57 -68 -57c-31 0 -53 26 -47 57c4 29 32 57 67 57
c31 0 53 -26 48 -57z" />
    <glyph glyph-name="J" unicode="J" 
d="M577 573c-7 -37 -36 -39 -56 -39h-20l-66 -395c-15 -94 -108 -150 -199 -150c-103 0 -161 51 -150 116c6 37 35 54 62 54c29 0 47 -23 42 -51c-2 -12 -5 -19 -9 -24c23 -18 61 -18 68 -18c17 0 90 4 102 79l65 389h-70c-19 0 -49 2 -42 39c6 36 36 38 55 38h175
c19 0 49 -2 43 -38z" />
    <glyph glyph-name="j" unicode="j" horiz-adv-x="321" 
d="M208 -37c-13 -75 -66 -184 -174 -184c-77 0 -116 33 -108 82c5 34 35 54 61 54c11 0 50 -2 42 -59c3 -1 17 -1 21 -1c53 0 69 79 74 112l66 392h-53c-19 0 -48 2 -42 39c7 37 37 38 55 38h89c41 0 46 -12 40 -48zM306 537c-5 -28 -33 -57 -68 -57c-31 0 -53 26 -47 57
c4 29 32 57 67 57c31 0 53 -26 48 -57z" />
    <glyph glyph-name="K" unicode="K" horiz-adv-x="788" 
d="M748 38c-6 -36 -37 -38 -55 -38h-122c-18 0 -48 1 -42 38c5 30 22 37 52 38l-164 233l-168 -120l-19 -112h44c19 0 48 -1 41 -39c-6 -37 -36 -38 -54 -38h-159c-19 0 -48 1 -42 38c7 38 35 39 55 39h43l76 457h-43c-19 0 -48 2 -42 38c7 38 35 39 55 39h159
c19 0 48 -1 41 -39c-6 -36 -36 -38 -54 -38h-44l-42 -252l354 253c-25 2 -37 10 -32 38c6 37 36 38 54 38h141c18 0 48 -1 41 -39c-6 -36 -36 -38 -54 -38h-36l-252 -180l195 -277h31c18 0 49 -2 42 -39z" />
    <glyph glyph-name="k" unicode="k" horiz-adv-x="554" 
d="M543 38c-6 -36 -36 -38 -54 -38h-123c-19 0 -47 1 -40 39c6 36 35 38 53 38h1l-85 131l-85 -66l-11 -65h43c20 0 48 -1 41 -39c-6 -37 -35 -38 -54 -38h-159c-18 0 -47 1 -41 38c7 38 35 39 54 39h44l76 457h-44c-18 0 -47 2 -41 38c7 38 35 39 54 39h68
c41 0 46 -12 40 -49l-54 -324l157 121h-16c-18 0 -47 2 -41 38c7 38 35 39 54 39h160c18 0 48 -1 41 -39c-6 -36 -36 -38 -54 -38h-35l-135 -104l115 -178h30c18 0 48 -2 41 -39z" />
    <glyph glyph-name="L" unicode="L" horiz-adv-x="642" 
d="M606 49c-6 -38 -17 -49 -56 -49h-457c-19 0 -48 1 -42 38c7 38 35 39 55 39h43l76 457h-43c-19 0 -48 2 -42 38c7 38 35 39 55 39h195c19 0 48 -1 41 -39c-6 -36 -36 -38 -54 -38h-67l-76 -457h292l10 58c4 25 9 49 51 49c41 0 38 -25 34 -49z" />
    <glyph glyph-name="l" unicode="l" horiz-adv-x="292" 
d="M285 38c-6 -37 -35 -38 -54 -38h-171c-19 0 -48 1 -42 38c7 38 35 39 55 39h43l76 457h-43c-19 0 -48 2 -42 38c7 38 35 39 55 39h80c41 0 46 -12 40 -49l-81 -485h43c20 0 48 -1 41 -39z" />
    <glyph glyph-name="less" unicode="&#x3c;" 
d="M487 97c-4 -28 -30 -43 -50 -43c-10 0 -14 1 -28 11l-289 204c-12 8 -19 21 -16 37c4 22 20 32 33 39l352 202c18 10 22 11 32 11c20 0 41 -15 36 -43c-4 -22 -20 -32 -35 -41l-295 -168l239 -168c12 -9 25 -19 21 -41z" />
    <glyph glyph-name="M" unicode="M" horiz-adv-x="933" 
d="M882 38c-6 -37 -35 -38 -54 -38h-159c-19 0 -48 1 -41 39c6 36 36 38 54 38h44l70 419l-271 -446c-21 -35 -47 -39 -57 -39c-32 0 -41 27 -44 41l-122 445l-70 -420h44c19 0 48 -1 41 -39c-6 -37 -36 -38 -54 -38h-159c-19 0 -48 1 -42 38c7 38 35 39 55 39h43l76 457
h-43c-19 0 -48 2 -42 38c7 38 35 39 55 39h93c37 0 49 -8 57 -41l127 -467l283 469c23 39 49 39 71 39h93c20 0 48 -1 41 -39c-6 -36 -35 -38 -54 -38h-43l-76 -457h43c20 0 48 -1 41 -39z" />
    <glyph glyph-name="m" unicode="m" horiz-adv-x="875" 
d="M861 38c-6 -37 -36 -38 -54 -38h-172c-18 0 -47 1 -41 38c7 38 35 39 54 39h44l35 209c8 50 2 79 -58 79c-48 0 -133 -30 -149 -126l-27 -162h43c20 0 48 -1 41 -39c-6 -37 -35 -38 -54 -38h-171c-19 0 -48 1 -42 38c7 38 35 39 55 39h43l35 209c8 50 2 79 -58 79
c-48 0 -133 -30 -149 -126l-27 -162h44c19 0 47 -1 40 -39c-6 -37 -35 -38 -53 -38h-172c-18 0 -48 1 -42 38c7 38 35 39 55 39h44l47 282h-44c-18 0 -48 2 -42 38c7 38 35 39 55 39h81c39 0 44 -11 40 -40c44 31 93 46 142 46c51 0 99 -14 119 -63c55 46 112 63 165 63
c94 0 141 -47 124 -151l-36 -214h44c20 0 48 -1 41 -39z" />
    <glyph glyph-name="N" unicode="N" horiz-adv-x="758" 
d="M798 572c-6 -36 -35 -38 -53 -38h-44l-81 -485c-7 -42 -19 -49 -56 -49c-23 0 -47 0 -63 37l-197 483l-74 -443h43c20 0 48 -1 41 -39c-6 -37 -35 -38 -54 -38h-159c-18 0 -47 1 -41 38c7 38 35 39 54 39h44l76 457h-44c-18 0 -47 2 -41 38c7 38 35 39 54 39h92
c23 0 47 0 63 -37l197 -483l74 443h-43c-19 0 -48 2 -42 38c7 38 35 39 55 39h159c19 0 47 -1 40 -39z" />
    <glyph glyph-name="n" unicode="n" horiz-adv-x="583" 
d="M572 38c-6 -37 -35 -38 -54 -38h-172c-19 0 -47 1 -40 39c6 36 35 38 53 38h44l35 209c8 48 4 79 -57 79c-50 0 -133 -31 -149 -126l-27 -162h44c19 0 47 -1 40 -39c-6 -37 -35 -38 -53 -38h-172c-19 0 -48 1 -42 38c7 38 35 39 55 39h43l47 282h-43c-19 0 -48 2 -42 38
c7 38 35 39 55 39h80c39 0 44 -11 41 -39c42 28 90 45 142 45c85 0 142 -39 124 -151l-36 -214h43c20 0 48 -1 41 -39z" />
    <glyph glyph-name="nine" unicode="9" 
d="M526 312c-33 -198 -179 -323 -311 -323c-133 0 -137 76 -132 109c6 35 33 55 62 55c31 0 48 -24 43 -52c-2 -12 -6 -19 -9 -25c16 -10 42 -10 49 -10c84 0 166 82 199 187c-46 -31 -95 -44 -141 -44c-111 0 -186 90 -167 206c21 122 137 207 250 207
c95 0 197 -68 157 -310zM445 387c11 70 4 83 -18 120c-12 17 -33 38 -71 38c-66 0 -139 -51 -152 -130c-11 -67 27 -128 100 -128c75 0 132 50 141 100z" />
    <glyph glyph-name="numbersign" unicode="#" horiz-adv-x="875" 
d="M853 232c-7 -41 -49 -43 -65 -43h-211l-92 -155c-9 -16 -21 -34 -48 -34c-24 0 -39 21 -36 43c1 3 2 9 11 25l72 121h-128l-91 -155c-9 -16 -21 -34 -49 -34c-24 0 -38 21 -35 43c1 3 2 9 10 25l73 121h-114c-16 0 -58 2 -51 43c7 42 45 43 60 43h155l36 62h-181
c-15 0 -53 1 -46 43c7 41 50 43 66 43h212l90 154c9 16 21 34 48 34c24 0 39 -21 36 -43c-1 -4 -2 -9 -11 -25l-70 -120h128l89 154c9 16 21 34 49 34c24 0 38 -21 35 -43c-1 -4 -2 -9 -10 -25l-71 -120h113c16 0 57 -2 50 -43c-7 -42 -45 -43 -60 -43h-154l-36 -62h180
c15 0 53 -1 46 -43zM570 337h-127l-36 -62h127z" />
    <glyph glyph-name="O" unicode="O" horiz-adv-x="817" 
d="M808 305c-28 -169 -204 -316 -402 -316c-196 0 -325 144 -296 317c28 169 204 316 402 316c196 0 325 -144 296 -317zM725 317c21 124 -79 228 -226 228s-281 -104 -302 -228c-23 -136 74 -251 222 -251s283 114 306 251z" />
    <glyph glyph-name="o" unicode="o" 
d="M525 219c-21 -126 -140 -225 -264 -225s-209 99 -188 225c20 123 137 226 263 226s209 -103 189 -226zM442 225c13 83 -43 143 -119 143s-152 -60 -165 -143c-14 -83 36 -154 116 -154c79 0 154 71 168 154z" />
    <glyph glyph-name="one" unicode="1" 
d="M452 38c-6 -37 -35 -38 -54 -38h-243c-19 0 -48 1 -42 38c7 38 35 39 55 39h79l71 427c-31 -12 -69 -18 -93 -18c-10 0 -43 0 -37 38c5 27 26 37 63 40c25 2 66 11 96 38c15 14 22 20 38 20c36 0 33 -29 30 -49l-83 -496h79c20 0 48 -1 41 -39z" />
    <glyph glyph-name="P" unicode="P" horiz-adv-x="700" 
d="M712 424c-17 -98 -136 -186 -279 -186h-171l-27 -161h43c20 0 48 -1 41 -39c-6 -37 -35 -38 -54 -38h-172c-18 0 -47 1 -41 38c7 38 35 39 54 39h44l76 457h-44c-18 0 -47 2 -41 38c7 38 35 39 54 39h300c143 0 233 -88 217 -187zM629 424c10 60 -61 110 -163 110h-154
l-36 -219h154c101 0 189 50 199 109z" />
    <glyph glyph-name="p" unicode="p" horiz-adv-x="583" 
d="M576 219c-22 -128 -144 -225 -264 -225c-55 0 -91 22 -113 46l-30 -179h43c20 0 48 -1 41 -39c-6 -36 -36 -38 -54 -38h-172c-18 0 -47 2 -41 38c7 38 35 39 54 39h44l83 498h-44c-18 0 -47 2 -41 38c7 38 35 39 54 39h81c39 0 44 -11 41 -37c47 31 97 43 140 43
c120 0 198 -102 178 -223zM493 219c12 76 -33 146 -113 146c-63 0 -134 -45 -143 -102l-11 -65c-8 -50 20 -127 96 -127c77 0 156 62 171 148z" />
    <glyph glyph-name="parenleft" unicode="(" horiz-adv-x="408" 
d="M347 -44c-2 -10 -12 -36 -45 -36c-24 0 -92 56 -134 129c-25 50 -57 139 -37 257c43 255 270 386 299 386c33 0 35 -26 33 -36c-3 -18 -11 -24 -32 -37c-141 -86 -199 -218 -215 -313c-18 -106 4 -233 109 -312c19 -14 25 -20 22 -38z" />
    <glyph glyph-name="parenright" unicode=")" horiz-adv-x="408" 
d="M378 306c-42 -255 -270 -386 -299 -386c-32 0 -35 26 -33 36c3 18 12 25 32 37c142 86 199 218 215 313c10 62 22 215 -116 318c-6 4 -18 13 -15 32c2 10 13 36 45 36c24 0 92 -56 134 -129c26 -50 57 -139 37 -257z" />
    <glyph glyph-name="percent" unicode="%" horiz-adv-x="875" 
d="M814 649c-1 -8 -3 -15 -16 -30l-558 -675c-11 -13 -22 -25 -43 -25c-24 0 -39 20 -35 43c1 8 4 15 16 30l560 678c15 18 31 22 40 22c25 0 40 -21 36 -43zM437 493c-18 -112 -103 -197 -184 -197c-80 0 -137 82 -118 198c19 113 103 198 184 198c80 0 138 -82 118 -199z
M841 117c-19 -113 -104 -198 -185 -198c-80 0 -137 82 -117 199c18 112 103 197 184 197c80 0 137 -82 118 -198zM769 118c11 68 -18 120 -59 120c-40 0 -88 -51 -99 -121c-12 -69 17 -121 58 -121c40 0 88 51 100 122zM365 494c12 69 -17 121 -58 121
c-40 0 -88 -51 -100 -122c-11 -68 18 -120 59 -120c40 0 88 51 99 121z" />
    <glyph glyph-name="period" unicode="." horiz-adv-x="292" 
d="M213 57c-6 -32 -35 -57 -67 -57s-53 25 -47 57c5 32 34 58 66 58s53 -26 48 -58z" />
    <glyph glyph-name="plus" unicode="+" horiz-adv-x="817" 
d="M808 306c-7 -41 -48 -43 -62 -43h-251l-42 -251c-3 -15 -11 -55 -52 -55s-37 40 -34 55l42 251h-251c-14 0 -55 2 -48 43s48 43 62 43h251l42 251c2 14 11 55 52 55s36 -41 34 -55l-42 -251h251c14 0 55 -2 48 -43z" />
    <glyph glyph-name="Q" unicode="Q" horiz-adv-x="817" 
d="M808 305c-9 -55 -48 -183 -215 -271l80 -108c8 -11 18 -28 17 -36c-4 -22 -24 -25 -44 -25c-23 0 -33 0 -47 20l-79 106l-8 12l-2 -1c-41 -10 -75 -13 -104 -13c-196 0 -325 144 -296 317c28 169 204 316 402 316c196 0 325 -144 296 -317zM723 306
c22 129 -75 239 -224 239c-146 0 -282 -108 -304 -240c-22 -129 75 -239 224 -239c0 0 21 0 45 3l-57 81c5 32 17 34 46 34c25 0 26 -2 38 -13c8 -11 20 -31 57 -77c90 40 160 121 175 212z" />
    <glyph glyph-name="q" unicode="q" horiz-adv-x="554" 
d="M536 -178c-6 -36 -35 -38 -53 -38h-172c-20 0 -48 2 -42 39c7 37 37 38 55 38h43l30 183c-43 -32 -90 -50 -140 -50c-117 0 -198 99 -178 224c22 127 143 224 264 224c59 0 94 -27 113 -46c5 23 11 46 51 46c41 0 37 -26 34 -49l-89 -532h44c19 0 47 -1 40 -39zM422 198
l6 36c10 60 -22 131 -95 131c-77 0 -156 -62 -171 -147c-13 -80 36 -147 112 -147c77 0 139 74 148 127z" />
    <glyph glyph-name="question" unicode="?" horiz-adv-x="496" 
d="M521 488c-6 -38 -31 -75 -78 -100c-55 -30 -109 -69 -121 -145l-3 -17c-7 -40 -20 -47 -56 -47c-46 0 -45 14 -37 59c9 56 28 131 179 213c8 5 29 18 32 37c5 29 -27 52 -109 52c-44 0 -74 -12 -91 -26c3 -7 5 -16 3 -26c-5 -33 -35 -53 -60 -53c-24 0 -50 17 -43 55
c10 61 77 127 204 127c170 0 188 -83 180 -129zM300 57c-6 -32 -35 -57 -67 -57s-53 25 -47 57c5 32 34 58 66 58s53 -26 48 -58z" />
    <glyph glyph-name="quotedbl" unicode="&#x22;" horiz-adv-x="432" 
d="M255 394c-3 -17 -21 -32 -37 -32h-24c-17 0 -28 15 -25 32l27 163c3 21 6 43 26 55c19 12 37 12 52 0c16 -12 11 -34 8 -55zM395 394c-3 -17 -21 -32 -37 -32h-24c-17 0 -28 15 -25 32l27 163c3 21 6 43 26 55c19 12 37 12 52 0c16 -12 11 -34 8 -55z" />
    <glyph glyph-name="quotesingle" unicode="'" horiz-adv-x="292" 
d="M255 394c-3 -17 -21 -32 -37 -32h-24c-17 0 -28 15 -25 32l27 163c3 21 6 43 26 55c19 12 37 12 52 0c16 -12 11 -34 8 -55z" />
    <glyph glyph-name="R" unicode="R" horiz-adv-x="758" 
d="M770 100c-9 -50 -63 -111 -138 -111c-43 0 -77 19 -93 48c-21 36 -16 63 -6 124c9 53 11 65 -20 85c-19 10 -61 21 -115 21h-130l-32 -190h44c19 0 48 -1 41 -39c-6 -37 -36 -38 -54 -38h-172c-18 0 -48 1 -42 38c7 38 36 39 55 39h44l76 457h-44c-18 0 -48 2 -42 38
c7 38 36 39 55 39h260c147 0 260 -77 244 -172c-8 -52 -54 -101 -123 -133c15 -10 27 -23 36 -39c15 -31 13 -47 4 -102c-9 -53 -17 -99 27 -99c17 0 34 12 40 36c10 37 33 37 48 37c12 0 43 -1 37 -39zM616 439c10 58 -82 95 -181 95h-123l-32 -190h123c99 0 204 37 213 95
z" />
    <glyph glyph-name="r" unicode="r" horiz-adv-x="408" 
d="M444 373c-5 -32 -32 -50 -58 -50c-14 0 -41 6 -41 40c-68 -14 -111 -94 -124 -172l-19 -114h67c20 0 48 -1 41 -39c-6 -37 -35 -38 -54 -38h-195c-18 0 -48 1 -42 38c7 38 36 39 55 39h44l47 282h-44c-18 0 -48 2 -42 38c7 38 36 39 55 39h81c38 0 43 -9 40 -40
c34 27 74 46 119 46c55 0 75 -38 70 -69z" />
    <glyph glyph-name="S" unicode="S" horiz-adv-x="583" 
d="M554 170c-14 -88 -107 -181 -242 -181c-44 0 -120 6 -171 42c-19 -34 -27 -42 -49 -42c-37 0 -33 29 -30 49l22 128c4 24 9 49 51 49c39 0 36 -23 34 -40c-4 -41 7 -63 36 -83c24 -15 70 -26 121 -26c83 0 139 51 147 100c6 38 -18 62 -18 62c-26 26 -40 29 -96 41l-40 9
c-87 19 -121 26 -156 64c-19 23 -40 60 -31 112c14 85 110 168 237 168c38 0 101 -7 145 -44c21 39 27 44 50 44c36 0 33 -29 30 -49l-22 -128c-4 -24 -9 -49 -51 -49c-35 0 -36 18 -35 39c-2 62 -35 110 -131 110c-76 0 -134 -42 -142 -87c-9 -56 52 -79 75 -84l139 -30
c88 -20 141 -92 127 -174z" />
    <glyph glyph-name="s" unicode="s" horiz-adv-x="414" 
d="M404 130c-10 -56 -60 -136 -196 -136c-35 0 -70 7 -97 28c-7 -12 -22 -28 -43 -28c-36 0 -33 29 -30 49l16 93c4 24 9 49 51 49c33 0 35 -17 36 -31c4 -38 14 -83 81 -83c12 0 95 0 105 59c6 35 -30 51 -58 58c-8 1 -49 8 -57 10c-37 8 -143 30 -127 124
c6 39 44 123 192 123c29 0 59 -4 82 -16c6 7 16 16 34 16c36 0 33 -29 30 -49l-11 -67c-4 -24 -9 -48 -51 -48c-38 0 -37 22 -36 39s1 48 -63 48s-96 -19 -100 -46c-6 -33 43 -42 111 -55c32 -6 149 -30 131 -137z" />
    <glyph glyph-name="semicolon" unicode=";" horiz-adv-x="292" 
d="M266 379c-5 -32 -34 -57 -66 -57s-53 25 -48 57c6 32 35 57 67 57s53 -25 47 -57zM210 24c-17 -99 -90 -159 -113 -159c-20 0 -36 20 -33 40c2 9 6 17 15 24c12 11 38 35 51 74c-38 13 -32 49 -31 54c5 31 32 58 66 58c58 0 49 -67 45 -91z" />
    <glyph glyph-name="seven" unicode="7" 
d="M578 572c-2 -16 -5 -19 -31 -39c-68 -57 -247 -224 -293 -496c-6 -35 -29 -48 -49 -48c-42 0 -36 38 -34 55c18 105 84 313 272 490h-228c-6 -28 -12 -45 -50 -45c-41 0 -38 25 -34 48l6 41c4 23 10 49 51 49c9 0 27 -1 34 -16h315c19 0 48 -1 41 -39z" />
    <glyph glyph-name="six" unicode="6" 
d="M507 196c-20 -121 -135 -207 -245 -207c-99 0 -202 72 -162 310c34 202 189 323 323 323c102 0 128 -58 120 -109c-6 -35 -33 -55 -62 -55c-31 0 -48 24 -43 52c2 13 7 21 11 27c-7 4 -19 8 -40 8c-77 0 -170 -69 -209 -187c46 31 94 44 140 44c111 0 186 -90 167 -206z
M422 196c11 67 -26 128 -100 128c-69 0 -130 -44 -140 -100c-1 -11 -5 -36 -2 -57c9 -56 36 -101 95 -101c66 0 134 52 147 130z" />
    <glyph glyph-name="slash" unicode="/" 
d="M577 649c-1 -7 -2 -9 -13 -27l-432 -670c-10 -16 -22 -33 -48 -33c-25 0 -39 21 -35 43c1 8 2 9 13 27l432 670c10 16 21 33 47 33c25 0 40 -21 36 -43z" />
    <glyph glyph-name="space" unicode=" " horiz-adv-x="350" 
 />
    <glyph glyph-name="T" unicode="T" horiz-adv-x="758" 
d="M800 492c-4 -24 -9 -49 -51 -49c-41 0 -38 26 -34 49l7 42h-212l-76 -457h81c19 0 49 -2 42 -39c-6 -36 -38 -38 -55 -38h-247c-19 0 -49 1 -42 39c6 36 38 38 55 38h81l76 457h-212l-7 -42c-4 -24 -9 -49 -51 -49c-41 0 -38 26 -34 49l12 70c6 40 17 49 57 49h582
c41 0 46 -12 40 -49z" />
    <glyph glyph-name="t" unicode="t" horiz-adv-x="408" 
d="M375 130c-14 -80 -82 -136 -152 -136c-49 0 -115 28 -98 134l39 231h-41c-19 0 -48 2 -42 38c7 38 36 39 56 39h40l12 71c4 24 9 49 51 49c41 0 37 -26 34 -49l-12 -71h99c19 0 48 -1 41 -39c-6 -36 -36 -38 -54 -38h-99l-38 -225c-3 -18 -10 -63 29 -63
c21 0 44 19 51 60c4 22 8 47 49 47c42 0 39 -25 35 -48z" />
    <glyph glyph-name="three" unicode="3" 
d="M513 178c-16 -95 -118 -189 -251 -189c-125 0 -213 61 -197 152c6 37 35 54 62 54c29 0 47 -23 42 -51c-3 -17 -8 -26 -14 -31c19 -39 85 -47 120 -47c83 0 143 56 153 112c8 52 -29 112 -119 112h-45c-19 0 -46 2 -40 39c5 33 20 37 85 41c33 2 56 3 89 27
c28 20 47 51 51 78c7 40 -34 70 -94 70c-8 0 -66 0 -100 -23c2 -6 4 -14 2 -25c-5 -32 -36 -52 -61 -52c-23 0 -49 16 -43 54c12 71 91 123 214 123c118 0 179 -70 166 -146c-8 -51 -41 -105 -96 -142c54 -32 87 -89 76 -156z" />
    <glyph glyph-name="two" unicode="2" 
d="M483 49c-6 -38 -17 -49 -56 -49h-329c-20 0 -49 1 -42 39c2 17 10 23 23 33l245 180c71 52 126 106 137 172c13 80 -51 121 -125 121c-48 0 -93 -25 -115 -64c7 -8 9 -21 7 -33c-6 -33 -36 -53 -60 -53c-20 0 -51 13 -44 56c15 86 109 171 229 171
c124 0 213 -77 193 -198c-14 -81 -70 -145 -143 -201c-44 -35 -133 -98 -199 -146h199c6 28 12 45 50 45c41 0 38 -25 34 -48z" />
    <glyph glyph-name="U" unicode="U" horiz-adv-x="758" 
d="M805 572c-6 -36 -35 -38 -53 -38h-44l-54 -325c-21 -125 -146 -220 -278 -220c-128 0 -224 93 -203 220l54 325h-44c-18 0 -47 2 -41 38c7 38 35 39 54 39h172c20 0 48 -1 41 -39c-6 -36 -35 -38 -54 -38h-43l-53 -319c-17 -103 61 -149 131 -149c66 0 162 44 180 149
l53 319h-43c-19 0 -48 2 -42 38c7 38 35 39 55 39h172c19 0 47 -1 40 -39z" />
    <glyph glyph-name="u" unicode="u" horiz-adv-x="583" 
d="M572 38c-6 -37 -35 -38 -54 -38h-80c-20 0 -41 0 -41 27c-30 -17 -74 -33 -132 -33c-57 0 -157 11 -138 126l40 239h-43c-19 0 -48 2 -42 38c7 38 35 39 55 39h80c41 0 46 -12 40 -48l-44 -262c-4 -26 -8 -55 71 -55c30 0 119 6 133 90l33 198h-44c-19 0 -47 2 -41 39
c7 37 36 38 54 38h81c40 0 46 -12 40 -48l-52 -311h43c20 0 48 -1 41 -39z" />
    <glyph glyph-name="underscore" unicode="_" horiz-adv-x="758" 
d="M730 -155h-754l14 85h754z" />
    <glyph glyph-name="V" unicode="V" horiz-adv-x="758" 
d="M823 572c-6 -36 -36 -38 -54 -38h-34l-281 -502c-20 -38 -40 -40 -67 -40h-19c-42 0 -48 13 -54 41l-114 501h-34c-20 0 -48 1 -41 39c6 37 36 38 54 38h149c20 0 49 -1 42 -39c-6 -36 -36 -38 -55 -38h-25l103 -452l252 452h-25c-19 0 -49 2 -43 38c7 38 36 39 56 39
h149c20 0 48 -1 41 -39z" />
    <glyph glyph-name="v" unicode="v" horiz-adv-x="554" 
d="M595 397c-6 -36 -36 -38 -54 -38h-33l-163 -324c-20 -38 -44 -39 -69 -39c-28 0 -49 1 -56 40l-55 323h-33c-18 0 -48 2 -42 38c7 38 36 39 55 39h136c19 0 49 -1 42 -39c-6 -36 -37 -38 -55 -38h-28l50 -282l143 282h-28c-19 0 -49 2 -43 39c7 37 38 38 56 38h136
c19 0 48 -1 41 -39z" />
    <glyph glyph-name="W" unicode="W" horiz-adv-x="1050" 
d="M1114 572c-6 -36 -36 -38 -54 -38h-27l-234 -503c-18 -38 -42 -39 -67 -39c-42 0 -50 8 -54 43l-67 489l-228 -490c-19 -40 -36 -42 -68 -42c-19 0 -44 1 -53 27l-68 515h-27c-18 0 -48 2 -41 39c6 36 36 38 54 38h131c18 0 49 -1 42 -39c-6 -36 -37 -38 -55 -38h-29
l61 -453l229 491c18 38 37 39 68 39c25 0 49 -1 54 -39l66 -491l211 453h-29c-17 0 -49 2 -43 38c7 38 36 39 56 39h131c18 0 48 -1 41 -39z" />
    <glyph glyph-name="w" unicode="w" horiz-adv-x="758" 
d="M799 397c-6 -36 -37 -38 -55 -38h-25l-143 -323c-17 -39 -38 -40 -66 -40c-48 0 -50 12 -54 54l-21 273l-128 -303c-15 -22 -37 -24 -60 -24c-31 0 -51 1 -55 41l-34 322h-25c-18 0 -49 2 -43 39c7 37 38 38 56 38h131c18 0 49 -1 42 -39c-6 -36 -37 -38 -55 -38h-31
l29 -266l132 302c13 29 25 41 60 41c40 0 42 -20 45 -40l32 -296l113 259h-31c-18 0 -49 2 -43 39c7 37 38 38 56 38h131c18 0 49 -1 42 -39z" />
    <glyph glyph-name="X" unicode="X" horiz-adv-x="758" 
d="M718 38c-6 -36 -37 -38 -54 -38h-153c-18 0 -48 1 -42 38c7 38 36 39 55 39h3l-113 182l-163 -182h5c19 0 49 -2 42 -39c-6 -36 -37 -38 -55 -38h-152c-17 0 -48 2 -42 38c7 37 37 39 55 39h44l228 246l-136 211h-43c-19 0 -49 2 -42 39c6 36 37 38 55 38h151
c20 0 49 -1 42 -39c-6 -36 -36 -38 -55 -38l89 -140l127 140h-4c-18 0 -48 2 -41 39c6 36 36 38 54 38h152c18 0 48 -1 41 -39c-6 -36 -36 -38 -54 -38h-43l-195 -210l158 -247h45c18 0 48 -2 41 -39z" />
    <glyph glyph-name="x" unicode="x" horiz-adv-x="554" 
d="M532 38c-6 -36 -37 -38 -55 -38h-136c-19 0 -48 1 -41 39c6 36 36 38 54 38h5l-57 98l-85 -98h7c19 0 48 -1 41 -39c-6 -37 -36 -38 -54 -38h-136c-18 0 -49 2 -43 38c7 37 37 39 56 39h44l141 148l-87 134h-44c-20 0 -49 2 -43 39c7 37 38 38 56 38h136
c19 0 47 -1 40 -39c-6 -36 -35 -38 -53 -38h-3l47 -74l67 74h-3c-19 0 -49 2 -43 39c7 37 37 38 56 38h136c19 0 47 -1 40 -39c-6 -36 -35 -38 -53 -38h-45l-127 -134l96 -148h44c18 0 49 -2 42 -39z" />
    <glyph glyph-name="Y" unicode="Y" horiz-adv-x="758" 
d="M821 572c-6 -36 -37 -38 -55 -38h-42l-262 -291l-28 -166h43c20 0 48 -1 41 -39c-6 -37 -35 -38 -54 -38h-171c-19 0 -48 1 -42 38c7 38 35 39 55 39h43l28 166l-166 291h-42c-18 0 -49 2 -42 39c6 36 37 38 55 38h151c18 0 49 -1 42 -39c-6 -36 -36 -38 -55 -38h-5
l118 -206l187 206h-5c-18 0 -49 2 -42 39c6 36 36 38 55 38h151c18 0 49 -1 42 -39z" />
    <glyph glyph-name="y" unicode="y" horiz-adv-x="554" 
d="M594 397c-6 -36 -35 -38 -53 -38h-33l-221 -434c-32 -63 -108 -146 -202 -146c-61 0 -96 42 -88 88c5 30 27 51 59 51c27 0 48 -18 43 -51l-3 -12c66 0 98 46 118 77l40 77l-85 350h-34c-18 0 -49 2 -43 39c7 37 38 38 56 38h136c19 0 47 -1 40 -39
c-6 -36 -35 -38 -53 -38h-24l58 -257l127 257h-28c-18 0 -48 2 -42 38c7 38 35 39 55 39h137c19 0 47 -1 40 -39z" />
    <glyph glyph-name="Z" unicode="Z" horiz-adv-x="642" 
d="M598 49c-6 -38 -16 -49 -55 -49h-438c-22 0 -48 1 -41 42c3 18 5 22 20 36l467 456h-306l-7 -42c-4 -24 -9 -49 -51 -49c-41 0 -38 26 -34 49l12 70c6 40 18 49 57 49h416c23 0 48 -1 41 -42c-3 -18 -5 -22 -20 -36l-467 -456h327l10 61c4 24 8 49 50 49
c41 0 38 -26 34 -49z" />
    <glyph glyph-name="z" unicode="z" horiz-adv-x="467" 
d="M433 49c-6 -38 -16 -49 -55 -49h-304c-24 0 -48 1 -41 43c1 5 4 17 8 24l317 292h-173l-3 -16c-4 -24 -9 -49 -51 -49c-41 0 -38 26 -34 49l8 45c6 39 18 48 57 48h285c24 0 48 -1 41 -43c-1 -5 -4 -17 -8 -24l-317 -292h191l5 28c4 24 8 48 50 48c41 0 37 -25 34 -48z
" />
    <glyph glyph-name="zero" unicode="0" 
d="M528 305c-11 -66 -55 -316 -268 -316s-173 250 -162 317c11 66 55 316 268 316s173 -250 162 -317zM445 315c8 51 38 230 -92 230s-160 -179 -168 -230c-9 -50 -42 -249 88 -249s163 199 172 249z" />
    <glyph glyph-name="Aacute" unicode="&#xc1;" horiz-adv-x="758" 
d="M721 38c-6 -37 -35 -38 -54 -38h-154c-18 0 -49 1 -42 39c6 36 37 38 55 38h26l-17 90h-257l-47 -90h26c18 0 49 -2 42 -39c-6 -36 -37 -38 -55 -38h-154c-20 0 -48 1 -41 39c6 36 35 38 54 38h38l267 508c19 37 44 38 65 38h19c23 0 46 -1 52 -39l98 -507h38
c20 0 48 -1 41 -39zM520 244l-54 282l-147 -282h201zM618 758c-2 -13 -9 -29 -40 -42l-138 -57c-8 -3 -14 -6 -22 -6c-31 0 -35 38 -33 48c3 22 18 29 36 36l138 58c14 6 23 6 23 6c24 0 40 -18 36 -43z" />
    <glyph glyph-name="aacute" unicode="&#xe1;" horiz-adv-x="510" 
d="M513 39c-7 -37 -31 -39 -63 -39c-41 0 -81 4 -99 28c-31 -17 -81 -34 -142 -34c-100 0 -153 67 -141 139c15 90 131 149 308 153c5 58 -35 82 -97 82c-20 0 -44 -3 -44 -3c-8 -42 -41 -53 -60 -53c-28 0 -50 18 -44 53c13 77 116 80 160 80c141 0 182 -85 170 -159
l-34 -204c6 -3 17 -5 45 -5c18 0 47 -2 41 -38zM350 139l12 72c-140 -5 -204 -38 -211 -78c-5 -33 25 -62 77 -62c7 0 46 0 80 15c36 15 39 34 42 53zM465 582c-2 -13 -9 -29 -40 -42l-139 -57c-7 -3 -14 -6 -22 -6c-31 0 -34 38 -33 48c4 22 18 29 36 36l139 58
c14 6 23 6 23 6c24 0 40 -18 36 -43z" />
    <glyph glyph-name="Abreve" unicode="&#x102;" horiz-adv-x="758" 
d="M721 38c-6 -37 -35 -38 -54 -38h-154c-18 0 -49 1 -42 39c6 36 37 38 55 38h26l-17 90h-257l-47 -90h26c18 0 49 -2 42 -39c-6 -36 -37 -38 -55 -38h-154c-20 0 -48 1 -41 39c6 36 35 38 54 38h38l267 508c19 37 44 38 65 38h19c23 0 46 -1 52 -39l98 -507h38
c20 0 48 -1 41 -39zM520 244l-54 282l-147 -282h201zM683 741c-14 -84 -126 -88 -194 -88s-180 4 -166 88c4 24 22 39 46 39c30 0 32 -20 32 -35c2 -12 63 -12 101 -12c37 0 99 0 105 12c6 15 14 35 44 35c25 0 36 -15 32 -39z" />
    <glyph glyph-name="abreve" unicode="&#x103;" horiz-adv-x="510" 
d="M513 39c-7 -37 -31 -39 -63 -39c-41 0 -81 4 -99 28c-31 -17 -81 -34 -142 -34c-100 0 -153 67 -141 139c15 90 131 149 308 153c5 58 -35 82 -97 82c-20 0 -44 -3 -44 -3c-8 -42 -41 -53 -60 -53c-28 0 -50 18 -44 53c13 77 116 80 160 80c141 0 182 -85 170 -159
l-34 -204c6 -3 17 -5 45 -5c18 0 47 -2 41 -38zM350 139l12 72c-140 -5 -204 -38 -211 -78c-5 -33 25 -62 77 -62c7 0 46 0 80 15c36 15 39 34 42 53zM532 576c-14 -84 -127 -88 -195 -88s-179 4 -165 88c4 24 21 39 45 39c30 0 32 -20 32 -35c2 -12 63 -12 101 -12
c37 0 99 0 105 12c6 15 14 35 44 35c25 0 37 -15 33 -39z" />
    <glyph glyph-name="Abreveacute" unicode="&#x1eae;" horiz-adv-x="758" 
d="M721 38c-6 -37 -35 -38 -54 -38h-154c-18 0 -49 1 -42 39c6 36 37 38 55 38h26l-17 90h-257l-47 -90h26c18 0 49 -2 42 -39c-6 -36 -37 -38 -55 -38h-154c-20 0 -48 1 -41 39c6 36 35 38 54 38h38l267 508c19 37 44 38 65 38h19c23 0 46 -1 52 -39l98 -507h38
c20 0 48 -1 41 -39zM520 244l-54 282l-147 -282h201zM683 741c-14 -84 -126 -88 -194 -88s-180 4 -166 88c4 24 22 39 46 39c30 0 32 -20 32 -35c2 -12 63 -12 101 -12c37 0 99 0 105 12c6 15 14 35 44 35c25 0 36 -15 32 -39zM643 905c-2 -13 -9 -29 -40 -42l-139 -57
c-7 -3 -14 -6 -22 -6c-31 0 -34 38 -33 48c4 22 18 29 36 36l139 58c14 6 23 6 23 6c24 0 40 -18 36 -43z" />
    <glyph glyph-name="abreveacute" unicode="&#x1eaf;" horiz-adv-x="510" 
d="M513 39c-7 -37 -31 -39 -63 -39c-41 0 -81 4 -99 28c-31 -17 -81 -34 -142 -34c-100 0 -153 67 -141 139c15 90 131 149 308 153c5 58 -35 82 -97 82c-20 0 -44 -3 -44 -3c-8 -42 -41 -53 -60 -53c-28 0 -50 18 -44 53c13 77 116 80 160 80c141 0 182 -85 170 -159
l-34 -204c6 -3 17 -5 45 -5c18 0 47 -2 41 -38zM350 139l12 72c-140 -5 -204 -38 -211 -78c-5 -33 25 -62 77 -62c7 0 46 0 80 15c36 15 39 34 42 53zM532 576c-14 -84 -127 -88 -195 -88s-179 4 -165 88c4 24 21 39 45 39c30 0 32 -20 32 -35c2 -12 63 -12 101 -12
c37 0 99 0 105 12c6 15 14 35 44 35c25 0 37 -15 33 -39zM491 740c-2 -13 -9 -29 -40 -42l-138 -57c-8 -3 -14 -6 -22 -6c-31 0 -35 38 -33 48c3 22 17 29 36 36l138 58c14 6 23 6 23 6c24 0 40 -18 36 -43z" />
    <glyph glyph-name="Abrevedotbelow" unicode="&#x1eb6;" horiz-adv-x="758" 
d="M721 38c-6 -37 -35 -38 -54 -38h-154c-18 0 -49 1 -42 39c6 36 37 38 55 38h26l-17 90h-257l-47 -90h26c18 0 49 -2 42 -39c-6 -36 -37 -38 -55 -38h-154c-20 0 -48 1 -41 39c6 36 35 38 54 38h38l267 508c19 37 44 38 65 38h19c23 0 46 -1 52 -39l98 -507h38
c20 0 48 -1 41 -39zM520 244l-54 282l-147 -282h201zM683 741c-14 -84 -126 -88 -194 -88s-180 4 -166 88c4 24 22 39 46 39c30 0 32 -20 32 -35c2 -12 63 -12 101 -12c37 0 99 0 105 12c6 15 14 35 44 35c25 0 36 -15 32 -39zM413 -137c-5 -29 -32 -57 -67 -57
c-31 0 -53 26 -48 57c5 29 33 57 68 57c31 0 52 -26 47 -57z" />
    <glyph glyph-name="abrevedotbelow" unicode="&#x1eb7;" horiz-adv-x="510" 
d="M513 39c-7 -37 -31 -39 -63 -39c-41 0 -81 4 -99 28c-31 -17 -81 -34 -142 -34c-100 0 -153 67 -141 139c15 90 131 149 308 153c5 58 -35 82 -97 82c-20 0 -44 -3 -44 -3c-8 -42 -41 -53 -60 -53c-28 0 -50 18 -44 53c13 77 116 80 160 80c141 0 182 -85 170 -159
l-34 -204c6 -3 17 -5 45 -5c18 0 47 -2 41 -38zM350 139l12 72c-140 -5 -204 -38 -211 -78c-5 -33 25 -62 77 -62c7 0 46 0 80 15c36 15 39 34 42 53zM532 576c-14 -84 -127 -88 -195 -88s-179 4 -165 88c4 24 21 39 45 39c30 0 32 -20 32 -35c2 -12 63 -12 101 -12
c37 0 99 0 105 12c6 15 14 35 44 35c25 0 37 -15 33 -39zM289 -137c-5 -29 -32 -57 -67 -57c-31 0 -53 26 -48 57c5 29 33 57 68 57c31 0 52 -26 47 -57z" />
    <glyph glyph-name="Abrevegrave" unicode="&#x1eb0;" horiz-adv-x="758" 
d="M721 38c-6 -37 -35 -38 -54 -38h-154c-18 0 -49 1 -42 39c6 36 37 38 55 38h26l-17 90h-257l-47 -90h26c18 0 49 -2 42 -39c-6 -36 -37 -38 -55 -38h-154c-20 0 -48 1 -41 39c6 36 35 38 54 38h38l267 508c19 37 44 38 65 38h19c23 0 46 -1 52 -39l98 -507h38
c20 0 48 -1 41 -39zM520 244l-54 282l-147 -282h201zM683 741c-14 -84 -126 -88 -194 -88s-180 4 -166 88c4 24 22 39 46 39c30 0 32 -20 32 -35c2 -12 63 -12 101 -12c37 0 99 0 105 12c6 15 14 35 44 35c25 0 36 -15 32 -39zM633 848c4 22 -8 29 -24 36l-119 58
c-12 6 -21 6 -21 6c-24 0 -46 -18 -50 -43c-2 -13 -1 -29 26 -42l119 -57c7 -3 12 -6 20 -6c31 0 48 38 49 48z" />
    <glyph glyph-name="abrevegrave" unicode="&#x1eb1;" horiz-adv-x="510" 
d="M513 39c-7 -37 -31 -39 -63 -39c-41 0 -81 4 -99 28c-31 -17 -81 -34 -142 -34c-100 0 -153 67 -141 139c15 90 131 149 308 153c5 58 -35 82 -97 82c-20 0 -44 -3 -44 -3c-8 -42 -41 -53 -60 -53c-28 0 -50 18 -44 53c13 77 116 80 160 80c141 0 182 -85 170 -159
l-34 -204c6 -3 17 -5 45 -5c18 0 47 -2 41 -38zM350 139l12 72c-140 -5 -204 -38 -211 -78c-5 -33 25 -62 77 -62c7 0 46 0 80 15c36 15 39 34 42 53zM532 576c-14 -84 -127 -88 -195 -88s-179 4 -165 88c4 24 21 39 45 39c30 0 32 -20 32 -35c2 -12 63 -12 101 -12
c37 0 99 0 105 12c6 15 14 35 44 35c25 0 37 -15 33 -39zM482 683c3 22 -9 29 -24 36l-120 58c-12 6 -21 6 -21 6c-24 0 -46 -18 -50 -43c-2 -13 -1 -29 26 -42l120 -57c6 -3 12 -6 20 -6c31 0 47 38 49 48z" />
    <glyph glyph-name="Abrevehookabove" unicode="&#x1eb2;" horiz-adv-x="758" 
d="M721 38c-6 -37 -35 -38 -54 -38h-154c-18 0 -49 1 -42 39c6 36 37 38 55 38h26l-17 90h-257l-47 -90h26c18 0 49 -2 42 -39c-6 -36 -37 -38 -55 -38h-154c-20 0 -48 1 -41 39c6 36 35 38 54 38h38l267 508c19 37 44 38 65 38h19c23 0 46 -1 52 -39l98 -507h38
c20 0 48 -1 41 -39zM520 244l-54 282l-147 -282h201zM683 741c-14 -84 -126 -88 -194 -88s-180 4 -166 88c4 24 22 39 46 39c30 0 32 -20 32 -35c2 -12 63 -12 101 -12c37 0 99 0 105 12c6 15 14 35 44 35c25 0 36 -15 32 -39zM645 934c-6 -28 -27 -51 -64 -70
c-20 -10 -31 -20 -33 -31l-3 -17c-3 -20 -21 -36 -42 -36c-19 0 -33 16 -30 36l3 17c8 47 48 79 97 103c-4 9 -19 13 -42 13c-14 0 -25 -5 -29 -11c-4 -28 -26 -41 -44 -41c-24 0 -33 19 -30 37c9 55 65 87 118 87c65 0 108 -33 99 -87z" />
    <glyph glyph-name="abrevehookabove" unicode="&#x1eb3;" horiz-adv-x="510" 
d="M513 39c-7 -37 -31 -39 -63 -39c-41 0 -81 4 -99 28c-31 -17 -81 -34 -142 -34c-100 0 -153 67 -141 139c15 90 131 149 308 153c5 58 -35 82 -97 82c-20 0 -44 -3 -44 -3c-8 -42 -41 -53 -60 -53c-28 0 -50 18 -44 53c13 77 116 80 160 80c141 0 182 -85 170 -159
l-34 -204c6 -3 17 -5 45 -5c18 0 47 -2 41 -38zM350 139l12 72c-140 -5 -204 -38 -211 -78c-5 -33 25 -62 77 -62c7 0 46 0 80 15c36 15 39 34 42 53zM532 576c-14 -84 -127 -88 -195 -88s-179 4 -165 88c4 24 21 39 45 39c30 0 32 -20 32 -35c2 -12 63 -12 101 -12
c37 0 99 0 105 12c6 15 14 35 44 35c25 0 37 -15 33 -39zM493 769c-6 -28 -27 -51 -64 -70c-19 -10 -31 -20 -33 -31l-3 -17c-3 -20 -21 -36 -42 -36c-19 0 -33 16 -30 36l3 17c8 47 48 79 97 103c-3 9 -19 13 -42 13c-14 0 -24 -5 -28 -11c-5 -28 -26 -41 -44 -41
c-24 0 -34 19 -31 37c9 55 65 87 118 87c65 0 108 -33 99 -87z" />
    <glyph glyph-name="Abrevetilde" unicode="&#x1eb4;" horiz-adv-x="758" 
d="M721 38c-6 -37 -35 -38 -54 -38h-154c-18 0 -49 1 -42 39c6 36 37 38 55 38h26l-17 90h-257l-47 -90h26c18 0 49 -2 42 -39c-6 -36 -37 -38 -55 -38h-154c-20 0 -48 1 -41 39c6 36 35 38 54 38h38l267 508c19 37 44 38 65 38h19c23 0 46 -1 52 -39l98 -507h38
c20 0 48 -1 41 -39zM520 244l-54 282l-147 -282h201zM683 741c-14 -84 -126 -88 -194 -88s-180 4 -166 88c4 24 22 39 46 39c30 0 32 -20 32 -35c2 -12 63 -12 101 -12c37 0 99 0 105 12c6 15 14 35 44 35c25 0 36 -15 32 -39zM711 914c-3 -19 -37 -44 -61 -60
c-27 -18 -58 -34 -86 -34c-36 0 -55 22 -66 36c-9 9 -16 18 -21 18c-12 0 -38 -16 -69 -41c-9 -7 -18 -13 -31 -13c-20 0 -36 20 -33 40c3 19 38 44 61 60c27 18 59 34 87 34c36 0 54 -21 66 -35c8 -10 16 -18 21 -18c12 0 38 15 69 40c9 8 18 13 31 13c20 0 36 -20 32 -40z
" />
    <glyph glyph-name="abrevetilde" unicode="&#x1eb5;" horiz-adv-x="510" 
d="M513 39c-7 -37 -31 -39 -63 -39c-41 0 -81 4 -99 28c-31 -17 -81 -34 -142 -34c-100 0 -153 67 -141 139c15 90 131 149 308 153c5 58 -35 82 -97 82c-20 0 -44 -3 -44 -3c-8 -42 -41 -53 -60 -53c-28 0 -50 18 -44 53c13 77 116 80 160 80c141 0 182 -85 170 -159
l-34 -204c6 -3 17 -5 45 -5c18 0 47 -2 41 -38zM350 139l12 72c-140 -5 -204 -38 -211 -78c-5 -33 25 -62 77 -62c7 0 46 0 80 15c36 15 39 34 42 53zM532 576c-14 -84 -127 -88 -195 -88s-179 4 -165 88c4 24 21 39 45 39c30 0 32 -20 32 -35c2 -12 63 -12 101 -12
c37 0 99 0 105 12c6 15 14 35 44 35c25 0 37 -15 33 -39zM560 749c-4 -19 -38 -44 -61 -60c-27 -18 -59 -34 -87 -34c-36 0 -54 22 -66 36c-9 9 -16 18 -21 18c-12 0 -38 -16 -69 -41c-9 -7 -18 -13 -31 -13c-20 0 -36 20 -32 40c3 19 37 44 61 60c27 18 58 34 86 34
c36 0 55 -21 66 -35c9 -10 16 -18 21 -18c12 0 38 15 69 40c9 8 18 13 31 13c20 0 36 -20 33 -40z" />
    <glyph glyph-name="Acaron" unicode="&#x1cd;" horiz-adv-x="758" 
d="M721 38c-6 -37 -35 -38 -54 -38h-154c-18 0 -49 1 -42 39c6 36 37 38 55 38h26l-17 90h-257l-47 -90h26c18 0 49 -2 42 -39c-6 -36 -37 -38 -55 -38h-154c-20 0 -48 1 -41 39c6 36 35 38 54 38h38l267 508c19 37 44 38 65 38h19c23 0 46 -1 52 -39l98 -507h38
c20 0 48 -1 41 -39zM520 244l-54 282l-147 -282h201zM652 722c-2 -14 -12 -28 -32 -35l-121 -42c-8 -2 -17 -2 -25 0l-107 42c-16 6 -21 20 -19 34c3 19 21 39 43 39c4 0 8 0 12 -2l98 -31l108 31c6 2 10 2 14 2c21 0 32 -20 29 -38z" />
    <glyph glyph-name="acaron" unicode="&#x1ce;" horiz-adv-x="510" 
d="M513 39c-7 -37 -31 -39 -63 -39c-41 0 -81 4 -99 28c-31 -17 -81 -34 -142 -34c-100 0 -153 67 -141 139c15 90 131 149 308 153c5 58 -35 82 -97 82c-20 0 -44 -3 -44 -3c-8 -42 -41 -53 -60 -53c-28 0 -50 18 -44 53c13 77 116 80 160 80c141 0 182 -85 170 -159
l-34 -204c6 -3 17 -5 45 -5c18 0 47 -2 41 -38zM350 139l12 72c-140 -5 -204 -38 -211 -78c-5 -33 25 -62 77 -62c7 0 46 0 80 15c36 15 39 34 42 53zM506 586c-1 -11 -8 -23 -23 -31l-127 -72c-12 -7 -30 -7 -40 0l-103 72c-11 8 -14 20 -13 31c4 20 25 39 46 39
c6 0 12 -2 17 -6l86 -58l106 58c7 4 13 6 19 6c21 0 36 -19 32 -39z" />
    <glyph glyph-name="Acircumflex" unicode="&#xc2;" horiz-adv-x="758" 
d="M721 38c-6 -37 -35 -38 -54 -38h-154c-18 0 -49 1 -42 39c6 36 37 38 55 38h26l-17 90h-257l-47 -90h26c18 0 49 -2 42 -39c-6 -36 -37 -38 -55 -38h-154c-20 0 -48 1 -41 39c6 36 35 38 54 38h38l267 508c19 37 44 38 65 38h19c23 0 46 -1 52 -39l98 -507h38
c20 0 48 -1 41 -39zM520 244l-54 282l-147 -282h201zM646 682c-4 -19 -21 -39 -43 -39c-4 0 -8 0 -13 2l-97 31l-109 -31c-5 -2 -9 -2 -13 -2c-21 0 -33 20 -30 38c3 14 13 28 32 35l121 42c9 2 18 2 25 0l107 -42c16 -6 22 -20 20 -34z" />
    <glyph glyph-name="acircumflex" unicode="&#xe2;" horiz-adv-x="510" 
d="M513 39c-7 -37 -31 -39 -63 -39c-41 0 -81 4 -99 28c-31 -17 -81 -34 -142 -34c-100 0 -153 67 -141 139c15 90 131 149 308 153c5 58 -35 82 -97 82c-20 0 -44 -3 -44 -3c-8 -42 -41 -53 -60 -53c-28 0 -50 18 -44 53c13 77 116 80 160 80c141 0 182 -85 170 -159
l-34 -204c6 -3 17 -5 45 -5c18 0 47 -2 41 -38zM350 139l12 72c-140 -5 -204 -38 -211 -78c-5 -33 25 -62 77 -62c7 0 46 0 80 15c36 15 39 34 42 53zM495 516c-4 -20 -25 -39 -46 -39c-6 0 -11 2 -17 6l-86 58l-106 -58c-6 -4 -13 -6 -19 -6c-21 0 -36 19 -32 39
c2 11 9 23 23 31l127 72c12 7 30 7 40 0l103 -72c12 -8 15 -20 13 -31z" />
    <glyph glyph-name="Acircumflexacute" unicode="&#x1ea4;" horiz-adv-x="758" 
d="M721 38c-6 -37 -35 -38 -54 -38h-154c-18 0 -49 1 -42 39c6 36 37 38 55 38h26l-17 90h-257l-47 -90h26c18 0 49 -2 42 -39c-6 -36 -37 -38 -55 -38h-154c-20 0 -48 1 -41 39c6 36 35 38 54 38h38l267 508c19 37 44 38 65 38h19c23 0 46 -1 52 -39l98 -507h38
c20 0 48 -1 41 -39zM520 244l-54 282l-147 -282h201zM646 682c-4 -19 -21 -39 -43 -39c-4 0 -8 0 -13 2l-97 31l-109 -31c-5 -2 -9 -2 -13 -2c-21 0 -33 20 -30 38c3 14 13 28 32 35l121 42c9 2 18 2 25 0l107 -42c16 -6 22 -20 20 -34zM639 884c-2 -13 -9 -29 -40 -42
l-138 -57c-8 -3 -14 -6 -22 -6c-31 0 -35 38 -33 48c3 22 18 29 36 36l138 58c14 6 23 6 23 6c24 0 40 -18 36 -43z" />
    <glyph glyph-name="acircumflexacute" unicode="&#x1ea5;" horiz-adv-x="510" 
d="M513 39c-7 -37 -31 -39 -63 -39c-41 0 -81 4 -99 28c-31 -17 -81 -34 -142 -34c-100 0 -153 67 -141 139c15 90 131 149 308 153c5 58 -35 82 -97 82c-20 0 -44 -3 -44 -3c-8 -42 -41 -53 -60 -53c-28 0 -50 18 -44 53c13 77 116 80 160 80c141 0 182 -85 170 -159
l-34 -204c6 -3 17 -5 45 -5c18 0 47 -2 41 -38zM350 139l12 72c-140 -5 -204 -38 -211 -78c-5 -33 25 -62 77 -62c7 0 46 0 80 15c36 15 39 34 42 53zM494 517c-3 -19 -21 -39 -43 -39c-4 0 -8 0 -12 2l-98 31l-108 -31c-6 -2 -10 -2 -14 -2c-21 0 -32 20 -29 38
c2 14 12 28 32 35l121 42c8 2 17 2 25 0l107 -42c16 -6 21 -20 19 -34zM488 719c-3 -13 -9 -29 -40 -42l-139 -57c-7 -3 -14 -6 -22 -6c-31 0 -35 38 -33 48c4 22 18 29 36 36l139 58c14 6 23 6 23 6c24 0 40 -18 36 -43z" />
    <glyph glyph-name="Acircumflexdotbelow" unicode="&#x1eac;" horiz-adv-x="758" 
d="M721 38c-6 -37 -35 -38 -54 -38h-154c-18 0 -49 1 -42 39c6 36 37 38 55 38h26l-17 90h-257l-47 -90h26c18 0 49 -2 42 -39c-6 -36 -37 -38 -55 -38h-154c-20 0 -48 1 -41 39c6 36 35 38 54 38h38l267 508c19 37 44 38 65 38h19c23 0 46 -1 52 -39l98 -507h38
c20 0 48 -1 41 -39zM520 244l-54 282l-147 -282h201zM646 682c-4 -19 -21 -39 -43 -39c-4 0 -8 0 -13 2l-97 31l-109 -31c-5 -2 -9 -2 -13 -2c-21 0 -33 20 -30 38c3 14 13 28 32 35l121 42c9 2 18 2 25 0l107 -42c16 -6 22 -20 20 -34zM413 -137c-5 -29 -32 -57 -67 -57
c-31 0 -53 26 -48 57c5 29 33 57 68 57c31 0 52 -26 47 -57z" />
    <glyph glyph-name="acircumflexdotbelow" unicode="&#x1ead;" horiz-adv-x="510" 
d="M513 39c-7 -37 -31 -39 -63 -39c-41 0 -81 4 -99 28c-31 -17 -81 -34 -142 -34c-100 0 -153 67 -141 139c15 90 131 149 308 153c5 58 -35 82 -97 82c-20 0 -44 -3 -44 -3c-8 -42 -41 -53 -60 -53c-28 0 -50 18 -44 53c13 77 116 80 160 80c141 0 182 -85 170 -159
l-34 -204c6 -3 17 -5 45 -5c18 0 47 -2 41 -38zM350 139l12 72c-140 -5 -204 -38 -211 -78c-5 -33 25 -62 77 -62c7 0 46 0 80 15c36 15 39 34 42 53zM495 516c-4 -20 -25 -39 -46 -39c-6 0 -11 2 -17 6l-86 58l-106 -58c-6 -4 -13 -6 -19 -6c-21 0 -36 19 -32 39
c2 11 9 23 23 31l127 72c12 7 30 7 40 0l103 -72c12 -8 15 -20 13 -31zM289 -137c-5 -29 -32 -57 -67 -57c-31 0 -53 26 -48 57c5 29 33 57 68 57c31 0 52 -26 47 -57z" />
    <glyph glyph-name="Acircumflexgrave" unicode="&#x1ea6;" horiz-adv-x="758" 
d="M721 38c-6 -37 -35 -38 -54 -38h-154c-18 0 -49 1 -42 39c6 36 37 38 55 38h26l-17 90h-257l-47 -90h26c18 0 49 -2 42 -39c-6 -36 -37 -38 -55 -38h-154c-20 0 -48 1 -41 39c6 36 35 38 54 38h38l267 508c19 37 44 38 65 38h19c23 0 46 -1 52 -39l98 -507h38
c20 0 48 -1 41 -39zM520 244l-54 282l-147 -282h201zM646 682c-4 -19 -21 -39 -43 -39c-4 0 -8 0 -13 2l-97 31l-109 -31c-5 -2 -9 -2 -13 -2c-21 0 -33 20 -30 38c3 14 13 28 32 35l121 42c9 2 18 2 25 0l107 -42c16 -6 22 -20 20 -34zM630 827c3 22 -8 29 -24 36l-120 58
c-12 6 -21 6 -21 6c-24 0 -46 -18 -50 -43c-2 -13 -1 -29 26 -42l120 -57c6 -3 12 -6 20 -6c31 0 47 38 49 48z" />
    <glyph glyph-name="acircumflexgrave" unicode="&#x1ea7;" horiz-adv-x="510" 
d="M513 39c-7 -37 -31 -39 -63 -39c-41 0 -81 4 -99 28c-31 -17 -81 -34 -142 -34c-100 0 -153 67 -141 139c15 90 131 149 308 153c5 58 -35 82 -97 82c-20 0 -44 -3 -44 -3c-8 -42 -41 -53 -60 -53c-28 0 -50 18 -44 53c13 77 116 80 160 80c141 0 182 -85 170 -159
l-34 -204c6 -3 17 -5 45 -5c18 0 47 -2 41 -38zM350 139l12 72c-140 -5 -204 -38 -211 -78c-5 -33 25 -62 77 -62c7 0 46 0 80 15c36 15 39 34 42 53zM494 517c-3 -19 -21 -39 -43 -39c-4 0 -8 0 -12 2l-98 31l-108 -31c-6 -2 -10 -2 -14 -2c-21 0 -32 20 -29 38
c2 14 12 28 32 35l121 42c8 2 17 2 25 0l107 -42c16 -6 21 -20 19 -34zM478 662c4 22 -8 29 -24 36l-119 58c-12 6 -21 6 -21 6c-24 0 -46 -18 -50 -43c-3 -13 -1 -29 26 -42l119 -57c7 -3 12 -6 20 -6c31 0 47 38 49 48z" />
    <glyph glyph-name="Acircumflexhookabove" unicode="&#x1ea8;" horiz-adv-x="758" 
d="M721 38c-6 -37 -35 -38 -54 -38h-154c-18 0 -49 1 -42 39c6 36 37 38 55 38h26l-17 90h-257l-47 -90h26c18 0 49 -2 42 -39c-6 -36 -37 -38 -55 -38h-154c-20 0 -48 1 -41 39c6 36 35 38 54 38h38l267 508c19 37 44 38 65 38h19c23 0 46 -1 52 -39l98 -507h38
c20 0 48 -1 41 -39zM520 244l-54 282l-147 -282h201zM646 682c-4 -19 -21 -39 -43 -39c-4 0 -8 0 -13 2l-97 31l-109 -31c-5 -2 -9 -2 -13 -2c-21 0 -33 20 -30 38c3 14 13 28 32 35l121 42c9 2 18 2 25 0l107 -42c16 -6 22 -20 20 -34zM749 913c-6 -28 -26 -51 -64 -70
c-19 -10 -31 -20 -33 -31l-3 -17c-3 -20 -21 -36 -42 -36c-19 0 -33 16 -30 36l3 17c8 47 48 79 97 103c-3 9 -18 13 -41 13c-14 0 -25 -5 -29 -11c-5 -28 -26 -41 -44 -41c-24 0 -34 19 -31 37c9 55 66 87 119 87c65 0 107 -33 98 -87z" />
    <glyph glyph-name="acircumflexhookabove" unicode="&#x1ea9;" horiz-adv-x="510" 
d="M513 39c-7 -37 -31 -39 -63 -39c-41 0 -81 4 -99 28c-31 -17 -81 -34 -142 -34c-100 0 -153 67 -141 139c15 90 131 149 308 153c5 58 -35 82 -97 82c-20 0 -44 -3 -44 -3c-8 -42 -41 -53 -60 -53c-28 0 -50 18 -44 53c13 77 116 80 160 80c141 0 182 -85 170 -159
l-34 -204c6 -3 17 -5 45 -5c18 0 47 -2 41 -38zM350 139l12 72c-140 -5 -204 -38 -211 -78c-5 -33 25 -62 77 -62c7 0 46 0 80 15c36 15 39 34 42 53zM494 517c-3 -19 -21 -39 -43 -39c-4 0 -8 0 -12 2l-98 31l-108 -31c-6 -2 -10 -2 -14 -2c-21 0 -32 20 -29 38
c2 14 12 28 32 35l121 42c8 2 17 2 25 0l107 -42c16 -6 21 -20 19 -34zM597 748c-5 -28 -26 -51 -63 -70c-20 -10 -32 -20 -33 -31l-3 -17c-4 -20 -21 -36 -42 -36c-19 0 -34 16 -30 36l3 17c7 47 48 79 97 103c-4 9 -19 13 -42 13c-14 0 -25 -5 -29 -11
c-5 -28 -26 -41 -44 -41c-24 0 -34 19 -31 37c10 55 66 87 119 87c65 0 107 -33 98 -87z" />
    <glyph glyph-name="Acircumflextilde" unicode="&#x1eaa;" horiz-adv-x="758" 
d="M721 38c-6 -37 -35 -38 -54 -38h-154c-18 0 -49 1 -42 39c6 36 37 38 55 38h26l-17 90h-257l-47 -90h26c18 0 49 -2 42 -39c-6 -36 -37 -38 -55 -38h-154c-20 0 -48 1 -41 39c6 36 35 38 54 38h38l267 508c19 37 44 38 65 38h19c23 0 46 -1 52 -39l98 -507h38
c20 0 48 -1 41 -39zM520 244l-54 282l-147 -282h201zM646 682c-4 -19 -21 -39 -43 -39c-4 0 -8 0 -13 2l-97 31l-109 -31c-5 -2 -9 -2 -13 -2c-21 0 -33 20 -30 38c3 14 13 28 32 35l121 42c9 2 18 2 25 0l107 -42c16 -6 22 -20 20 -34zM708 893c-3 -19 -38 -44 -61 -60
c-27 -18 -59 -34 -87 -34c-36 0 -54 22 -66 36c-8 9 -16 18 -21 18c-12 0 -38 -16 -69 -41c-9 -7 -18 -13 -31 -13c-20 0 -36 20 -32 40c3 19 37 44 61 60c27 18 58 34 86 34c36 0 55 -21 67 -35c8 -10 16 -18 21 -18c12 0 37 15 68 40c10 8 18 13 31 13c20 0 36 -20 33 -40
z" />
    <glyph glyph-name="acircumflextilde" unicode="&#x1eab;" horiz-adv-x="510" 
d="M513 39c-7 -37 -31 -39 -63 -39c-41 0 -81 4 -99 28c-31 -17 -81 -34 -142 -34c-100 0 -153 67 -141 139c15 90 131 149 308 153c5 58 -35 82 -97 82c-20 0 -44 -3 -44 -3c-8 -42 -41 -53 -60 -53c-28 0 -50 18 -44 53c13 77 116 80 160 80c141 0 182 -85 170 -159
l-34 -204c6 -3 17 -5 45 -5c18 0 47 -2 41 -38zM350 139l12 72c-140 -5 -204 -38 -211 -78c-5 -33 25 -62 77 -62c7 0 46 0 80 15c36 15 39 34 42 53zM494 517c-3 -19 -21 -39 -43 -39c-4 0 -8 0 -12 2l-98 31l-108 -31c-6 -2 -10 -2 -14 -2c-21 0 -32 20 -29 38
c2 14 12 28 32 35l121 42c8 2 17 2 25 0l107 -42c16 -6 21 -20 19 -34zM556 728c-3 -19 -37 -44 -61 -60c-27 -18 -59 -34 -87 -34c-36 0 -54 22 -66 36c-8 9 -16 18 -21 18c-12 0 -37 -16 -68 -41c-10 -7 -19 -13 -32 -13c-20 0 -35 20 -32 40c3 19 37 44 61 60
c27 18 59 34 87 34c36 0 54 -21 66 -35c8 -10 16 -18 21 -18c12 0 37 15 69 40c9 8 18 13 31 13c20 0 35 -20 32 -40z" />
    <glyph glyph-name="acute" unicode="&#xb4;" 
d="M470 568c-2 -13 -9 -29 -40 -42l-139 -57c-7 -3 -14 -6 -22 -6c-31 0 -34 38 -33 48c4 22 18 29 36 36l139 58c14 6 23 6 23 6c24 0 40 -18 36 -43z" />
    <glyph glyph-name="uni0301" unicode="&#x301;" horiz-adv-x="0" 
d="M-48 568c-2 -13 -9 -29 -40 -42l-139 -57c-7 -3 -14 -6 -22 -6c-31 0 -34 38 -33 48c4 22 18 29 36 36l139 58c14 6 23 6 23 6c24 0 40 -18 36 -43z" />
    <glyph glyph-name="Adblgrave" unicode="&#x200;" horiz-adv-x="758" 
d="M721 38c-6 -37 -35 -38 -54 -38h-154c-18 0 -49 1 -42 39c6 36 37 38 55 38h26l-17 90h-257l-47 -90h26c18 0 49 -2 42 -39c-6 -36 -37 -38 -55 -38h-154c-20 0 -48 1 -41 39c6 36 35 38 54 38h38l267 508c19 37 44 38 65 38h19c23 0 46 -1 52 -39l98 -507h38
c20 0 48 -1 41 -39zM520 244l-54 282l-147 -282h201zM637 699c-2 -17 -28 -46 -51 -46c-11 0 -15 2 -26 13l-59 54c-10 10 -19 18 -16 37c4 25 26 43 50 43c13 0 18 -3 29 -14l59 -54c11 -11 17 -16 14 -33zM432 699c-2 -17 -28 -46 -51 -46c-11 0 -15 2 -26 13l-59 54
c-10 10 -19 18 -16 37c4 25 26 43 50 43c13 0 18 -3 29 -14l59 -54c11 -11 17 -16 14 -33z" />
    <glyph glyph-name="adblgrave" unicode="&#x201;" horiz-adv-x="510" 
d="M513 39c-7 -37 -31 -39 -63 -39c-41 0 -81 4 -99 28c-31 -17 -81 -34 -142 -34c-100 0 -153 67 -141 139c15 90 131 149 308 153c5 58 -35 82 -97 82c-20 0 -44 -3 -44 -3c-8 -42 -41 -53 -60 -53c-28 0 -50 18 -44 53c13 77 116 80 160 80c141 0 182 -85 170 -159
l-34 -204c6 -3 17 -5 45 -5c18 0 47 -2 41 -38zM350 139l12 72c-140 -5 -204 -38 -211 -78c-5 -33 25 -62 77 -62c7 0 46 0 80 15c36 15 39 34 42 53zM513 524c-3 -17 -29 -46 -52 -46c-11 0 -14 2 -25 13l-59 54c-11 10 -19 18 -16 37c4 25 26 43 50 43c13 0 17 -3 29 -14
l59 -54c11 -11 17 -16 14 -33zM308 524c-3 -17 -29 -46 -52 -46c-11 0 -14 2 -25 13l-59 54c-11 10 -19 18 -16 37c4 25 26 43 50 43c13 0 17 -3 29 -14l59 -54c11 -11 17 -16 14 -33z" />
    <glyph glyph-name="Adieresis" unicode="&#xc4;" horiz-adv-x="758" 
d="M721 38c-6 -37 -35 -38 -54 -38h-154c-18 0 -49 1 -42 39c6 36 37 38 55 38h26l-17 90h-257l-47 -90h26c18 0 49 -2 42 -39c-6 -36 -37 -38 -55 -38h-154c-20 0 -48 1 -41 39c6 36 35 38 54 38h38l267 508c19 37 44 38 65 38h19c23 0 46 -1 52 -39l98 -507h38
c20 0 48 -1 41 -39zM520 244l-54 282l-147 -282h201zM450 695c-5 -27 -29 -52 -62 -52c-28 0 -48 23 -43 52c4 26 29 53 62 53c29 0 47 -25 43 -53zM647 695c-5 -27 -29 -52 -62 -52c-28 0 -48 23 -43 52c4 26 29 53 62 53c29 0 47 -25 43 -53z" />
    <glyph glyph-name="adieresis" unicode="&#xe4;" horiz-adv-x="510" 
d="M513 39c-7 -37 -31 -39 -63 -39c-41 0 -81 4 -99 28c-31 -17 -81 -34 -142 -34c-100 0 -153 67 -141 139c15 90 131 149 308 153c5 58 -35 82 -97 82c-20 0 -44 -3 -44 -3c-8 -42 -41 -53 -60 -53c-28 0 -50 18 -44 53c13 77 116 80 160 80c141 0 182 -85 170 -159
l-34 -204c6 -3 17 -5 45 -5c18 0 47 -2 41 -38zM350 139l12 72c-140 -5 -204 -38 -211 -78c-5 -33 25 -62 77 -62c7 0 46 0 80 15c36 15 39 34 42 53zM317 551c-5 -27 -29 -52 -62 -52c-28 0 -48 23 -43 52c4 26 28 53 61 53c29 0 48 -25 44 -53zM484 551
c-5 -27 -29 -52 -62 -52c-28 0 -48 23 -43 52c4 26 28 53 61 53c29 0 48 -25 44 -53z" />
    <glyph glyph-name="Adotbelow" unicode="&#x1ea0;" horiz-adv-x="758" 
d="M721 38c-6 -37 -35 -38 -54 -38h-154c-18 0 -49 1 -42 39c6 36 37 38 55 38h26l-17 90h-257l-47 -90h26c18 0 49 -2 42 -39c-6 -36 -37 -38 -55 -38h-154c-20 0 -48 1 -41 39c6 36 35 38 54 38h38l267 508c19 37 44 38 65 38h19c23 0 46 -1 52 -39l98 -507h38
c20 0 48 -1 41 -39zM520 244l-54 282l-147 -282h201zM413 -137c-5 -29 -32 -57 -67 -57c-31 0 -53 26 -48 57c5 29 33 57 68 57c31 0 52 -26 47 -57z" />
    <glyph glyph-name="adotbelow" unicode="&#x1ea1;" horiz-adv-x="510" 
d="M513 39c-7 -37 -31 -39 -63 -39c-41 0 -81 4 -99 28c-31 -17 -81 -34 -142 -34c-100 0 -153 67 -141 139c15 90 131 149 308 153c5 58 -35 82 -97 82c-20 0 -44 -3 -44 -3c-8 -42 -41 -53 -60 -53c-28 0 -50 18 -44 53c13 77 116 80 160 80c141 0 182 -85 170 -159
l-34 -204c6 -3 17 -5 45 -5c18 0 47 -2 41 -38zM350 139l12 72c-140 -5 -204 -38 -211 -78c-5 -33 25 -62 77 -62c7 0 46 0 80 15c36 15 39 34 42 53zM289 -137c-5 -29 -32 -57 -67 -57c-31 0 -53 26 -48 57c5 29 33 57 68 57c31 0 52 -26 47 -57z" />
    <glyph glyph-name="AE" unicode="&#xc6;" horiz-adv-x="933" 
d="M907 49c-6 -38 -16 -49 -55 -49h-412c-18 0 -49 2 -43 38c7 37 37 39 56 39h20l17 101h-188l-61 -101h23c19 0 47 -1 40 -39c-6 -37 -35 -38 -53 -38h-155c-19 0 -48 1 -41 39c6 36 36 38 54 38h40l276 457h-3c-17 0 -48 2 -42 38c7 38 37 39 55 39h491
c40 0 45 -12 39 -49l-12 -70c-4 -24 -8 -49 -50 -49c-41 0 -38 26 -34 49l7 42h-242l-30 -179h125c8 40 14 55 52 55c41 0 38 -26 34 -49l-15 -90c-4 -23 -9 -49 -50 -49c-38 0 -39 15 -34 56h-125l-33 -201h270l10 58c4 24 9 49 51 49c41 0 36 -26 33 -49zM501 255l46 279
h-32l-169 -279h155z" />
    <glyph glyph-name="ae" unicode="&#xe6;" horiz-adv-x="758" 
d="M746 115c-4 -27 -66 -121 -186 -121c-41 0 -106 12 -152 71c-48 -60 -144 -71 -191 -71c-102 0 -153 63 -142 129c19 118 232 133 305 136l4 21c9 58 -27 88 -97 88c-13 0 -22 0 -36 -1c-6 -1 -8 -2 -8 -2c-8 -42 -42 -53 -60 -53c-28 0 -50 18 -44 53
c13 77 116 80 160 80c27 0 116 -1 156 -72c67 62 129 72 165 72c116 0 166 -92 146 -214c-8 -45 -29 -45 -56 -45h-254c4 -71 60 -115 123 -115c10 0 56 0 86 53c13 24 26 27 44 27c8 0 43 -1 37 -36zM689 261c2 56 -16 107 -77 107c-52 0 -111 -42 -138 -107h215zM359 132
l6 51c-44 -2 -82 -4 -123 -13c-14 -3 -83 -21 -87 -46c-5 -31 28 -53 79 -53c11 0 47 1 81 14c39 14 42 35 44 47z" />
    <glyph glyph-name="AEacute" unicode="&#x1fc;" horiz-adv-x="933" 
d="M907 49c-6 -38 -16 -49 -55 -49h-412c-18 0 -49 2 -43 38c7 37 37 39 56 39h20l17 101h-188l-61 -101h23c19 0 47 -1 40 -39c-6 -37 -35 -38 -53 -38h-155c-19 0 -48 1 -41 39c6 36 36 38 54 38h40l276 457h-3c-17 0 -48 2 -42 38c7 38 37 39 55 39h491
c40 0 45 -12 39 -49l-12 -70c-4 -24 -8 -49 -50 -49c-41 0 -38 26 -34 49l7 42h-242l-30 -179h125c8 40 14 55 52 55c41 0 38 -26 34 -49l-15 -90c-4 -23 -9 -49 -50 -49c-38 0 -39 15 -34 56h-125l-33 -201h270l10 58c4 24 9 49 51 49c41 0 36 -26 33 -49zM501 255l46 279
h-32l-169 -279h155zM705 758c-2 -13 -9 -29 -40 -42l-138 -57c-8 -3 -14 -6 -22 -6c-31 0 -35 38 -33 48c3 22 18 29 36 36l138 58c14 6 23 6 23 6c24 0 40 -18 36 -43z" />
    <glyph glyph-name="aeacute" unicode="&#x1fd;" horiz-adv-x="758" 
d="M746 115c-4 -27 -66 -121 -186 -121c-41 0 -106 12 -152 71c-48 -60 -144 -71 -191 -71c-102 0 -153 63 -142 129c19 118 232 133 305 136l4 21c9 58 -27 88 -97 88c-13 0 -22 0 -36 -1c-6 -1 -8 -2 -8 -2c-8 -42 -42 -53 -60 -53c-28 0 -50 18 -44 53
c13 77 116 80 160 80c27 0 116 -1 156 -72c67 62 129 72 165 72c116 0 166 -92 146 -214c-8 -45 -29 -45 -56 -45h-254c4 -71 60 -115 123 -115c10 0 56 0 86 53c13 24 26 27 44 27c8 0 43 -1 37 -36zM689 261c2 56 -16 107 -77 107c-52 0 -111 -42 -138 -107h215zM359 132
l6 51c-44 -2 -82 -4 -123 -13c-14 -3 -83 -21 -87 -46c-5 -31 28 -53 79 -53c11 0 47 1 81 14c39 14 42 35 44 47zM589 582c-2 -13 -9 -29 -40 -42l-139 -57c-7 -3 -14 -6 -22 -6c-31 0 -34 38 -33 48c4 22 18 29 36 36l139 58c14 6 23 6 23 6c24 0 40 -18 36 -43z" />
    <glyph glyph-name="Agrave" unicode="&#xc0;" horiz-adv-x="758" 
d="M721 38c-6 -37 -35 -38 -54 -38h-154c-18 0 -49 1 -42 39c6 36 37 38 55 38h26l-17 90h-257l-47 -90h26c18 0 49 -2 42 -39c-6 -36 -37 -38 -55 -38h-154c-20 0 -48 1 -41 39c6 36 35 38 54 38h38l267 508c19 37 44 38 65 38h19c23 0 46 -1 52 -39l98 -507h38
c20 0 48 -1 41 -39zM520 244l-54 282l-147 -282h201zM608 701c-2 -10 -18 -48 -49 -48c-8 0 -14 3 -20 6l-120 57c-27 13 -28 29 -26 42c4 25 26 43 50 43c0 0 9 0 21 -6l120 -58c16 -7 27 -14 24 -36z" />
    <glyph glyph-name="agrave" unicode="&#xe0;" horiz-adv-x="510" 
d="M513 39c-7 -37 -31 -39 -63 -39c-41 0 -81 4 -99 28c-31 -17 -81 -34 -142 -34c-100 0 -153 67 -141 139c15 90 131 149 308 153c5 58 -35 82 -97 82c-20 0 -44 -3 -44 -3c-8 -42 -41 -53 -60 -53c-28 0 -50 18 -44 53c13 77 116 80 160 80c141 0 182 -85 170 -159
l-34 -204c6 -3 17 -5 45 -5c18 0 47 -2 41 -38zM350 139l12 72c-140 -5 -204 -38 -211 -78c-5 -33 25 -62 77 -62c7 0 46 0 80 15c36 15 39 34 42 53zM454 525c-1 -10 -18 -48 -49 -48c-8 0 -13 3 -20 6l-119 57c-27 13 -28 29 -26 42c4 25 26 43 50 43c0 0 9 0 21 -6
l119 -58c16 -7 28 -14 24 -36z" />
    <glyph glyph-name="Ahookabove" unicode="&#x1ea2;" horiz-adv-x="758" 
d="M721 38c-6 -37 -35 -38 -54 -38h-154c-18 0 -49 1 -42 39c6 36 37 38 55 38h26l-17 90h-257l-47 -90h26c18 0 49 -2 42 -39c-6 -36 -37 -38 -55 -38h-154c-20 0 -48 1 -41 39c6 36 35 38 54 38h38l267 508c19 37 44 38 65 38h19c23 0 46 -1 52 -39l98 -507h38
c20 0 48 -1 41 -39zM520 244l-54 282l-147 -282h201zM623 808c-6 -28 -27 -51 -64 -70c-20 -10 -31 -20 -33 -31l-3 -17c-3 -20 -21 -36 -42 -36c-19 0 -33 16 -30 36l3 17c8 47 48 79 97 103c-3 9 -19 13 -42 13c-14 0 -25 -5 -29 -11c-4 -28 -25 -41 -43 -41
c-24 0 -34 19 -31 37c9 55 65 87 118 87c65 0 108 -33 99 -87z" />
    <glyph glyph-name="ahookabove" unicode="&#x1ea3;" horiz-adv-x="510" 
d="M513 39c-7 -37 -31 -39 -63 -39c-41 0 -81 4 -99 28c-31 -17 -81 -34 -142 -34c-100 0 -153 67 -141 139c15 90 131 149 308 153c5 58 -35 82 -97 82c-20 0 -44 -3 -44 -3c-8 -42 -41 -53 -60 -53c-28 0 -50 18 -44 53c13 77 116 80 160 80c141 0 182 -85 170 -159
l-34 -204c6 -3 17 -5 45 -5c18 0 47 -2 41 -38zM350 139l12 72c-140 -5 -204 -38 -211 -78c-5 -33 25 -62 77 -62c7 0 46 0 80 15c36 15 39 34 42 53zM461 585c-5 -28 -26 -51 -63 -70c-20 -10 -32 -20 -34 -31l-2 -17c-4 -20 -21 -36 -42 -36c-19 0 -34 16 -30 36l2 17
c8 47 49 79 98 103c-4 9 -19 13 -42 13c-14 0 -25 -5 -29 -11c-5 -28 -26 -41 -44 -41c-24 0 -34 19 -31 37c9 55 66 87 119 87c65 0 107 -33 98 -87z" />
    <glyph glyph-name="Alpha" unicode="&#x391;" horiz-adv-x="758" 
d="M721 38c-6 -37 -35 -38 -54 -38h-154c-18 0 -49 1 -42 39c6 36 37 38 55 38h26l-17 90h-257l-47 -90h26c18 0 49 -2 42 -39c-6 -36 -37 -38 -55 -38h-154c-20 0 -48 1 -41 39c6 36 35 38 54 38h38l267 508c19 37 44 38 65 38h19c23 0 46 -1 52 -39l98 -507h38
c20 0 48 -1 41 -39zM520 244l-54 282l-147 -282h201z" />
    <glyph glyph-name="Amacron" unicode="&#x100;" horiz-adv-x="758" 
d="M721 38c-6 -37 -35 -38 -54 -38h-154c-18 0 -49 1 -42 39c6 36 37 38 55 38h26l-17 90h-257l-47 -90h26c18 0 49 -2 42 -39c-6 -36 -37 -38 -55 -38h-154c-20 0 -48 1 -41 39c6 36 35 38 54 38h38l267 508c19 37 44 38 65 38h19c23 0 46 -1 52 -39l98 -507h38
c20 0 48 -1 41 -39zM520 244l-54 282l-147 -282h201zM689 702c-6 -37 -35 -39 -54 -39h-289c-20 0 -47 2 -41 40s35 39 54 39h290c20 0 46 -1 40 -40z" />
    <glyph glyph-name="amacron" unicode="&#x101;" horiz-adv-x="510" 
d="M513 39c-7 -37 -31 -39 -63 -39c-41 0 -81 4 -99 28c-31 -17 -81 -34 -142 -34c-100 0 -153 67 -141 139c15 90 131 149 308 153c5 58 -35 82 -97 82c-20 0 -44 -3 -44 -3c-8 -42 -41 -53 -60 -53c-28 0 -50 18 -44 53c13 77 116 80 160 80c141 0 182 -85 170 -159
l-34 -204c6 -3 17 -5 45 -5c18 0 47 -2 41 -38zM350 139l12 72c-140 -5 -204 -38 -211 -78c-5 -33 25 -62 77 -62c7 0 46 0 80 15c36 15 39 34 42 53zM540 551c-7 -37 -35 -39 -54 -39h-289c-20 0 -48 2 -41 40c6 38 34 39 53 39h290c20 0 47 -1 41 -40z" />
    <glyph glyph-name="anglearc" unicode="&#x2222;" horiz-adv-x="817" 
d="M764 43c-4 -23 -27 -43 -50 -43c-6 0 -12 1 -16 4l-114 52c-19 -29 -41 -56 -67 -83c-9 -10 -22 -16 -35 -16c-25 0 -40 20 -36 43c2 10 6 20 14 27c19 19 36 40 52 63l-382 177c-14 6 -23 22 -20 39s17 33 33 39l441 177c-8 23 -19 44 -31 63c-5 7 -7 17 -5 27
c4 23 25 43 50 43c13 0 24 -7 31 -16c16 -27 29 -54 39 -83l130 52c6 3 12 4 18 4c23 0 40 -20 36 -43c-3 -17 -17 -33 -33 -39l-130 -52c9 -55 9 -114 -1 -172s-29 -117 -57 -172l114 -52c14 -6 22 -22 19 -39zM602 306c8 47 8 94 1 138l-342 -138l296 -138
c21 44 37 91 45 138z" />
    <glyph glyph-name="angleleft" unicode="&#x2329;" horiz-adv-x="408" 
d="M347 -39c-3 -22 -26 -42 -49 -42c-26 0 -34 23 -39 41l-93 312s-8 19 -6 33c2 12 15 29 15 29l200 317c11 18 26 41 52 41c23 0 39 -20 35 -42c-1 -6 -14 -32 -30 -57l-181 -287l85 -288c7 -25 12 -51 11 -57z" />
    <glyph glyph-name="angleright" unicode="&#x232a;" horiz-adv-x="408" 
d="M348 305c-2 -14 -18 -33 -18 -33l-197 -312c-11 -18 -27 -41 -53 -41c-23 0 -38 20 -35 42c1 6 16 32 31 57l181 288l-85 287c-8 25 -13 51 -12 57c4 22 26 42 49 42c26 0 35 -23 40 -41l94 -317s7 -17 5 -29z" />
    <glyph glyph-name="Aogonek" unicode="&#x104;" horiz-adv-x="758" 
d="M721 38c-6 -37 -35 -38 -54 -38h-49c-52 -28 -68 -60 -74 -98c-3 -18 15 -29 29 -29c6 0 13 2 20 7c40 34 61 55 79 32c11 -14 10 -37 -1 -48c-31 -35 -75 -61 -114 -61c-67 0 -96 55 -88 101c6 39 29 71 61 96h-17c-18 0 -49 1 -42 39c6 36 37 38 55 38h26l-17 90h-257
l-47 -90h26c18 0 49 -2 42 -39c-6 -36 -37 -38 -55 -38h-154c-20 0 -48 1 -41 39c6 36 35 38 54 38h38l267 508c19 37 44 38 65 38h19c23 0 46 -1 52 -39l98 -507h38c20 0 48 -1 41 -39zM520 244l-54 282l-147 -282h201z" />
    <glyph glyph-name="aogonek" unicode="&#x105;" horiz-adv-x="510" 
d="M513 39c-6 -36 -30 -39 -61 -39c-12 0 -16 0 -25 -5c-39 -24 -71 -61 -76 -93c-3 -18 16 -29 29 -29c7 0 14 2 21 7c40 34 61 55 79 32c11 -14 9 -37 -1 -48c-31 -35 -75 -61 -115 -61c-66 0 -95 55 -87 101c7 43 45 86 86 113c-5 3 -9 7 -12 11
c-31 -17 -81 -34 -142 -34c-100 0 -153 67 -141 139c15 90 131 149 308 153c5 58 -35 82 -97 82c-20 0 -44 -3 -44 -3c-8 -42 -41 -53 -60 -53c-28 0 -50 18 -44 53c13 77 116 80 160 80c141 0 182 -85 170 -159l-34 -204c6 -3 17 -5 45 -5c18 0 47 -2 41 -38zM350 139
l12 72c-140 -5 -204 -38 -211 -78c-5 -33 25 -62 77 -62c7 0 46 0 80 15c36 15 39 34 42 53z" />
    <glyph glyph-name="Aring" unicode="&#xc5;" horiz-adv-x="758" 
d="M721 38c-6 -37 -35 -38 -54 -38h-154c-18 0 -49 1 -42 39c6 36 37 38 55 38h26l-17 90h-257l-47 -90h26c18 0 49 -2 42 -39c-6 -36 -37 -38 -55 -38h-154c-20 0 -48 1 -41 39c6 36 35 38 54 38h38l267 508c19 37 44 38 65 38h19c23 0 46 -1 52 -39l98 -507h38
c20 0 48 -1 41 -39zM520 244l-54 282l-147 -282h201zM541 690c2 13 -20 19 -44 19c-21 0 -48 -6 -50 -19s20 -19 44 -19c21 0 48 5 50 19zM616 690c-6 -34 -61 -67 -134 -67c-68 0 -116 32 -110 67c6 34 61 67 134 67c68 0 116 -32 110 -67z" />
    <glyph glyph-name="aring" unicode="&#xe5;" horiz-adv-x="510" 
d="M513 39c-7 -37 -31 -39 -63 -39c-41 0 -81 4 -99 28c-31 -17 -81 -34 -142 -34c-100 0 -153 67 -141 139c15 90 131 149 308 153c5 58 -35 82 -97 82c-20 0 -44 -3 -44 -3c-8 -42 -41 -53 -60 -53c-28 0 -50 18 -44 53c13 77 116 80 160 80c141 0 182 -85 170 -159
l-34 -204c6 -3 17 -5 45 -5c18 0 47 -2 41 -38zM350 139l12 72c-140 -5 -204 -38 -211 -78c-5 -33 25 -62 77 -62c7 0 46 0 80 15c36 15 39 34 42 53zM397 573c2 13 -20 19 -44 19c-21 0 -47 -5 -50 -19c-2 -13 20 -19 44 -19c21 0 48 6 50 19zM472 573
c-5 -34 -61 -67 -134 -67c-68 0 -116 32 -110 67c6 34 61 67 134 67c68 0 116 -32 110 -67z" />
    <glyph glyph-name="Aringacute" unicode="&#x1fa;" horiz-adv-x="758" 
d="M721 38c-6 -37 -35 -38 -54 -38h-154c-18 0 -49 1 -42 39c6 36 37 38 55 38h26l-17 90h-257l-47 -90h26c18 0 49 -2 42 -39c-6 -36 -37 -38 -55 -38h-154c-20 0 -48 1 -41 39c6 36 35 38 54 38h38l267 508c19 37 44 38 65 38h19c23 0 46 -1 52 -39l98 -507h38
c20 0 48 -1 41 -39zM520 244l-54 282l-147 -282h201zM541 690c2 13 -20 19 -44 19c-21 0 -48 -6 -50 -19s20 -19 44 -19c21 0 48 5 50 19zM616 690c-6 -34 -61 -67 -134 -67c-68 0 -116 32 -110 67c6 34 61 67 134 67c68 0 116 -32 110 -67zM638 882c-2 -13 -9 -29 -40 -42
l-139 -57c-7 -3 -14 -6 -22 -6c-31 0 -34 38 -33 48c4 22 18 29 36 36l139 58c14 6 23 6 23 6c24 0 40 -18 36 -43z" />
    <glyph glyph-name="aringacute" unicode="&#x1fb;" horiz-adv-x="510" 
d="M513 39c-7 -37 -31 -39 -63 -39c-41 0 -81 4 -99 28c-31 -17 -81 -34 -142 -34c-100 0 -153 67 -141 139c15 90 131 149 308 153c5 58 -35 82 -97 82c-20 0 -44 -3 -44 -3c-8 -42 -41 -53 -60 -53c-28 0 -50 18 -44 53c13 77 116 80 160 80c141 0 182 -85 170 -159
l-34 -204c6 -3 17 -5 45 -5c18 0 47 -2 41 -38zM350 139l12 72c-140 -5 -204 -38 -211 -78c-5 -33 25 -62 77 -62c7 0 46 0 80 15c36 15 39 34 42 53zM397 573c2 13 -20 19 -44 19c-21 0 -48 -6 -50 -19s20 -19 44 -19c21 0 48 5 50 19zM472 573c-5 -34 -61 -67 -134 -67
c-68 0 -116 32 -110 67c6 34 61 67 134 67c68 0 116 -32 110 -67zM494 765c-2 -13 -9 -29 -40 -42l-138 -57c-8 -3 -14 -6 -22 -6c-31 0 -35 38 -33 48c3 22 18 29 36 36l138 58c14 6 23 6 23 6c24 0 40 -18 36 -43z" />
    <glyph glyph-name="uni2193" unicode="&#x2193;" horiz-adv-x="587" 
d="M601 249c-4 -19 -19 -34 -51 -41c-86 -20 -163 -80 -204 -159c-17 -37 -35 -49 -52 -49c-19 0 -32 13 -33 29c-10 93 -74 164 -166 182c-18 4 -29 19 -25 38l1 7c4 24 29 43 52 38c66 -12 122 -45 161 -94l62 368c9 58 94 58 85 0l-62 -368c57 49 123 82 193 94
c25 5 44 -14 40 -38z" />
    <glyph glyph-name="uni2190" unicode="&#x2190;" horiz-adv-x="1050" 
d="M1037 306c-5 -30 -32 -44 -60 -44c-11 0 -20 1 -31 1h-624c31 -36 50 -81 59 -131c1 -12 3 -34 3 -39c-4 -21 -21 -38 -51 -38c-29 0 -35 16 -37 40c-8 82 -60 145 -137 171c-20 5 -46 13 -45 37v2c4 26 41 36 68 44c86 28 148 91 185 166c7 20 16 41 50 41
c21 0 42 -9 38 -37c-2 -10 -8 -23 -14 -32c-24 -53 -60 -100 -105 -138h624c11 0 20 1 31 1c28 0 51 -14 46 -44z" />
    <glyph glyph-name="uni2192" unicode="&#x2192;" horiz-adv-x="1050" 
d="M1036 302c-12 -26 -33 -31 -58 -37c-57 -16 -111 -52 -149 -98c-51 -74 -77 -112 -95 -112c-28 0 -41 17 -37 38c0 5 10 27 15 39c25 50 60 95 103 131h-624c-11 0 -20 -1 -31 -1c-28 0 -51 14 -46 44s32 44 60 44c11 0 20 -1 31 -1h624c-31 38 -53 85 -59 138
c-2 9 -4 22 -2 32c4 28 29 37 50 37c34 0 35 -21 37 -41c11 -78 56 -139 128 -166l21 -5c22 -4 37 -16 33 -38z" />
    <glyph glyph-name="uni2191" unicode="&#x2191;" horiz-adv-x="587" 
d="M618 355c-4 -24 -29 -43 -52 -38c-66 12 -122 45 -161 94l-62 -368c-10 -58 -95 -58 -85 0l62 368c-57 -49 -123 -82 -193 -94c-25 -5 -44 14 -40 38l1 7c4 19 20 35 39 38c98 18 186 89 226 182c7 16 24 29 43 29c17 0 31 -12 36 -49c15 -83 78 -145 163 -162
c16 -3 28 -19 24 -38z" />
    <glyph glyph-name="asterisk.math" unicode="&#x2217;" 
d="M495 217c-3 -19 -23 -41 -48 -41c-8 0 -12 0 -37 17l-69 46l-15 -102c-2 -11 -9 -50 -49 -50s-35 39 -33 50l19 102l-119 -63c-50 0 -44 36 -43 41c4 23 19 31 36 39l98 50l-83 50c-14 8 -25 16 -21 38c3 19 23 41 48 41c8 0 11 0 25 -10l81 -53l15 102c2 11 9 50 49 50
s35 -39 33 -50l-19 -102l119 63c50 0 44 -36 43 -41c-4 -22 -19 -31 -36 -39l-98 -50l93 -55c4 -4 14 -15 11 -33z" />
    <glyph glyph-name="Atilde" unicode="&#xc3;" horiz-adv-x="758" 
d="M721 38c-6 -37 -35 -38 -54 -38h-154c-18 0 -49 1 -42 39c6 36 37 38 55 38h26l-17 90h-257l-47 -90h26c18 0 49 -2 42 -39c-6 -36 -37 -38 -55 -38h-154c-20 0 -48 1 -41 39c6 36 35 38 54 38h38l267 508c19 37 44 38 65 38h19c23 0 46 -1 52 -39l98 -507h38
c20 0 48 -1 41 -39zM520 244l-54 282l-147 -282h201zM682 737c-3 -19 -38 -44 -61 -60c-27 -18 -59 -34 -87 -34c-36 0 -54 22 -66 36c-8 9 -16 18 -21 18c-12 0 -38 -16 -69 -41c-9 -7 -18 -13 -31 -13c-20 0 -36 20 -32 40c3 19 37 44 61 60c27 18 58 34 86 34
c36 0 55 -21 67 -35c8 -10 16 -18 21 -18c12 0 37 15 68 40c10 8 18 13 31 13c20 0 36 -20 33 -40z" />
    <glyph glyph-name="atilde" unicode="&#xe3;" horiz-adv-x="510" 
d="M513 39c-7 -37 -31 -39 -63 -39c-41 0 -81 4 -99 28c-31 -17 -81 -34 -142 -34c-100 0 -153 67 -141 139c15 90 131 149 308 153c5 58 -35 82 -97 82c-20 0 -44 -3 -44 -3c-8 -42 -41 -53 -60 -53c-28 0 -50 18 -44 53c13 77 116 80 160 80c141 0 182 -85 170 -159
l-34 -204c6 -3 17 -5 45 -5c18 0 47 -2 41 -38zM350 139l12 72c-140 -5 -204 -38 -211 -78c-5 -33 25 -62 77 -62c7 0 46 0 80 15c36 15 39 34 42 53zM531 578c-3 -19 -37 -44 -61 -60c-27 -18 -59 -34 -87 -34c-36 0 -54 22 -66 36c-8 9 -16 18 -21 18
c-12 0 -37 -16 -68 -41c-10 -7 -19 -13 -32 -13c-20 0 -35 20 -32 40c3 19 37 44 61 60c27 18 59 34 87 34c36 0 54 -21 66 -35c8 -10 16 -18 21 -18c12 0 37 15 69 40c9 8 18 13 31 13c20 0 35 -20 32 -40z" />
    <glyph glyph-name="baht" unicode="&#xe3f;" horiz-adv-x="729" 
d="M699 171c-15 -87 -126 -171 -264 -171h-39l-9 -51c-3 -22 -24 -39 -45 -39c-23 0 -36 17 -33 39l9 51h-224c-18 0 -48 1 -42 38c7 38 35 39 55 39h43l76 457h-43c-18 0 -48 2 -42 38c7 38 35 39 55 39h224l8 51c4 22 23 39 46 39c21 0 36 -17 32 -39l-8 -51h12
c135 0 221 -77 207 -159c-10 -64 -77 -108 -141 -131c91 -26 133 -88 123 -150zM636 451c8 45 -51 83 -138 83h-13l-30 -178c101 6 173 47 181 95zM377 356l30 178h-99l-30 -178h99zM618 173c9 57 -54 106 -144 106h-31l-34 -202h15c95 0 184 39 194 96zM331 77l34 202h-99
l-34 -202h99z" />
    <glyph glyph-name="Beta" unicode="&#x392;" horiz-adv-x="729" 
d="M699 171c-15 -87 -126 -171 -264 -171h-341c-18 0 -48 1 -42 38c7 38 35 39 55 39h43l76 457h-43c-18 0 -48 2 -42 38c7 38 35 39 55 39h314c135 0 221 -77 207 -159c-10 -64 -77 -108 -141 -131c91 -26 133 -88 123 -150zM633 451c8 45 -50 83 -137 83h-184l-30 -178
h152c109 0 191 43 199 95zM616 173c9 57 -54 106 -145 106h-201l-34 -202h186c94 0 184 39 194 96z" />
    <glyph glyph-name="blanksymbol" unicode="&#x2422;" horiz-adv-x="583" 
d="M576 219c-22 -128 -144 -225 -264 -225c-55 0 -91 23 -114 46c-7 -27 -16 -40 -48 -40c-42 0 -39 25 -35 49l55 327l-31 -23c-8 -5 -17 -9 -27 -9c-22 0 -36 17 -32 39c2 11 9 22 19 29l88 67l9 55h-44c-18 0 -47 2 -41 38c7 38 35 39 54 39h81c40 0 46 -12 40 -49l-2 -9
l51 39c8 5 17 8 26 8c22 0 36 -17 33 -39c-2 -11 -9 -22 -19 -29l-108 -82l-8 -51c47 31 96 43 139 43c120 0 198 -102 178 -223zM493 219c12 76 -33 146 -113 146c-63 0 -134 -45 -143 -102l-11 -65c-8 -50 20 -127 96 -127c77 0 156 62 171 148z" />
    <glyph glyph-name="breve" unicode="&#x2d8;" 
d="M537 562c-14 -84 -127 -88 -195 -88s-179 4 -165 88c4 24 21 39 45 39c30 0 32 -20 32 -35c2 -12 63 -12 101 -12c37 0 99 0 105 12c6 15 14 35 44 35c25 0 37 -15 33 -39z" />
    <glyph glyph-name="uni032E" unicode="&#x32e;" horiz-adv-x="0" 
d="M-96 -125c-14 -84 -127 -88 -195 -88s-179 4 -165 88c4 24 22 39 46 39c30 0 31 -20 32 -35c2 -12 63 -12 101 -12c37 0 99 0 105 12c5 15 14 35 44 35c25 0 36 -15 32 -39z" />
    <glyph glyph-name="uni032F" unicode="&#x32f;" horiz-adv-x="0" 
d="M-104 -174c-4 -24 -22 -39 -46 -39c-30 0 -31 20 -32 35c-2 12 -63 12 -101 12c-37 0 -99 0 -105 -12c-5 -15 -14 -35 -44 -35c-25 0 -36 15 -32 39c14 84 127 88 195 88s179 -4 165 -88z" />
    <glyph glyph-name="uni0306" unicode="&#x306;" horiz-adv-x="0" 
d="M19 562c-14 -84 -127 -88 -195 -88s-179 4 -165 88c4 24 21 39 45 39c30 0 32 -20 32 -35c2 -12 63 -12 101 -12c37 0 99 0 105 12c6 15 14 35 44 35c25 0 37 -15 33 -39z" />
    <glyph glyph-name="uni0311" unicode="&#x311;" horiz-adv-x="0" 
d="M11 513c-4 -24 -22 -39 -46 -39c-30 0 -32 20 -32 35c-2 12 -63 12 -101 12c-37 0 -99 0 -105 -12c-6 -15 -14 -35 -44 -35c-25 0 -36 15 -32 39c14 84 126 88 194 88s180 -4 166 -88z" />
    <glyph glyph-name="brokenbar" unicode="&#xa6;" 
d="M372 404c-3 -22 -26 -39 -49 -39s-40 17 -37 39l39 233c3 14 11 55 52 55s37 -41 34 -55zM301 -26c-3 -14 -12 -55 -53 -55s-36 41 -33 55l39 233c3 22 26 39 49 39s40 -17 37 -39z" />
    <glyph glyph-name="bullet" unicode="&#x2022;" horiz-adv-x="817" 
d="M590 236c-13 -80 -86 -143 -166 -143s-133 63 -120 143c14 80 87 143 167 143s133 -63 119 -143z" />
    <glyph glyph-name="Cacute" unicode="&#x106;" horiz-adv-x="758" 
d="M728 172c-17 -103 -140 -183 -321 -183c-205 0 -326 150 -298 317c28 168 202 316 402 316c89 0 155 -26 193 -56c8 13 12 19 18 27c11 18 20 29 43 29c36 0 33 -29 30 -49l-23 -135c-4 -24 -9 -48 -51 -48c-11 0 -34 0 -36 29c-2 25 -6 63 -53 94c-31 20 -77 32 -127 32
c-155 0 -290 -112 -311 -239s74 -240 233 -240c45 0 99 8 138 26c64 29 73 63 79 85c8 35 35 36 48 36s42 -1 36 -41zM656 758c-2 -13 -9 -29 -40 -42l-138 -57c-8 -3 -14 -6 -22 -6c-31 0 -35 38 -33 48c3 22 18 29 36 36l138 58c14 6 23 6 23 6c24 0 40 -18 36 -43z" />
    <glyph glyph-name="cacute" unicode="&#x107;" horiz-adv-x="467" 
d="M459 115c-3 -18 -54 -121 -197 -121c-127 0 -205 103 -184 225c14 88 97 226 271 226c47 0 153 -4 140 -80c-6 -33 -33 -53 -61 -53s-47 15 -42 56h-50c-124 0 -167 -105 -174 -149c-14 -84 41 -148 119 -148c63 0 90 41 97 53c13 24 25 27 44 27c8 0 43 -1 37 -36z
M467 582c-2 -13 -9 -29 -40 -42l-139 -57c-7 -3 -14 -6 -22 -6c-31 0 -34 38 -33 48c4 22 18 29 36 36l139 58c14 6 23 6 23 6c24 0 40 -18 36 -43z" />
    <glyph glyph-name="caron" unicode="&#x2c7;" 
d="M511 572c-1 -11 -8 -23 -23 -31l-127 -72c-12 -7 -30 -7 -40 0l-103 72c-11 8 -14 20 -13 31c4 20 25 39 46 39c6 0 12 -2 17 -6l86 -58l106 58c7 4 13 6 19 6c21 0 36 -19 32 -39z" />
    <glyph glyph-name="uni030C" unicode="&#x30c;" horiz-adv-x="0" 
d="M-7 572c-1 -11 -8 -23 -23 -31l-127 -72c-12 -7 -30 -7 -40 0l-103 72c-11 8 -14 20 -13 31c4 20 25 39 46 39c6 0 12 -2 17 -6l86 -58l106 58c7 4 13 6 19 6c21 0 36 -19 32 -39z" />
    <glyph glyph-name="Ccaron" unicode="&#x10c;" horiz-adv-x="758" 
d="M728 172c-17 -103 -140 -183 -321 -183c-205 0 -326 150 -298 317c28 168 202 316 402 316c89 0 155 -26 193 -56c8 13 12 19 18 27c11 18 20 29 43 29c36 0 33 -29 30 -49l-23 -135c-4 -24 -9 -48 -51 -48c-11 0 -34 0 -36 29c-2 25 -6 63 -53 94c-31 20 -77 32 -127 32
c-155 0 -290 -112 -311 -239s74 -240 233 -240c45 0 99 8 138 26c64 29 73 63 79 85c8 35 35 36 48 36s42 -1 36 -41zM690 722c-2 -14 -12 -28 -32 -35l-121 -42c-8 -2 -17 -2 -25 0l-107 42c-16 6 -21 20 -19 34c3 19 21 39 43 39c4 0 8 0 12 -2l98 -31l108 31
c6 2 10 2 14 2c21 0 32 -20 29 -38z" />
    <glyph glyph-name="ccaron" unicode="&#x10d;" horiz-adv-x="467" 
d="M459 115c-3 -18 -54 -121 -197 -121c-127 0 -205 103 -184 225c14 88 97 226 271 226c47 0 153 -4 140 -80c-6 -33 -33 -53 -61 -53s-47 15 -42 56h-50c-124 0 -167 -105 -174 -149c-14 -84 41 -148 119 -148c63 0 90 41 97 53c13 24 25 27 44 27c8 0 43 -1 37 -36z
M508 586c-1 -11 -8 -23 -23 -31l-127 -72c-12 -7 -30 -7 -40 0l-103 72c-11 8 -14 20 -13 31c4 20 25 39 46 39c6 0 12 -2 17 -6l86 -58l106 58c7 4 13 6 19 6c21 0 36 -19 32 -39z" />
    <glyph glyph-name="Ccedilla" unicode="&#xc7;" horiz-adv-x="758" 
d="M728 172c-14 -83 -95 -151 -221 -174c34 -18 55 -49 48 -93c-17 -103 -148 -107 -233 -107c-14 0 -37 9 -32 39c6 36 33 39 69 39c87 0 109 9 112 30c3 17 -16 28 -42 30c-36 2 -33 26 -30 47l1 6c-201 4 -318 152 -291 317c28 168 202 316 402 316c89 0 155 -26 193 -56
c8 13 12 19 18 27c11 18 20 29 43 29c36 0 33 -29 30 -49l-23 -135c-4 -24 -9 -48 -51 -48c-11 0 -34 0 -36 29c-2 25 -6 63 -53 94c-31 20 -77 32 -127 32c-155 0 -290 -112 -311 -239s74 -240 233 -240c45 0 99 8 138 26c64 29 73 63 79 85c8 35 35 36 48 36s42 -1 36 -41
z" />
    <glyph glyph-name="ccedilla" unicode="&#xe7;" horiz-adv-x="467" 
d="M459 115c-2 -14 -36 -85 -126 -111c42 -16 70 -49 62 -99c-17 -103 -148 -107 -234 -107c-13 0 -37 9 -32 39c6 36 34 39 70 39c86 0 108 9 111 30c3 17 -15 28 -42 30c-35 2 -32 26 -29 47l2 12c-114 11 -183 109 -163 224c14 88 97 226 271 226c47 0 153 -4 140 -80
c-6 -33 -33 -53 -61 -53s-47 15 -42 56h-50c-124 0 -167 -105 -174 -149c-14 -84 41 -148 119 -148c63 0 90 41 97 53c13 24 25 27 44 27c8 0 43 -1 37 -36z" />
    <glyph glyph-name="Ccircumflex" unicode="&#x108;" horiz-adv-x="758" 
d="M728 172c-17 -103 -140 -183 -321 -183c-205 0 -326 150 -298 317c28 168 202 316 402 316c89 0 155 -26 193 -56c8 13 12 19 18 27c11 18 20 29 43 29c36 0 33 -29 30 -49l-23 -135c-4 -24 -9 -48 -51 -48c-11 0 -34 0 -36 29c-2 25 -6 63 -53 94c-31 20 -77 32 -127 32
c-155 0 -290 -112 -311 -239s74 -240 233 -240c45 0 99 8 138 26c64 29 73 63 79 85c8 35 35 36 48 36s42 -1 36 -41zM684 682c-4 -19 -21 -39 -43 -39c-4 0 -8 0 -13 2l-97 31l-109 -31c-5 -2 -9 -2 -13 -2c-21 0 -33 20 -30 38c3 14 13 28 32 35l121 42c9 2 18 2 25 0
l107 -42c16 -6 22 -20 20 -34z" />
    <glyph glyph-name="ccircumflex" unicode="&#x109;" horiz-adv-x="467" 
d="M459 115c-3 -18 -54 -121 -197 -121c-127 0 -205 103 -184 225c14 88 97 226 271 226c47 0 153 -4 140 -80c-6 -33 -33 -53 -61 -53s-47 15 -42 56h-50c-124 0 -167 -105 -174 -149c-14 -84 41 -148 119 -148c63 0 90 41 97 53c13 24 25 27 44 27c8 0 43 -1 37 -36z
M497 516c-4 -20 -25 -39 -46 -39c-6 0 -11 2 -17 6l-86 58l-106 -58c-6 -4 -13 -6 -19 -6c-21 0 -36 19 -32 39c2 11 9 23 23 31l127 72c12 7 30 7 40 0l103 -72c12 -8 15 -20 13 -31z" />
    <glyph glyph-name="Cdotaccent" unicode="&#x10a;" horiz-adv-x="758" 
d="M728 172c-17 -103 -140 -183 -321 -183c-205 0 -326 150 -298 317c28 168 202 316 402 316c89 0 155 -26 193 -56c8 13 12 19 18 27c11 18 20 29 43 29c36 0 33 -29 30 -49l-23 -135c-4 -24 -9 -48 -51 -48c-11 0 -34 0 -36 29c-2 25 -6 63 -53 94c-31 20 -77 32 -127 32
c-155 0 -290 -112 -311 -239s74 -240 233 -240c45 0 99 8 138 26c64 29 73 63 79 85c8 35 35 36 48 36s42 -1 36 -41zM593 711c-5 -28 -33 -57 -68 -57c-31 0 -53 26 -47 57c4 29 32 57 67 57c31 0 53 -26 48 -57z" />
    <glyph glyph-name="cdotaccent" unicode="&#x10b;" horiz-adv-x="467" 
d="M459 115c-3 -18 -54 -121 -197 -121c-127 0 -205 103 -184 225c14 88 97 226 271 226c47 0 153 -4 140 -80c-6 -33 -33 -53 -61 -53s-47 15 -42 56h-50c-124 0 -167 -105 -174 -149c-14 -84 41 -148 119 -148c63 0 90 41 97 53c13 24 25 27 44 27c8 0 43 -1 37 -36z
M407 551c-5 -28 -33 -57 -68 -57c-31 0 -53 26 -47 57c4 29 32 57 67 57c31 0 53 -26 48 -57z" />
    <glyph glyph-name="cedilla" unicode="&#xb8;" horiz-adv-x="467" 
d="M373 -95c-17 -103 -148 -107 -233 -107c-14 0 -37 9 -32 39c6 36 33 39 69 39c87 0 109 9 112 30c3 17 -16 28 -42 30c-36 2 -33 26 -30 47l6 32c3 21 8 46 49 46c38 0 39 -17 34 -55c44 -15 76 -49 67 -101z" />
    <glyph glyph-name="cent" unicode="&#xa2;" horiz-adv-x="467" 
d="M459 115c-3 -17 -45 -105 -165 -119l-8 -47c-3 -22 -23 -39 -44 -39c-22 0 -36 17 -33 39l9 50c-102 21 -158 114 -140 220c13 78 79 193 213 220l8 49c4 21 24 38 46 38c21 0 35 -17 31 -38l-7 -43c53 -1 131 -13 120 -80c-6 -33 -33 -53 -61 -53s-47 15 -42 56
c1 3 -14 2 -29 1l-50 -296c46 9 65 40 71 51c13 24 25 27 44 27c8 0 43 -1 37 -36zM230 81l46 278c-80 -27 -111 -105 -116 -140c-11 -65 19 -117 70 -138z" />
    <glyph glyph-name="centigrade" unicode="&#x2103;" horiz-adv-x="992" 
d="M961 174c-24 -145 -223 -185 -321 -185c-172 0 -329 128 -299 310c34 205 232 324 403 324c70 0 141 -16 193 -56c5 7 9 14 14 21c11 18 23 35 46 35c24 0 36 -16 31 -45l-23 -140c-4 -23 -9 -48 -50 -48c-29 0 -36 11 -40 47c-9 80 -101 109 -176 109
c-131 0 -286 -92 -311 -239c-27 -162 111 -240 235 -240c51 0 168 4 199 72c30 64 42 76 62 76c26 0 43 -5 37 -41zM330 491c-11 -66 -76 -123 -139 -123c-73 0 -115 58 -104 122c11 65 71 122 138 122c73 0 115 -58 105 -121zM261 490c5 29 -13 53 -43 53
c-27 0 -57 -22 -62 -52c-5 -29 14 -54 43 -54c28 0 57 24 62 53z" />
    <glyph glyph-name="Chi" unicode="&#x3a7;" horiz-adv-x="758" 
d="M718 38c-6 -36 -37 -38 -54 -38h-153c-18 0 -48 1 -42 38c7 38 36 39 55 39h3l-113 182l-163 -182h5c19 0 49 -2 42 -39c-6 -36 -37 -38 -55 -38h-152c-17 0 -48 2 -42 38c7 37 37 39 55 39h44l228 246l-136 211h-43c-19 0 -49 2 -42 39c6 36 37 38 55 38h151
c20 0 49 -1 42 -39c-6 -36 -36 -38 -55 -38l89 -140l127 140h-4c-18 0 -48 2 -41 39c6 36 36 38 54 38h152c18 0 48 -1 41 -39c-6 -36 -36 -38 -54 -38h-43l-195 -210l158 -247h45c18 0 48 -2 41 -39z" />
    <glyph glyph-name="circumflex" unicode="&#x2c6;" 
d="M500 502c-4 -20 -25 -39 -46 -39c-6 0 -11 2 -17 6l-86 58l-106 -58c-6 -4 -13 -6 -19 -6c-21 0 -36 19 -32 39c2 11 9 23 23 31l127 72c12 7 30 7 40 0l103 -72c12 -8 15 -20 13 -31z" />
    <glyph glyph-name="uni0302" unicode="&#x302;" horiz-adv-x="0" 
d="M-18 502c-4 -20 -25 -39 -46 -39c-6 0 -11 2 -17 6l-86 58l-106 -58c-6 -4 -13 -6 -19 -6c-21 0 -36 19 -32 39c2 11 9 23 23 31l127 72c12 7 30 7 40 0l103 -72c12 -8 15 -20 13 -31z" />
    <glyph glyph-name="colonmonetary" unicode="&#x20a1;" horiz-adv-x="758" 
d="M728 172c-16 -94 -119 -169 -275 -181l-7 -42c-3 -22 -24 -39 -45 -39s-36 17 -33 39l7 42c-185 14 -292 158 -266 315c27 159 184 301 371 314l7 42c4 22 25 39 46 39s36 -17 32 -39l-7 -43c66 -7 115 -29 146 -53c8 13 12 19 18 27c11 18 20 29 43 29
c36 0 33 -29 30 -49l-23 -135c-4 -24 -9 -48 -51 -48c-11 0 -34 0 -36 29c-2 25 -6 63 -58 97c-22 13 -50 22 -82 26l-79 -474c35 3 71 11 99 24c64 29 73 63 79 85c8 35 35 36 48 36s42 -1 36 -41zM385 68l80 475c-139 -16 -255 -120 -275 -237c-19 -117 59 -221 195 -238z
" />
    <glyph glyph-name="uni0326" unicode="&#x326;" horiz-adv-x="0" 
d="M-218 -88c-12 -72 -74 -118 -92 -118s-29 18 -27 31s9 19 36 42c10 11 14 21 17 29c-33 8 -29 39 -28 45c4 24 25 44 52 44s51 -20 42 -73z" />
    <glyph glyph-name="copyright" unicode="&#xa9;" horiz-adv-x="611" 
d="M662 306c-28 -169 -188 -306 -356 -306c-169 0 -283 137 -255 306c28 168 188 305 357 305c168 0 282 -137 254 -305zM617 306c24 143 -74 260 -217 260c-144 0 -280 -117 -304 -260c-24 -144 74 -261 218 -261c143 0 279 117 303 261zM501 232
c-10 -57 -77 -101 -177 -101c-112 0 -179 83 -164 175s111 174 221 174c49 0 86 -15 107 -31c4 7 6 10 9 15c6 10 11 16 24 16c20 0 18 -16 17 -27l-13 -75c-2 -13 -5 -26 -28 -26c-6 0 -19 0 -20 16c-1 14 -3 35 -29 52c-17 11 -42 17 -70 17c-85 0 -159 -61 -171 -131
s41 -132 128 -132c25 0 55 4 76 14c35 16 40 35 43 47c5 19 20 20 27 20s23 -1 20 -23z" />
    <glyph glyph-name="currency" unicode="&#xa4;" horiz-adv-x="817" 
d="M664 60c-33 -30 -58 -2 -67 8l-36 44c-43 -27 -91 -41 -141 -41s-93 15 -126 41l-53 -44c-11 -10 -46 -38 -69 -8c-25 28 8 58 19 68l52 45c-20 37 -27 83 -19 133s31 96 63 133l-36 45c-9 10 -32 40 3 68c33 30 58 2 67 -8l37 -44c43 26 90 41 140 41s94 -14 127 -41
l52 44c11 10 46 38 69 8c25 -28 -8 -58 -19 -68l-52 -44c21 -38 28 -84 20 -134s-31 -96 -64 -134l36 -44c9 -10 32 -40 -3 -68zM610 306c14 83 -42 150 -126 150c-83 0 -161 -67 -175 -150s42 -150 125 -150c84 0 162 67 176 150z" />
    <glyph glyph-name="dagger" unicode="&#x2020;" horiz-adv-x="444" 
d="M462 426c-1 -6 -9 -40 -52 -40c-21 0 -48 8 -66 14l-36 8c0 -14 -1 -27 -1 -39c3 -88 2 -95 -7 -148c-16 -94 -37 -194 -52 -255c-10 -50 -22 -102 -36 -151c-6 -19 -8 -25 -26 -25c-16 0 -19 7 -16 28c6 92 22 256 47 403c9 52 10 60 36 130c7 21 13 37 18 57
c-11 -2 -23 -5 -30 -7c-28 -7 -59 -15 -80 -15c-38 0 -40 26 -38 41c1 7 9 41 52 41c21 0 49 -8 67 -14l35 -8c4 25 5 54 6 93c0 23 0 80 6 115c2 11 9 48 50 48c40 0 35 -39 33 -48c-5 -30 -18 -73 -52 -186l-6 -22c12 2 23 5 30 6c29 8 59 16 80 16c38 0 41 -26 38 -42z
" />
    <glyph glyph-name="daggerdbl" unicode="&#x2021;" horiz-adv-x="444" 
d="M470 472c-1 -6 -9 -41 -52 -41c-21 0 -49 8 -67 14c-12 4 -26 7 -35 8c-2 -21 1 -27 2 -60c1 -35 0 -64 -3 -84c-3 -16 -14 -46 -50 -46c-13 0 -40 4 -33 46c4 28 15 48 40 120l7 24c-12 -1 -23 -4 -30 -6c-29 -8 -59 -16 -80 -16c-38 0 -41 26 -38 42c1 6 9 41 52 41
c21 0 48 -8 66 -14l36 -8c2 21 2 47 1 80c-1 35 0 64 3 84c8 43 37 46 49 46c41 0 36 -38 34 -46c-4 -28 -18 -67 -43 -140l-7 -24c11 2 23 4 30 6c28 8 59 16 80 16c38 0 40 -26 38 -42zM396 30c-3 -18 -19 -41 -49 -41c-5 0 -23 0 -54 9c-30 9 -38 11 -51 13l-1 -24
c0 -69 1 -113 -4 -140c-2 -16 -13 -46 -49 -46c-13 0 -41 4 -34 46c1 5 5 29 25 84c12 35 20 57 26 79c-11 -1 -22 -3 -51 -11c-13 -4 -38 -10 -62 -10c-30 0 -38 23 -35 41c3 16 18 41 49 41c7 0 24 0 55 -9c29 -9 38 -11 50 -12l1 23c0 69 -4 93 0 120c3 17 14 46 50 46
c13 0 40 -4 33 -46c-1 -5 -4 -28 -25 -83c-11 -35 -16 -38 -22 -60h4c72 18 90 21 110 21c26 0 38 -20 34 -41z" />
    <glyph glyph-name="dblbracketleft" unicode="&#x27e6;" horiz-adv-x="423" 
d="M398 -37c-4 -20 -14 -43 -45 -43h-216c-38 0 -42 22 -38 46l114 684c5 28 22 43 53 43h216c31 0 34 -23 30 -43c-3 -21 -13 -43 -47 -43h-47l-100 -601h47c34 0 36 -22 33 -43zM231 6l100 601h-40l-100 -601h40z" />
    <glyph glyph-name="dblbracketright" unicode="&#x27e7;" horiz-adv-x="423" 
d="M311 -37c-5 -28 -20 -43 -52 -43h-215c-31 0 -35 23 -31 43c3 21 13 43 47 43h46l100 601h-46c-34 0 -36 22 -33 43c4 20 15 43 46 43h215c38 0 41 -22 37 -46zM233 6l100 601h-40l-100 -601h40z" />
    <glyph glyph-name="uni030F" unicode="&#x30f;" horiz-adv-x="0" 
d="M0 510c-3 -17 -29 -46 -52 -46c-11 0 -14 2 -25 13l-59 54c-11 10 -19 18 -16 37c4 25 26 43 50 43c13 0 17 -3 29 -14l59 -54c11 -11 17 -16 14 -33zM-205 510c-3 -17 -29 -46 -52 -46c-11 0 -14 2 -25 13l-59 54c-11 10 -19 18 -16 37c4 25 26 43 50 43
c13 0 17 -3 29 -14l59 -54c11 -11 17 -16 14 -33z" />
    <glyph glyph-name="dblverticalbar" unicode="&#x2016;" 
d="M197 -26c-3 -14 -12 -55 -53 -55s-36 41 -33 55l110 663c3 14 11 55 52 55s37 -41 34 -55zM407 -26c-3 -14 -12 -55 -53 -55s-36 41 -33 55l110 663c3 14 11 55 52 55s37 -41 34 -55z" />
    <glyph glyph-name="Dcaron" unicode="&#x10e;" horiz-adv-x="788" 
d="M777 300c-27 -164 -192 -300 -370 -300h-312c-19 0 -48 1 -42 38c7 38 35 39 55 39h43l76 457h-43c-19 0 -48 2 -42 38c7 38 35 39 55 39h312c176 0 297 -140 268 -311zM694 301c21 122 -67 233 -215 233h-166l-76 -457h167c142 0 270 101 290 224zM572 722
c-2 -14 -12 -28 -32 -35l-121 -42c-8 -2 -17 -2 -25 0l-107 42c-16 6 -21 20 -19 34c3 19 21 39 43 39c4 0 8 0 12 -2l98 -31l108 31c6 2 10 2 14 2c21 0 32 -20 29 -38z" />
    <glyph glyph-name="dcaron" unicode="&#x10f;" horiz-adv-x="583" 
d="M572 38c-6 -37 -35 -38 -53 -38h-81c-39 0 -45 11 -40 44c-32 -24 -81 -50 -141 -50c-117 0 -198 99 -178 224c21 125 140 224 264 224c40 0 81 -12 114 -40l22 132h-43c-20 0 -48 1 -41 39c6 37 36 38 54 38h80c41 0 46 -12 40 -49l-81 -485h44c19 0 47 -1 40 -39z
M422 200l11 64c9 53 -36 101 -99 101c-79 0 -158 -64 -172 -147c-13 -80 36 -147 112 -147c77 0 139 75 148 129zM709 538c-12 -72 -75 -118 -93 -118s-29 18 -27 31s9 19 36 42c10 11 15 21 17 29c-33 8 -28 39 -27 45c4 24 25 44 52 44s51 -20 42 -73z" />
    <glyph glyph-name="Dcroat" unicode="&#x110;" horiz-adv-x="788" 
d="M777 300c-27 -164 -192 -300 -370 -300h-312c-19 0 -48 1 -42 38c7 38 35 39 55 39h43l32 190h-48c-22 0 -37 16 -33 39c4 21 24 39 46 39h48l31 189h-43c-19 0 -48 2 -42 38c7 38 35 39 55 39h312c176 0 297 -140 268 -311zM694 301c21 122 -67 233 -215 233h-166
l-31 -189h171c21 0 36 -18 32 -39c-4 -23 -24 -39 -45 -39h-171l-32 -190h167c142 0 270 101 290 224z" />
    <glyph glyph-name="dcroat" unicode="&#x111;" horiz-adv-x="583" 
d="M572 38c-6 -37 -35 -38 -53 -38h-81c-39 0 -45 11 -40 44c-32 -24 -81 -50 -141 -50c-117 0 -198 99 -178 224c21 125 140 224 264 224c40 0 81 -12 114 -40l9 54h-155c-21 0 -38 7 -34 29c3 21 23 29 44 29h155l3 20h-43c-20 0 -48 1 -41 39c6 37 36 38 54 38h80
c41 0 46 -12 40 -49l-8 -48h49c21 0 36 -8 33 -29c-4 -22 -22 -29 -43 -29h-49l-63 -379h44c19 0 47 -1 40 -39zM422 200l11 64c9 53 -36 101 -99 101c-79 0 -158 -64 -172 -147c-13 -80 36 -147 112 -147c77 0 139 75 148 129z" />
    <glyph glyph-name="Ddotbelow" unicode="&#x1e0c;" horiz-adv-x="788" 
d="M777 300c-27 -164 -192 -300 -370 -300h-312c-19 0 -48 1 -42 38c7 38 35 39 55 39h43l76 457h-43c-19 0 -48 2 -42 38c7 38 35 39 55 39h312c176 0 297 -140 268 -311zM694 301c21 122 -67 233 -215 233h-166l-76 -457h167c142 0 270 101 290 224zM333 -137
c-5 -29 -32 -57 -67 -57c-31 0 -53 26 -48 57c5 29 33 57 68 57c31 0 52 -26 47 -57z" />
    <glyph glyph-name="ddotbelow" unicode="&#x1e0d;" horiz-adv-x="583" 
d="M572 38c-6 -37 -35 -38 -53 -38h-81c-39 0 -45 11 -40 44c-32 -24 -81 -50 -141 -50c-117 0 -198 99 -178 224c21 125 140 224 264 224c40 0 81 -12 114 -40l22 132h-43c-20 0 -48 1 -41 39c6 37 36 38 54 38h80c41 0 46 -12 40 -49l-81 -485h44c19 0 47 -1 40 -39z
M422 200l11 64c9 53 -36 101 -99 101c-79 0 -158 -64 -172 -147c-13 -80 36 -147 112 -147c77 0 139 75 148 129zM326 -137c-5 -29 -32 -57 -67 -57c-31 0 -53 26 -48 57c5 29 33 57 68 57c31 0 52 -26 47 -57z" />
    <glyph glyph-name="degree" unicode="&#xb0;" horiz-adv-x="394" 
d="M402 491c-11 -66 -76 -123 -139 -123c-73 0 -115 58 -104 122c11 65 71 122 138 122c73 0 115 -58 105 -121zM333 490c5 29 -13 53 -43 53c-27 0 -57 -22 -62 -52c-5 -29 14 -54 43 -54c28 0 57 24 62 53z" />
    <glyph glyph-name="Delta" unicode="&#x394;" horiz-adv-x="875" 
d="M820 27c-4 -24 -26 -27 -45 -27h-676c-19 0 -39 3 -35 27c0 4 1 9 11 23l384 537c24 33 44 36 71 36h22c39 0 49 -10 60 -39l204 -536c5 -12 4 -17 4 -21zM706 83l-177 467l-333 -467h510z" />
    <glyph glyph-name="diameter" unicode="&#x2300;" horiz-adv-x="817" 
d="M859 612c-2 -12 -9 -22 -17 -30l-81 -69c35 -58 49 -129 36 -207c-31 -186 -208 -338 -394 -338c-78 0 -145 26 -195 71l-81 -70c-9 -7 -20 -12 -32 -12c-23 0 -40 20 -36 43c2 12 9 22 17 30l82 69c-36 58 -50 129 -37 207c31 186 208 338 394 338c78 0 145 -26 196 -71
l80 70c9 7 20 12 32 12c23 0 40 -20 36 -43zM713 306c9 55 0 104 -23 146l-409 -352c36 -29 83 -47 138 -47c139 0 271 113 294 253zM637 512c-36 29 -83 47 -138 47c-139 0 -271 -113 -294 -253c-9 -55 0 -104 23 -146z" />
    <glyph glyph-name="dieresis" unicode="&#xa8;" 
d="M322 537c-5 -27 -29 -52 -62 -52c-28 0 -48 23 -43 52c4 26 28 53 61 53c29 0 48 -25 44 -53zM489 537c-5 -27 -29 -52 -62 -52c-28 0 -48 23 -43 52c4 26 28 53 61 53c29 0 48 -25 44 -53z" />
    <glyph glyph-name="uni0308" unicode="&#x308;" horiz-adv-x="0" 
d="M-196 537c-5 -27 -29 -52 -62 -52c-28 0 -48 23 -43 52c4 26 28 53 61 53c29 0 48 -25 44 -53zM-29 537c-5 -27 -29 -52 -62 -52c-28 0 -48 23 -43 52c4 26 28 53 61 53c29 0 48 -25 44 -53z" />
    <glyph glyph-name="discount" unicode="&#x2052;" 
d="M577 649c-2 -12 -22 -40 -30 -51l-396 -559c-15 -21 -31 -38 -53 -38c-23 0 -39 21 -36 43c2 11 17 32 27 46l399 562c13 19 31 41 56 41c24 0 37 -20 33 -44zM325 600c5 28 -13 48 -45 48c-22 -5 -44 -20 -49 -46c-4 -28 14 -47 46 -47c21 5 44 20 48 45zM408 91
c5 28 -13 48 -45 48c-22 -5 -44 -21 -48 -46c-5 -28 13 -47 45 -47c22 5 44 20 48 45z" />
    <glyph glyph-name="divide" unicode="&#xf7;" horiz-adv-x="817" 
d="M808 306c-7 -42 -45 -43 -60 -43h-592c-15 0 -53 1 -46 43c7 41 49 43 66 43h580c17 0 59 -2 52 -43zM544 475c-5 -32 -34 -57 -66 -57s-53 25 -48 57c6 32 35 57 67 57s53 -25 47 -57zM488 137c-5 -32 -35 -57 -67 -57s-52 25 -47 57s34 57 66 57s53 -25 48 -57z" />
    <glyph glyph-name="divorced" unicode="&#x26ae;" 
d="M220 308c-17 -104 -109 -220 -223 -220c-113 0 -175 110 -157 218c18 105 108 219 222 219c113 0 176 -110 158 -217zM785 306c-17 -103 -108 -218 -221 -218c-110 0 -176 108 -158 217c18 107 112 221 230 221c115 0 166 -117 149 -220zM302 -15c-3 -23 -9 -48 -53 -48
c-22 0 -39 8 -33 43l108 647c2 16 11 47 37 48c5 1 10 2 15 2c27 0 40 -14 34 -45zM137 305c11 66 -13 138 -85 138c-67 0 -121 -71 -131 -134c-12 -69 15 -139 85 -139c67 0 120 72 131 135zM705 304c11 69 -16 139 -85 139c-68 0 -119 -74 -130 -135
c-10 -63 17 -138 84 -138c68 0 118 66 131 134z" />
    <glyph glyph-name="Dlinebelow" unicode="&#x1e0e;" horiz-adv-x="788" 
d="M777 300c-27 -164 -192 -300 -370 -300h-312c-19 0 -48 1 -42 38c7 38 35 39 55 39h43l76 457h-43c-19 0 -48 2 -42 38c7 38 35 39 55 39h312c176 0 297 -140 268 -311zM694 301c21 122 -67 233 -215 233h-166l-76 -457h167c142 0 270 101 290 224zM467 -150
c-6 -37 -35 -39 -54 -39h-289c-20 0 -47 2 -41 40s35 39 54 39h290c20 0 46 -1 40 -40z" />
    <glyph glyph-name="dlinebelow" unicode="&#x1e0f;" horiz-adv-x="583" 
d="M572 38c-6 -37 -35 -38 -53 -38h-81c-39 0 -45 11 -40 44c-32 -24 -81 -50 -141 -50c-117 0 -198 99 -178 224c21 125 140 224 264 224c40 0 81 -12 114 -40l22 132h-43c-20 0 -48 1 -41 39c6 37 36 38 54 38h80c41 0 46 -12 40 -49l-81 -485h44c19 0 47 -1 40 -39z
M422 200l11 64c9 53 -36 101 -99 101c-79 0 -158 -64 -172 -147c-13 -80 36 -147 112 -147c77 0 139 75 148 129zM459 -150c-6 -37 -35 -39 -54 -39h-289c-20 0 -47 2 -41 40s35 39 54 39h290c20 0 46 -1 40 -40z" />
    <glyph glyph-name="dong" unicode="&#x20ab;" horiz-adv-x="583" 
d="M550 66c-6 -34 -35 -36 -52 -36h-77c-36 0 -43 10 -38 42c-31 -24 -77 -48 -134 -48c-111 0 -189 94 -169 213c20 120 133 214 251 214c38 0 76 -12 109 -38l8 51h-148c-20 0 -36 6 -32 27c3 20 21 27 41 27h148l4 19h-41c-20 0 -46 1 -40 38c6 35 33 36 52 36h76
c39 0 43 -11 37 -47l-8 -46h46c21 0 37 -7 34 -27c-4 -21 -22 -27 -43 -27h-46l-60 -360h42c18 0 46 -1 40 -38zM534 -31c-4 -22 -25 -39 -46 -39h-421c-21 0 -36 17 -32 39c3 21 24 38 45 38h421c21 0 36 -17 33 -38zM406 221l10 60c8 50 -34 96 -94 96
c-74 0 -149 -61 -162 -140c-13 -76 33 -139 105 -139c73 0 132 71 141 123z" />
    <glyph glyph-name="dotaccent" unicode="&#x2d9;" horiz-adv-x="292" 
d="M293 537c-5 -28 -33 -57 -68 -57c-31 0 -53 26 -47 57c4 29 32 57 67 57c31 0 53 -26 48 -57z" />
    <glyph glyph-name="uni0307" unicode="&#x307;" horiz-adv-x="0" 
d="M-108 537c-5 -28 -33 -57 -68 -57c-31 0 -53 26 -47 57c4 29 32 57 67 57c31 0 53 -26 48 -57z" />
    <glyph glyph-name="uni0323" unicode="&#x323;" horiz-adv-x="0" 
d="M-221 -137c-5 -29 -32 -57 -67 -57c-31 0 -53 26 -48 57c5 29 33 57 68 57c31 0 52 -26 47 -57z" />
    <glyph glyph-name="dotlessi" unicode="&#x131;" horiz-adv-x="292" 
d="M276 38c-6 -37 -35 -38 -53 -38h-164c-18 0 -47 1 -41 38c7 38 35 39 54 39h44l47 282h-39c-18 0 -48 2 -42 39c7 37 37 38 55 38h76c40 0 46 -12 40 -48l-52 -311h34c19 0 48 -2 41 -39z" />
    <glyph glyph-name="uni0237" unicode="&#x237;" horiz-adv-x="321" 
d="M208 -37c-13 -75 -66 -184 -174 -184c-77 0 -116 33 -108 82c5 34 35 54 61 54c11 0 50 -2 42 -59c3 -1 17 -1 21 -1c53 0 69 79 74 112l66 392h-53c-19 0 -48 2 -42 39c7 37 37 38 55 38h89c41 0 46 -12 40 -48z" />
    <glyph glyph-name="Eacute" unicode="&#xc9;" horiz-adv-x="700" 
d="M678 49c-6 -38 -17 -49 -56 -49h-528c-18 0 -48 1 -42 38c7 38 35 39 55 39h43l76 457h-43c-18 0 -48 2 -42 38c7 38 35 39 55 39h500c40 0 46 -12 40 -49l-12 -70c-4 -24 -9 -49 -51 -49c-41 0 -38 26 -34 49l7 42h-335l-30 -179h176c7 40 14 55 52 55
c40 0 37 -26 33 -49l-15 -90c-4 -23 -9 -49 -49 -49c-38 0 -40 15 -34 56h-176l-33 -201h363l10 58c4 24 9 49 51 49c41 0 37 -26 34 -49zM589 758c-2 -13 -9 -29 -40 -42l-138 -57c-8 -3 -14 -6 -22 -6c-31 0 -35 38 -33 48c3 22 18 29 36 36l138 58c14 6 23 6 23 6
c24 0 40 -18 36 -43z" />
    <glyph glyph-name="eacute" unicode="&#xe9;" horiz-adv-x="467" 
d="M459 115c-4 -27 -67 -121 -198 -121c-127 0 -210 101 -189 227c20 121 130 224 250 224c125 0 177 -94 156 -215c-7 -44 -29 -44 -55 -44h-269c5 -70 60 -115 126 -115c28 0 73 10 98 53c13 24 25 27 44 27c8 0 43 -1 37 -36zM397 261c4 86 -45 107 -88 107
c-57 0 -115 -44 -140 -107h228zM443 582c-2 -13 -9 -29 -40 -42l-139 -57c-7 -3 -14 -6 -22 -6c-31 0 -34 38 -33 48c4 22 18 29 36 36l139 58c14 6 23 6 23 6c24 0 40 -18 36 -43z" />
    <glyph glyph-name="Ebreve" unicode="&#x114;" horiz-adv-x="700" 
d="M678 49c-6 -38 -17 -49 -56 -49h-528c-18 0 -48 1 -42 38c7 38 35 39 55 39h43l76 457h-43c-18 0 -48 2 -42 38c7 38 35 39 55 39h500c40 0 46 -12 40 -49l-12 -70c-4 -24 -9 -49 -51 -49c-41 0 -38 26 -34 49l7 42h-335l-30 -179h176c7 40 14 55 52 55
c40 0 37 -26 33 -49l-15 -90c-4 -23 -9 -49 -49 -49c-38 0 -40 15 -34 56h-176l-33 -201h363l10 58c4 24 9 49 51 49c41 0 37 -26 34 -49zM654 741c-14 -84 -126 -88 -194 -88s-180 4 -166 88c4 24 22 39 46 39c30 0 32 -20 32 -35c2 -12 63 -12 101 -12c37 0 99 0 105 12
c6 15 14 35 44 35c25 0 36 -15 32 -39z" />
    <glyph glyph-name="ebreve" unicode="&#x115;" horiz-adv-x="467" 
d="M459 115c-4 -27 -67 -121 -198 -121c-127 0 -210 101 -189 227c20 121 130 224 250 224c125 0 177 -94 156 -215c-7 -44 -29 -44 -55 -44h-269c5 -70 60 -115 126 -115c28 0 73 10 98 53c13 24 25 27 44 27c8 0 43 -1 37 -36zM397 261c4 86 -45 107 -88 107
c-57 0 -115 -44 -140 -107h228zM510 576c-14 -84 -127 -88 -195 -88s-179 4 -165 88c4 24 21 39 45 39c30 0 32 -20 32 -35c2 -12 63 -12 101 -12c37 0 99 0 105 12c6 15 14 35 44 35c25 0 37 -15 33 -39z" />
    <glyph glyph-name="Ecaron" unicode="&#x11a;" horiz-adv-x="700" 
d="M678 49c-6 -38 -17 -49 -56 -49h-528c-18 0 -48 1 -42 38c7 38 35 39 55 39h43l76 457h-43c-18 0 -48 2 -42 38c7 38 35 39 55 39h500c40 0 46 -12 40 -49l-12 -70c-4 -24 -9 -49 -51 -49c-41 0 -38 26 -34 49l7 42h-335l-30 -179h176c7 40 14 55 52 55
c40 0 37 -26 33 -49l-15 -90c-4 -23 -9 -49 -49 -49c-38 0 -40 15 -34 56h-176l-33 -201h363l10 58c4 24 9 49 51 49c41 0 37 -26 34 -49zM623 722c-2 -14 -12 -28 -32 -35l-121 -42c-8 -2 -17 -2 -25 0l-107 42c-16 6 -21 20 -19 34c3 19 21 39 43 39c4 0 8 0 12 -2l98 -31
l108 31c6 2 10 2 14 2c21 0 32 -20 29 -38z" />
    <glyph glyph-name="ecaron" unicode="&#x11b;" horiz-adv-x="467" 
d="M459 115c-4 -27 -67 -121 -198 -121c-127 0 -210 101 -189 227c20 121 130 224 250 224c125 0 177 -94 156 -215c-7 -44 -29 -44 -55 -44h-269c5 -70 60 -115 126 -115c28 0 73 10 98 53c13 24 25 27 44 27c8 0 43 -1 37 -36zM397 261c4 86 -45 107 -88 107
c-57 0 -115 -44 -140 -107h228zM484 586c-1 -11 -8 -23 -23 -31l-127 -72c-12 -7 -30 -7 -40 0l-103 72c-11 8 -14 20 -13 31c4 20 25 39 46 39c6 0 12 -2 17 -6l86 -58l106 58c7 4 13 6 19 6c21 0 36 -19 32 -39z" />
    <glyph glyph-name="Ecircumflex" unicode="&#xca;" horiz-adv-x="700" 
d="M678 49c-6 -38 -17 -49 -56 -49h-528c-18 0 -48 1 -42 38c7 38 35 39 55 39h43l76 457h-43c-18 0 -48 2 -42 38c7 38 35 39 55 39h500c40 0 46 -12 40 -49l-12 -70c-4 -24 -9 -49 -51 -49c-41 0 -38 26 -34 49l7 42h-335l-30 -179h176c7 40 14 55 52 55
c40 0 37 -26 33 -49l-15 -90c-4 -23 -9 -49 -49 -49c-38 0 -40 15 -34 56h-176l-33 -201h363l10 58c4 24 9 49 51 49c41 0 37 -26 34 -49zM617 682c-4 -19 -21 -39 -43 -39c-4 0 -8 0 -13 2l-97 31l-109 -31c-5 -2 -9 -2 -13 -2c-21 0 -33 20 -30 38c3 14 13 28 32 35
l121 42c9 2 18 2 25 0l107 -42c16 -6 22 -20 20 -34z" />
    <glyph glyph-name="ecircumflex" unicode="&#xea;" horiz-adv-x="467" 
d="M459 115c-4 -27 -67 -121 -198 -121c-127 0 -210 101 -189 227c20 121 130 224 250 224c125 0 177 -94 156 -215c-7 -44 -29 -44 -55 -44h-269c5 -70 60 -115 126 -115c28 0 73 10 98 53c13 24 25 27 44 27c8 0 43 -1 37 -36zM397 261c4 86 -45 107 -88 107
c-57 0 -115 -44 -140 -107h228zM473 516c-4 -20 -25 -39 -46 -39c-6 0 -11 2 -17 6l-86 58l-106 -58c-6 -4 -13 -6 -19 -6c-21 0 -36 19 -32 39c2 11 9 23 23 31l127 72c12 7 30 7 40 0l103 -72c12 -8 15 -20 13 -31z" />
    <glyph glyph-name="Ecircumflexacute" unicode="&#x1ebe;" horiz-adv-x="700" 
d="M678 49c-6 -38 -17 -49 -56 -49h-528c-18 0 -48 1 -42 38c7 38 35 39 55 39h43l76 457h-43c-18 0 -48 2 -42 38c7 38 35 39 55 39h500c40 0 46 -12 40 -49l-12 -70c-4 -24 -9 -49 -51 -49c-41 0 -38 26 -34 49l7 42h-335l-30 -179h176c7 40 14 55 52 55
c40 0 37 -26 33 -49l-15 -90c-4 -23 -9 -49 -49 -49c-38 0 -40 15 -34 56h-176l-33 -201h363l10 58c4 24 9 49 51 49c41 0 37 -26 34 -49zM617 682c-4 -19 -21 -39 -43 -39c-4 0 -8 0 -13 2l-97 31l-109 -31c-5 -2 -9 -2 -13 -2c-21 0 -33 20 -30 38c3 14 13 28 32 35
l121 42c9 2 18 2 25 0l107 -42c16 -6 22 -20 20 -34zM610 884c-2 -13 -9 -29 -40 -42l-138 -57c-8 -3 -14 -6 -22 -6c-31 0 -35 38 -33 48c3 22 18 29 36 36l138 58c14 6 23 6 23 6c24 0 40 -18 36 -43z" />
    <glyph glyph-name="ecircumflexacute" unicode="&#x1ebf;" horiz-adv-x="467" 
d="M459 115c-4 -27 -67 -121 -198 -121c-127 0 -210 101 -189 227c20 121 130 224 250 224c125 0 177 -94 156 -215c-7 -44 -29 -44 -55 -44h-269c5 -70 60 -115 126 -115c28 0 73 10 98 53c13 24 25 27 44 27c8 0 43 -1 37 -36zM397 261c4 86 -45 107 -88 107
c-57 0 -115 -44 -140 -107h228zM472 517c-3 -19 -21 -39 -43 -39c-4 0 -8 0 -12 2l-98 31l-108 -31c-6 -2 -10 -2 -14 -2c-21 0 -32 20 -29 38c2 14 12 28 32 35l121 42c8 2 17 2 25 0l107 -42c16 -6 21 -20 19 -34zM466 719c-3 -13 -9 -29 -40 -42l-139 -57
c-7 -3 -14 -6 -22 -6c-31 0 -35 38 -33 48c4 22 18 29 36 36l139 58c14 6 23 6 23 6c24 0 40 -18 36 -43z" />
    <glyph glyph-name="Ecircumflexdotbelow" unicode="&#x1ec6;" horiz-adv-x="700" 
d="M678 49c-6 -38 -17 -49 -56 -49h-528c-18 0 -48 1 -42 38c7 38 35 39 55 39h43l76 457h-43c-18 0 -48 2 -42 38c7 38 35 39 55 39h500c40 0 46 -12 40 -49l-12 -70c-4 -24 -9 -49 -51 -49c-41 0 -38 26 -34 49l7 42h-335l-30 -179h176c7 40 14 55 52 55
c40 0 37 -26 33 -49l-15 -90c-4 -23 -9 -49 -49 -49c-38 0 -40 15 -34 56h-176l-33 -201h363l10 58c4 24 9 49 51 49c41 0 37 -26 34 -49zM617 682c-4 -19 -21 -39 -43 -39c-4 0 -8 0 -13 2l-97 31l-109 -31c-5 -2 -9 -2 -13 -2c-21 0 -33 20 -30 38c3 14 13 28 32 35
l121 42c9 2 18 2 25 0l107 -42c16 -6 22 -20 20 -34zM384 -137c-5 -29 -32 -57 -67 -57c-31 0 -53 26 -48 57c5 29 33 57 68 57c31 0 52 -26 47 -57z" />
    <glyph glyph-name="ecircumflexdotbelow" unicode="&#x1ec7;" horiz-adv-x="467" 
d="M459 115c-4 -27 -67 -121 -198 -121c-127 0 -210 101 -189 227c20 121 130 224 250 224c125 0 177 -94 156 -215c-7 -44 -29 -44 -55 -44h-269c5 -70 60 -115 126 -115c28 0 73 10 98 53c13 24 25 27 44 27c8 0 43 -1 37 -36zM397 261c4 86 -45 107 -88 107
c-57 0 -115 -44 -140 -107h228zM473 516c-4 -20 -25 -39 -46 -39c-6 0 -11 2 -17 6l-86 58l-106 -58c-6 -4 -13 -6 -19 -6c-21 0 -36 19 -32 39c2 11 9 23 23 31l127 72c12 7 30 7 40 0l103 -72c12 -8 15 -20 13 -31zM268 -137c-5 -29 -32 -57 -67 -57c-31 0 -53 26 -48 57
c5 29 33 57 68 57c31 0 52 -26 47 -57z" />
    <glyph glyph-name="Ecircumflexgrave" unicode="&#x1ec0;" horiz-adv-x="700" 
d="M678 49c-6 -38 -17 -49 -56 -49h-528c-18 0 -48 1 -42 38c7 38 35 39 55 39h43l76 457h-43c-18 0 -48 2 -42 38c7 38 35 39 55 39h500c40 0 46 -12 40 -49l-12 -70c-4 -24 -9 -49 -51 -49c-41 0 -38 26 -34 49l7 42h-335l-30 -179h176c7 40 14 55 52 55
c40 0 37 -26 33 -49l-15 -90c-4 -23 -9 -49 -49 -49c-38 0 -40 15 -34 56h-176l-33 -201h363l10 58c4 24 9 49 51 49c41 0 37 -26 34 -49zM617 682c-4 -19 -21 -39 -43 -39c-4 0 -8 0 -13 2l-97 31l-109 -31c-5 -2 -9 -2 -13 -2c-21 0 -33 20 -30 38c3 14 13 28 32 35
l121 42c9 2 18 2 25 0l107 -42c16 -6 22 -20 20 -34zM601 827c3 22 -8 29 -24 36l-120 58c-12 6 -21 6 -21 6c-24 0 -46 -18 -50 -43c-2 -13 -1 -29 26 -42l120 -57c6 -3 12 -6 20 -6c31 0 47 38 49 48z" />
    <glyph glyph-name="ecircumflexgrave" unicode="&#x1ec1;" horiz-adv-x="467" 
d="M459 115c-4 -27 -67 -121 -198 -121c-127 0 -210 101 -189 227c20 121 130 224 250 224c125 0 177 -94 156 -215c-7 -44 -29 -44 -55 -44h-269c5 -70 60 -115 126 -115c28 0 73 10 98 53c13 24 25 27 44 27c8 0 43 -1 37 -36zM397 261c4 86 -45 107 -88 107
c-57 0 -115 -44 -140 -107h228zM472 517c-3 -19 -21 -39 -43 -39c-4 0 -8 0 -12 2l-98 31l-108 -31c-6 -2 -10 -2 -14 -2c-21 0 -32 20 -29 38c2 14 12 28 32 35l121 42c8 2 17 2 25 0l107 -42c16 -6 21 -20 19 -34zM456 662c4 22 -8 29 -24 36l-119 58c-12 6 -21 6 -21 6
c-24 0 -46 -18 -50 -43c-3 -13 -1 -29 26 -42l119 -57c7 -3 12 -6 20 -6c31 0 47 38 49 48z" />
    <glyph glyph-name="Ecircumflexhookabove" unicode="&#x1ec2;" horiz-adv-x="700" 
d="M678 49c-6 -38 -17 -49 -56 -49h-528c-18 0 -48 1 -42 38c7 38 35 39 55 39h43l76 457h-43c-18 0 -48 2 -42 38c7 38 35 39 55 39h500c40 0 46 -12 40 -49l-12 -70c-4 -24 -9 -49 -51 -49c-41 0 -38 26 -34 49l7 42h-335l-30 -179h176c7 40 14 55 52 55
c40 0 37 -26 33 -49l-15 -90c-4 -23 -9 -49 -49 -49c-38 0 -40 15 -34 56h-176l-33 -201h363l10 58c4 24 9 49 51 49c41 0 37 -26 34 -49zM617 682c-4 -19 -21 -39 -43 -39c-4 0 -8 0 -13 2l-97 31l-109 -31c-5 -2 -9 -2 -13 -2c-21 0 -33 20 -30 38c3 14 13 28 32 35
l121 42c9 2 18 2 25 0l107 -42c16 -6 22 -20 20 -34zM720 913c-6 -28 -26 -51 -64 -70c-19 -10 -31 -20 -33 -31l-3 -17c-3 -20 -21 -36 -42 -36c-19 0 -33 16 -30 36l3 17c8 47 48 79 97 103c-3 9 -18 13 -41 13c-14 0 -25 -5 -29 -11c-5 -28 -26 -41 -44 -41
c-24 0 -34 19 -31 37c9 55 66 87 119 87c65 0 107 -33 98 -87z" />
    <glyph glyph-name="ecircumflexhookabove" unicode="&#x1ec3;" horiz-adv-x="467" 
d="M459 115c-4 -27 -67 -121 -198 -121c-127 0 -210 101 -189 227c20 121 130 224 250 224c125 0 177 -94 156 -215c-7 -44 -29 -44 -55 -44h-269c5 -70 60 -115 126 -115c28 0 73 10 98 53c13 24 25 27 44 27c8 0 43 -1 37 -36zM397 261c4 86 -45 107 -88 107
c-57 0 -115 -44 -140 -107h228zM472 517c-3 -19 -21 -39 -43 -39c-4 0 -8 0 -12 2l-98 31l-108 -31c-6 -2 -10 -2 -14 -2c-21 0 -32 20 -29 38c2 14 12 28 32 35l121 42c8 2 17 2 25 0l107 -42c16 -6 21 -20 19 -34zM575 748c-5 -28 -26 -51 -63 -70
c-20 -10 -32 -20 -33 -31l-3 -17c-4 -20 -21 -36 -42 -36c-19 0 -34 16 -30 36l3 17c7 47 48 79 97 103c-4 9 -19 13 -42 13c-14 0 -25 -5 -29 -11c-5 -28 -26 -41 -44 -41c-24 0 -34 19 -31 37c10 55 66 87 119 87c65 0 107 -33 98 -87z" />
    <glyph glyph-name="Ecircumflextilde" unicode="&#x1ec4;" horiz-adv-x="700" 
d="M678 49c-6 -38 -17 -49 -56 -49h-528c-18 0 -48 1 -42 38c7 38 35 39 55 39h43l76 457h-43c-18 0 -48 2 -42 38c7 38 35 39 55 39h500c40 0 46 -12 40 -49l-12 -70c-4 -24 -9 -49 -51 -49c-41 0 -38 26 -34 49l7 42h-335l-30 -179h176c7 40 14 55 52 55
c40 0 37 -26 33 -49l-15 -90c-4 -23 -9 -49 -49 -49c-38 0 -40 15 -34 56h-176l-33 -201h363l10 58c4 24 9 49 51 49c41 0 37 -26 34 -49zM617 682c-4 -19 -21 -39 -43 -39c-4 0 -8 0 -13 2l-97 31l-109 -31c-5 -2 -9 -2 -13 -2c-21 0 -33 20 -30 38c3 14 13 28 32 35
l121 42c9 2 18 2 25 0l107 -42c16 -6 22 -20 20 -34zM679 893c-3 -19 -38 -44 -61 -60c-27 -18 -59 -34 -87 -34c-36 0 -54 22 -66 36c-8 9 -16 18 -21 18c-12 0 -38 -16 -69 -41c-9 -7 -18 -13 -31 -13c-20 0 -36 20 -32 40c3 19 37 44 61 60c27 18 58 34 86 34
c36 0 55 -21 67 -35c8 -10 16 -18 21 -18c12 0 37 15 68 40c10 8 18 13 31 13c20 0 36 -20 33 -40z" />
    <glyph glyph-name="ecircumflextilde" unicode="&#x1ec5;" horiz-adv-x="467" 
d="M459 115c-4 -27 -67 -121 -198 -121c-127 0 -210 101 -189 227c20 121 130 224 250 224c125 0 177 -94 156 -215c-7 -44 -29 -44 -55 -44h-269c5 -70 60 -115 126 -115c28 0 73 10 98 53c13 24 25 27 44 27c8 0 43 -1 37 -36zM397 261c4 86 -45 107 -88 107
c-57 0 -115 -44 -140 -107h228zM472 517c-3 -19 -21 -39 -43 -39c-4 0 -8 0 -12 2l-98 31l-108 -31c-6 -2 -10 -2 -14 -2c-21 0 -32 20 -29 38c2 14 12 28 32 35l121 42c8 2 17 2 25 0l107 -42c16 -6 21 -20 19 -34zM534 728c-3 -19 -37 -44 -61 -60
c-27 -18 -59 -34 -87 -34c-36 0 -54 22 -66 36c-8 9 -16 18 -21 18c-12 0 -37 -16 -68 -41c-10 -7 -19 -13 -32 -13c-20 0 -35 20 -32 40c3 19 37 44 61 60c27 18 59 34 87 34c36 0 54 -21 66 -35c8 -10 16 -18 21 -18c12 0 37 15 69 40c9 8 18 13 31 13c20 0 35 -20 32 -40
z" />
    <glyph glyph-name="Edblgrave" unicode="&#x204;" horiz-adv-x="700" 
d="M678 49c-6 -38 -17 -49 -56 -49h-528c-18 0 -48 1 -42 38c7 38 35 39 55 39h43l76 457h-43c-18 0 -48 2 -42 38c7 38 35 39 55 39h500c40 0 46 -12 40 -49l-12 -70c-4 -24 -9 -49 -51 -49c-41 0 -38 26 -34 49l7 42h-335l-30 -179h176c7 40 14 55 52 55
c40 0 37 -26 33 -49l-15 -90c-4 -23 -9 -49 -49 -49c-38 0 -40 15 -34 56h-176l-33 -201h363l10 58c4 24 9 49 51 49c41 0 37 -26 34 -49zM637 699c-2 -17 -28 -46 -51 -46c-11 0 -15 2 -26 13l-59 54c-10 10 -19 18 -16 37c4 25 26 43 50 43c13 0 18 -3 29 -14l59 -54
c11 -11 17 -16 14 -33zM432 699c-2 -17 -28 -46 -51 -46c-11 0 -15 2 -26 13l-59 54c-10 10 -19 18 -16 37c4 25 26 43 50 43c13 0 18 -3 29 -14l59 -54c11 -11 17 -16 14 -33z" />
    <glyph glyph-name="edblgrave" unicode="&#x205;" horiz-adv-x="467" 
d="M459 115c-4 -27 -67 -121 -198 -121c-127 0 -210 101 -189 227c20 121 130 224 250 224c125 0 177 -94 156 -215c-7 -44 -29 -44 -55 -44h-269c5 -70 60 -115 126 -115c28 0 73 10 98 53c13 24 25 27 44 27c8 0 43 -1 37 -36zM397 261c4 86 -45 107 -88 107
c-57 0 -115 -44 -140 -107h228zM491 524c-3 -17 -29 -46 -52 -46c-11 0 -14 2 -25 13l-59 54c-11 10 -19 18 -16 37c4 25 26 43 50 43c13 0 17 -3 29 -14l59 -54c11 -11 17 -16 14 -33zM286 524c-3 -17 -29 -46 -52 -46c-11 0 -14 2 -25 13l-59 54c-11 10 -19 18 -16 37
c4 25 26 43 50 43c13 0 17 -3 29 -14l59 -54c11 -11 17 -16 14 -33z" />
    <glyph glyph-name="Edieresis" unicode="&#xcb;" horiz-adv-x="700" 
d="M678 49c-6 -38 -17 -49 -56 -49h-528c-18 0 -48 1 -42 38c7 38 35 39 55 39h43l76 457h-43c-18 0 -48 2 -42 38c7 38 35 39 55 39h500c40 0 46 -12 40 -49l-12 -70c-4 -24 -9 -49 -51 -49c-41 0 -38 26 -34 49l7 42h-335l-30 -179h176c7 40 14 55 52 55
c40 0 37 -26 33 -49l-15 -90c-4 -23 -9 -49 -49 -49c-38 0 -40 15 -34 56h-176l-33 -201h363l10 58c4 24 9 49 51 49c41 0 37 -26 34 -49zM421 695c-5 -27 -29 -52 -62 -52c-28 0 -48 23 -43 52c4 26 29 53 62 53c29 0 47 -25 43 -53zM618 695c-5 -27 -29 -52 -62 -52
c-28 0 -48 23 -43 52c4 26 29 53 62 53c29 0 47 -25 43 -53z" />
    <glyph glyph-name="edieresis" unicode="&#xeb;" horiz-adv-x="467" 
d="M459 115c-4 -27 -67 -121 -198 -121c-127 0 -210 101 -189 227c20 121 130 224 250 224c125 0 177 -94 156 -215c-7 -44 -29 -44 -55 -44h-269c5 -70 60 -115 126 -115c28 0 73 10 98 53c13 24 25 27 44 27c8 0 43 -1 37 -36zM397 261c4 86 -45 107 -88 107
c-57 0 -115 -44 -140 -107h228zM295 551c-5 -27 -29 -52 -62 -52c-28 0 -48 23 -43 52c4 26 28 53 61 53c29 0 48 -25 44 -53zM462 551c-5 -27 -29 -52 -62 -52c-28 0 -48 23 -43 52c4 26 28 53 61 53c29 0 48 -25 44 -53z" />
    <glyph glyph-name="Edotaccent" unicode="&#x116;" horiz-adv-x="700" 
d="M678 49c-6 -38 -17 -49 -56 -49h-528c-18 0 -48 1 -42 38c7 38 35 39 55 39h43l76 457h-43c-18 0 -48 2 -42 38c7 38 35 39 55 39h500c40 0 46 -12 40 -49l-12 -70c-4 -24 -9 -49 -51 -49c-41 0 -38 26 -34 49l7 42h-335l-30 -179h176c7 40 14 55 52 55
c40 0 37 -26 33 -49l-15 -90c-4 -23 -9 -49 -49 -49c-38 0 -40 15 -34 56h-176l-33 -201h363l10 58c4 24 9 49 51 49c41 0 37 -26 34 -49zM526 711c-5 -28 -33 -57 -68 -57c-31 0 -53 26 -47 57c4 29 32 57 67 57c31 0 53 -26 48 -57z" />
    <glyph glyph-name="edotaccent" unicode="&#x117;" horiz-adv-x="467" 
d="M459 115c-4 -27 -67 -121 -198 -121c-127 0 -210 101 -189 227c20 121 130 224 250 224c125 0 177 -94 156 -215c-7 -44 -29 -44 -55 -44h-269c5 -70 60 -115 126 -115c28 0 73 10 98 53c13 24 25 27 44 27c8 0 43 -1 37 -36zM397 261c4 86 -45 107 -88 107
c-57 0 -115 -44 -140 -107h228zM383 551c-5 -28 -33 -57 -68 -57c-31 0 -53 26 -47 57c4 29 32 57 67 57c31 0 53 -26 48 -57z" />
    <glyph glyph-name="Edotbelow" unicode="&#x1eb8;" horiz-adv-x="700" 
d="M678 49c-6 -38 -17 -49 -56 -49h-528c-18 0 -48 1 -42 38c7 38 35 39 55 39h43l76 457h-43c-18 0 -48 2 -42 38c7 38 35 39 55 39h500c40 0 46 -12 40 -49l-12 -70c-4 -24 -9 -49 -51 -49c-41 0 -38 26 -34 49l7 42h-335l-30 -179h176c7 40 14 55 52 55
c40 0 37 -26 33 -49l-15 -90c-4 -23 -9 -49 -49 -49c-38 0 -40 15 -34 56h-176l-33 -201h363l10 58c4 24 9 49 51 49c41 0 37 -26 34 -49zM384 -137c-5 -29 -32 -57 -67 -57c-31 0 -53 26 -48 57c5 29 33 57 68 57c31 0 52 -26 47 -57z" />
    <glyph glyph-name="edotbelow" unicode="&#x1eb9;" horiz-adv-x="467" 
d="M459 115c-4 -27 -67 -121 -198 -121c-127 0 -210 101 -189 227c20 121 130 224 250 224c125 0 177 -94 156 -215c-7 -44 -29 -44 -55 -44h-269c5 -70 60 -115 126 -115c28 0 73 10 98 53c13 24 25 27 44 27c8 0 43 -1 37 -36zM397 261c4 86 -45 107 -88 107
c-57 0 -115 -44 -140 -107h228zM268 -137c-5 -29 -32 -57 -67 -57c-31 0 -53 26 -48 57c5 29 33 57 68 57c31 0 52 -26 47 -57z" />
    <glyph glyph-name="Egrave" unicode="&#xc8;" horiz-adv-x="700" 
d="M678 49c-6 -38 -17 -49 -56 -49h-528c-18 0 -48 1 -42 38c7 38 35 39 55 39h43l76 457h-43c-18 0 -48 2 -42 38c7 38 35 39 55 39h500c40 0 46 -12 40 -49l-12 -70c-4 -24 -9 -49 -51 -49c-41 0 -38 26 -34 49l7 42h-335l-30 -179h176c7 40 14 55 52 55
c40 0 37 -26 33 -49l-15 -90c-4 -23 -9 -49 -49 -49c-38 0 -40 15 -34 56h-176l-33 -201h363l10 58c4 24 9 49 51 49c41 0 37 -26 34 -49zM579 701c-2 -10 -18 -48 -49 -48c-8 0 -14 3 -20 6l-120 57c-27 13 -28 29 -26 42c4 25 26 43 50 43c0 0 9 0 21 -6l120 -58
c16 -7 27 -14 24 -36z" />
    <glyph glyph-name="egrave" unicode="&#xe8;" horiz-adv-x="467" 
d="M459 115c-4 -27 -67 -121 -198 -121c-127 0 -210 101 -189 227c20 121 130 224 250 224c125 0 177 -94 156 -215c-7 -44 -29 -44 -55 -44h-269c5 -70 60 -115 126 -115c28 0 73 10 98 53c13 24 25 27 44 27c8 0 43 -1 37 -36zM397 261c4 86 -45 107 -88 107
c-57 0 -115 -44 -140 -107h228zM432 525c-1 -10 -18 -48 -49 -48c-8 0 -13 3 -20 6l-119 57c-27 13 -28 29 -26 42c4 25 26 43 50 43c0 0 9 0 21 -6l119 -58c16 -7 28 -14 24 -36z" />
    <glyph glyph-name="Ehookabove" unicode="&#x1eba;" horiz-adv-x="700" 
d="M678 49c-6 -38 -17 -49 -56 -49h-528c-18 0 -48 1 -42 38c7 38 35 39 55 39h43l76 457h-43c-18 0 -48 2 -42 38c7 38 35 39 55 39h500c40 0 46 -12 40 -49l-12 -70c-4 -24 -9 -49 -51 -49c-41 0 -38 26 -34 49l7 42h-335l-30 -179h176c7 40 14 55 52 55
c40 0 37 -26 33 -49l-15 -90c-4 -23 -9 -49 -49 -49c-38 0 -40 15 -34 56h-176l-33 -201h363l10 58c4 24 9 49 51 49c41 0 37 -26 34 -49zM593 808c-6 -28 -27 -51 -64 -70c-20 -10 -31 -20 -33 -31l-3 -17c-3 -20 -21 -36 -42 -36c-19 0 -33 16 -30 36l3 17
c8 47 48 79 97 103c-3 9 -19 13 -42 13c-14 0 -25 -5 -29 -11c-4 -28 -25 -41 -43 -41c-24 0 -34 19 -31 37c9 55 65 87 118 87c65 0 108 -33 99 -87z" />
    <glyph glyph-name="ehookabove" unicode="&#x1ebb;" horiz-adv-x="467" 
d="M459 115c-4 -27 -67 -121 -198 -121c-127 0 -210 101 -189 227c20 121 130 224 250 224c125 0 177 -94 156 -215c-7 -44 -29 -44 -55 -44h-269c5 -70 60 -115 126 -115c28 0 73 10 98 53c13 24 25 27 44 27c8 0 43 -1 37 -36zM397 261c4 86 -45 107 -88 107
c-57 0 -115 -44 -140 -107h228zM439 585c-5 -28 -26 -51 -63 -70c-20 -10 -32 -20 -34 -31l-2 -17c-4 -20 -21 -36 -42 -36c-19 0 -34 16 -30 36l2 17c8 47 49 79 98 103c-4 9 -19 13 -42 13c-14 0 -25 -5 -29 -11c-5 -28 -26 -41 -44 -41c-24 0 -34 19 -31 37
c9 55 66 87 119 87c65 0 107 -33 98 -87z" />
    <glyph glyph-name="ellipsis" unicode="&#x2026;" horiz-adv-x="680" 
d="M213 57c-6 -32 -35 -57 -67 -57s-53 25 -47 57c5 32 34 58 66 58s53 -26 48 -58zM407 57c-6 -32 -35 -57 -67 -57s-53 25 -47 57c5 32 34 58 66 58s53 -26 48 -58zM601 57c-6 -32 -35 -57 -67 -57s-53 25 -47 57c5 32 34 58 66 58s53 -26 48 -58z" />
    <glyph glyph-name="Emacron" unicode="&#x112;" horiz-adv-x="700" 
d="M678 49c-6 -38 -17 -49 -56 -49h-528c-18 0 -48 1 -42 38c7 38 35 39 55 39h43l76 457h-43c-18 0 -48 2 -42 38c7 38 35 39 55 39h500c40 0 46 -12 40 -49l-12 -70c-4 -24 -9 -49 -51 -49c-41 0 -38 26 -34 49l7 42h-335l-30 -179h176c7 40 14 55 52 55
c40 0 37 -26 33 -49l-15 -90c-4 -23 -9 -49 -49 -49c-38 0 -40 15 -34 56h-176l-33 -201h363l10 58c4 24 9 49 51 49c41 0 37 -26 34 -49zM660 702c-6 -37 -35 -39 -54 -39h-289c-20 0 -47 2 -41 40s35 39 54 39h290c20 0 46 -1 40 -40z" />
    <glyph glyph-name="emacron" unicode="&#x113;" horiz-adv-x="467" 
d="M459 115c-4 -27 -67 -121 -198 -121c-127 0 -210 101 -189 227c20 121 130 224 250 224c125 0 177 -94 156 -215c-7 -44 -29 -44 -55 -44h-269c5 -70 60 -115 126 -115c28 0 73 10 98 53c13 24 25 27 44 27c8 0 43 -1 37 -36zM397 261c4 86 -45 107 -88 107
c-57 0 -115 -44 -140 -107h228zM518 551c-7 -37 -35 -39 -54 -39h-289c-20 0 -48 2 -41 40c6 38 34 39 53 39h290c20 0 47 -1 41 -40z" />
    <glyph glyph-name="emdash" unicode="&#x2014;" horiz-adv-x="1050" 
d="M1088 267c-6 -36 -37 -38 -55 -38h-941c-18 0 -47 2 -41 38c6 38 34 39 54 39h941c20 0 48 -1 42 -39z" />
    <glyph glyph-name="endash" unicode="&#x2013;" 
d="M570 267c-6 -36 -36 -38 -54 -38h-432c-18 0 -46 2 -40 38c6 38 34 39 53 39h432c19 0 47 -1 41 -39z" />
    <glyph glyph-name="Eng" unicode="&#x14a;" horiz-adv-x="758" 
d="M773 306c-27 -160 -130 -317 -273 -317c-29 0 -47 24 -42 52s30 51 59 51c12 0 24 -4 32 -12c77 24 121 126 138 226c21 125 -59 230 -182 230c-102 0 -214 -32 -241 -115l-57 -344h44c19 0 47 -1 40 -39c-6 -37 -35 -38 -53 -38h-172c-18 0 -48 1 -42 38
c7 38 36 39 55 39h44l76 457h-44c-18 0 -48 2 -42 38c7 38 36 39 55 39h81c40 0 45 -12 39 -49l-1 -4c65 42 150 64 233 64c171 0 282 -143 253 -316z" />
    <glyph glyph-name="eng" unicode="&#x14b;" horiz-adv-x="583" 
d="M519 68c-11 -70 -30 -142 -63 -198c-31 -57 -77 -96 -140 -96c-23 0 -40 18 -36 42s27 43 50 43c70 0 89 114 105 209l37 218c8 48 4 79 -57 79c-50 0 -133 -31 -149 -126l-27 -162h43c20 0 48 -1 41 -39c-6 -37 -35 -38 -54 -38h-172c-18 0 -47 1 -41 38
c7 38 35 39 54 39h44l47 282h-44c-18 0 -47 2 -41 38c7 38 35 39 54 39h81c39 0 44 -11 40 -39c42 28 91 45 143 45c84 0 141 -39 123 -151z" />
    <glyph glyph-name="Eogonek" unicode="&#x118;" horiz-adv-x="700" 
d="M678 49c-6 -38 -17 -49 -56 -49h-63c-52 -28 -68 -60 -74 -98c-3 -18 15 -29 29 -29c6 0 13 2 21 7c40 34 61 54 78 32c12 -14 10 -37 -1 -48c-31 -35 -75 -61 -114 -61c-67 0 -96 55 -88 101c6 39 29 71 62 96h-378c-18 0 -48 1 -42 38c7 38 35 39 55 39h43l76 457h-43
c-18 0 -48 2 -42 38c7 38 35 39 55 39h500c40 0 46 -12 40 -49l-12 -70c-4 -24 -9 -49 -51 -49c-41 0 -38 26 -34 49l7 42h-335l-30 -179h176c7 40 14 55 52 55c40 0 37 -26 33 -49l-15 -90c-4 -23 -9 -49 -49 -49c-38 0 -40 15 -34 56h-176l-33 -201h363l10 58
c4 24 9 49 51 49c41 0 37 -26 34 -49z" />
    <glyph glyph-name="eogonek" unicode="&#x119;" horiz-adv-x="467" 
d="M459 115c-5 -34 -60 -100 -156 -120c-53 -28 -68 -54 -74 -93c-3 -18 15 -29 29 -29c6 0 13 2 21 7c40 34 61 54 78 32c12 -14 10 -37 -1 -48c-31 -35 -75 -61 -114 -61c-67 0 -96 55 -88 101c7 41 27 71 60 96c-100 21 -160 112 -142 221c20 121 130 224 250 224
c125 0 177 -94 156 -215c-7 -44 -29 -44 -55 -44h-269c5 -70 60 -115 126 -115c28 0 73 10 98 53c13 24 25 27 44 27c8 0 43 -1 37 -36zM397 261c4 86 -45 107 -88 107c-57 0 -115 -44 -140 -107h228z" />
    <glyph glyph-name="Epsilon" unicode="&#x395;" horiz-adv-x="700" 
d="M678 49c-6 -38 -17 -49 -56 -49h-528c-18 0 -48 1 -42 38c7 38 35 39 55 39h43l76 457h-43c-18 0 -48 2 -42 38c7 38 35 39 55 39h500c40 0 46 -12 40 -49l-12 -70c-4 -24 -9 -49 -51 -49c-41 0 -38 26 -34 49l7 42h-335l-30 -179h176c7 40 14 55 52 55
c40 0 37 -26 33 -49l-15 -90c-4 -23 -9 -49 -49 -49c-38 0 -40 15 -34 56h-176l-33 -201h363l10 58c4 24 9 49 51 49c41 0 37 -26 34 -49z" />
    <glyph glyph-name="Ereversed" unicode="&#x18e;" horiz-adv-x="700" 
d="M676 38c-6 -37 -36 -38 -54 -38h-528c-39 0 -46 11 -40 49l15 86c3 23 9 49 50 49c42 0 39 -25 35 -49l-10 -58h363l33 201h-176c-6 -41 -14 -56 -52 -56c-40 0 -37 26 -33 49l15 90c4 23 9 49 49 49c38 0 41 -15 34 -55h176l30 179h-335l-7 -42c-4 -23 -9 -49 -50 -49
c-42 0 -39 25 -35 49l12 70c6 37 16 49 56 49h500c20 0 48 -1 41 -39c-6 -36 -36 -38 -54 -38h-43l-76 -457h43c20 0 48 -1 41 -39z" />
    <glyph glyph-name="ereversed" unicode="&#x258;" horiz-adv-x="467" 
d="M477 221c-21 -126 -138 -227 -265 -227c-131 0 -162 94 -158 121c6 35 41 36 49 36c19 0 31 -3 36 -27c11 -43 52 -53 80 -53c66 0 135 45 164 115h-269c-26 0 -48 0 -41 44c21 121 103 215 228 215c120 0 196 -103 176 -224zM394 261c-5 63 -49 107 -106 107
c-43 0 -98 -21 -122 -107h228z" />
    <glyph glyph-name="estimated" unicode="&#x212e;" horiz-adv-x="700" 
d="M690 118c-2 -11 -9 -21 -16 -29c-75 -91 -193 -94 -287 -94c-198 0 -327 139 -297 314c33 202 226 312 385 312c194 0 276 -134 249 -295c-3 -22 -14 -43 -49 -43h-503c-1 -20 2 -39 7 -57c29 -103 123 -154 228 -154c51 0 125 0 176 36c25 17 64 44 68 44
c23 0 40 -10 39 -34zM642 358c16 129 -85 186 -182 186c-111 0 -230 -76 -271 -186h453z" />
    <glyph glyph-name="Eta" unicode="&#x397;" horiz-adv-x="758" 
d="M716 38c-6 -37 -35 -38 -53 -38h-172c-19 0 -48 1 -42 38c7 38 35 39 55 39h43l34 202h-311l-34 -202h43c20 0 48 -1 41 -39c-6 -37 -35 -38 -54 -38h-172c-18 0 -47 1 -41 38c7 38 35 39 54 39h44l76 457h-44c-18 0 -47 2 -41 38c7 38 35 39 54 39h172
c20 0 48 -1 41 -39c-6 -36 -35 -38 -54 -38h-43l-30 -178h311l30 178h-43c-19 0 -48 2 -42 38c7 38 35 39 55 39h172c19 0 47 -1 40 -39c-6 -36 -35 -38 -53 -38h-44l-76 -457h44c19 0 47 -1 40 -39z" />
    <glyph glyph-name="Eth" unicode="&#xd0;" horiz-adv-x="788" 
d="M777 300c-27 -164 -192 -300 -370 -300h-312c-19 0 -48 1 -42 38c7 38 35 39 55 39h43l32 190h-48c-22 0 -37 16 -33 39c4 21 24 39 46 39h48l31 189h-43c-19 0 -48 2 -42 38c7 38 35 39 55 39h312c176 0 297 -140 268 -311zM694 301c21 122 -67 233 -215 233h-166
l-31 -189h171c21 0 36 -18 32 -39c-4 -23 -24 -39 -45 -39h-171l-32 -190h167c142 0 270 101 290 224z" />
    <glyph glyph-name="eth" unicode="&#xf0;" 
d="M525 219c-10 -60 -44 -118 -93 -159c-48 -41 -108 -66 -171 -66c-124 0 -209 99 -188 225c20 123 137 226 263 226c40 0 76 -10 105 -28c-17 53 -48 100 -90 134l-102 -40c-6 -2 -11 -3 -17 -3c-23 0 -38 16 -34 37c3 17 16 32 33 39l36 13c-21 7 -42 12 -65 14
c-21 3 -34 19 -31 39c4 22 26 39 49 39c58 0 108 -22 155 -50l113 44c6 2 11 3 17 3c22 0 38 -16 34 -37c-3 -17 -17 -32 -33 -39l-64 -24c76 -78 112 -191 91 -317zM442 225c13 83 -43 143 -119 143s-152 -60 -165 -143c-14 -83 36 -154 116 -154c79 0 154 71 168 154z" />
    <glyph glyph-name="Etilde" unicode="&#x1ebc;" horiz-adv-x="700" 
d="M678 49c-6 -38 -17 -49 -56 -49h-528c-18 0 -48 1 -42 38c7 38 35 39 55 39h43l76 457h-43c-18 0 -48 2 -42 38c7 38 35 39 55 39h500c40 0 46 -12 40 -49l-12 -70c-4 -24 -9 -49 -51 -49c-41 0 -38 26 -34 49l7 42h-335l-30 -179h176c7 40 14 55 52 55
c40 0 37 -26 33 -49l-15 -90c-4 -23 -9 -49 -49 -49c-38 0 -40 15 -34 56h-176l-33 -201h363l10 58c4 24 9 49 51 49c41 0 37 -26 34 -49zM653 737c-3 -19 -38 -44 -61 -60c-27 -18 -59 -34 -87 -34c-36 0 -54 22 -66 36c-8 9 -16 18 -21 18c-12 0 -38 -16 -69 -41
c-9 -7 -18 -13 -31 -13c-20 0 -36 20 -32 40c3 19 37 44 61 60c27 18 58 34 86 34c36 0 55 -21 67 -35c8 -10 16 -18 21 -18c12 0 37 15 68 40c10 8 18 13 31 13c20 0 36 -20 33 -40z" />
    <glyph glyph-name="etilde" unicode="&#x1ebd;" horiz-adv-x="467" 
d="M459 115c-4 -27 -67 -121 -198 -121c-127 0 -210 101 -189 227c20 121 130 224 250 224c125 0 177 -94 156 -215c-7 -44 -29 -44 -55 -44h-269c5 -70 60 -115 126 -115c28 0 73 10 98 53c13 24 25 27 44 27c8 0 43 -1 37 -36zM397 261c4 86 -45 107 -88 107
c-57 0 -115 -44 -140 -107h228zM509 578c-3 -19 -37 -44 -61 -60c-27 -18 -59 -34 -87 -34c-36 0 -54 22 -66 36c-8 9 -16 18 -21 18c-12 0 -37 -16 -68 -41c-10 -7 -19 -13 -32 -13c-20 0 -35 20 -32 40c3 19 37 44 61 60c27 18 59 34 87 34c36 0 54 -21 66 -35
c8 -10 16 -18 21 -18c12 0 37 15 69 40c9 8 18 13 31 13c20 0 35 -20 32 -40z" />
    <glyph glyph-name="eturned" unicode="&#x1dd;" horiz-adv-x="467" 
d="M476 218c-20 -121 -130 -224 -250 -224c-125 0 -176 94 -156 215c7 44 29 44 55 44h269c-5 70 -60 115 -126 115c-28 0 -72 -10 -97 -53c-13 -24 -26 -27 -45 -27c-8 0 -43 1 -37 36c5 27 67 121 198 121c127 0 210 -101 189 -227zM380 178h-228c-5 -86 44 -107 87 -107
c57 0 115 44 141 107z" />
    <glyph glyph-name="Euro" unicode="&#x20ac;" horiz-adv-x="657" 
d="M604 26c-3 -20 -23 -37 -43 -37h-4c-12 0 -22 6 -27 17l-5 8c-39 -17 -85 -25 -129 -25c-78 0 -146 36 -187 95c-25 35 -41 76 -47 121h-37c-20 0 -32 20 -23 41l9 15c6 12 19 22 33 22h17c1 7 2 15 3 23s4 16 6 23h-24c-20 0 -33 21 -23 41l8 16c6 12 20 21 34 21h31
c20 44 50 85 87 120c61 59 141 95 219 95c44 0 87 -8 121 -25l7 8c9 11 21 17 33 17h4c20 0 34 -17 31 -37l-15 -88c-3 -20 -23 -37 -43 -37h-12c-17 0 -30 13 -32 34c-3 41 -53 50 -100 50c-56 0 -113 -26 -156 -68c-21 -21 -39 -44 -54 -69h269c22 0 33 -21 23 -42l-8 -15
c-6 -12 -19 -21 -32 -21h-283c-2 -8 -4 -15 -5 -23s-3 -16 -3 -23h246c21 0 33 -22 22 -42l-8 -16c-6 -12 -18 -20 -33 -20h-222c6 -26 17 -49 32 -70c29 -42 76 -68 132 -68c47 0 101 9 118 50c8 21 25 34 42 34h12c20 0 34 -17 31 -37z" />
    <glyph glyph-name="exclamdown" unicode="&#xa1;" horiz-adv-x="292" 
d="M259 338c-5 -32 -34 -57 -66 -57s-53 25 -48 57c6 32 35 57 67 57s53 -25 47 -57zM176 -162c-10 -60 -58 -64 -68 -64s-56 4 -46 64c8 51 21 105 31 155l31 169c11 46 17 55 58 55c15 0 46 -2 43 -33l-17 -119z" />
    <glyph glyph-name="florin" unicode="&#x192;" horiz-adv-x="321" 
d="M458 550c-6 -33 -36 -52 -60 -52c-31 0 -40 27 -42 42c-28 0 -78 -5 -88 -67l-6 -37h70c19 0 48 -1 41 -39c-6 -36 -36 -38 -54 -38h-70l-47 -282h67c19 0 48 -1 41 -39c-6 -37 -36 -38 -54 -38h-195c-18 0 -48 1 -42 38c7 38 35 39 55 39h44l47 282h-34
c-18 0 -47 2 -41 38c7 38 36 39 55 39h33l7 43c15 90 100 138 183 138c16 0 101 -2 90 -67z" />
    <glyph glyph-name="fraction" unicode="&#x2044;" horiz-adv-x="607" 
d="M636 594c-2 -10 -15 -29 -21 -36l-501 -556c-10 -10 -17 -17 -31 -17c-17 0 -28 10 -24 33c2 10 19 28 25 36l500 554c9 10 24 18 37 18c10 0 19 -9 15 -32z" />
    <glyph glyph-name="fraction.alt" unicode="&#x2215;" horiz-adv-x="0" 
d="M340 594c-2 -10 -15 -29 -21 -36l-501 -556c-10 -10 -17 -17 -31 -17c-17 0 -28 10 -24 33c2 10 19 28 25 36l500 554c9 10 24 18 37 18c10 0 19 -9 15 -32z" />
    <glyph glyph-name="Gacute" unicode="&#x1f4;" horiz-adv-x="817" 
d="M811 241c-6 -36 -37 -38 -55 -38h-22l-26 -154c-4 -23 -9 -49 -50 -49c-42 0 -39 25 -35 49l3 15c-46 -35 -123 -75 -222 -75c-191 0 -323 142 -294 317c28 168 202 316 402 316c89 0 155 -26 193 -56c8 13 13 19 18 27c11 18 20 29 43 29c36 0 33 -29 30 -49l-23 -135
c-4 -24 -9 -48 -51 -48c-11 0 -34 0 -36 29c-2 25 -6 63 -53 94c-31 20 -77 32 -127 32c-153 0 -289 -109 -311 -240s80 -239 227 -239c96 0 186 55 222 137h-75c-19 0 -47 1 -41 39c6 36 36 38 54 38h187c19 0 48 -2 42 -39zM647 758c-2 -13 -9 -29 -40 -42l-138 -57
c-8 -3 -14 -6 -22 -6c-31 0 -35 38 -33 48c3 22 18 29 36 36l138 58c14 6 23 6 23 6c24 0 40 -18 36 -43z" />
    <glyph glyph-name="gacute" unicode="&#x1f5;" 
d="M575 386c-5 -35 -36 -49 -56 -49c-11 0 -34 7 -38 32c-11 -1 -25 -4 -40 -10c11 -26 13 -53 8 -81c-15 -91 -102 -165 -196 -165c-37 0 -65 12 -79 20c-3 -6 -4 -14 -4 -14s-2 -19 4 -30c7 -10 12 -10 25 -10c7 -2 19 -2 27 -2h68c90 0 128 -22 140 -29
c48 -28 58 -80 51 -119c-14 -86 -130 -151 -260 -151s-224 64 -210 151c2 11 13 77 89 123c-6 14 -12 37 -7 67c5 29 15 50 28 66c-11 20 -20 52 -14 93c15 87 101 164 197 164c43 0 73 -16 89 -27c50 31 98 32 109 32c60 0 74 -36 69 -61zM364 278c8 47 -22 88 -70 88
c-46 0 -91 -39 -100 -89c-8 -47 22 -89 70 -89c46 0 92 40 100 90zM411 -71c13 75 -92 75 -174 75c-68 0 -77 0 -102 -14c-31 -18 -43 -45 -46 -61c-7 -40 57 -76 148 -76s167 36 174 76zM436 584c-2 -13 -9 -29 -40 -42l-139 -57c-7 -3 -14 -6 -22 -6c-31 0 -34 38 -33 48
c4 22 18 29 36 36l139 58c14 6 23 6 23 6c24 0 40 -18 36 -43z" />
    <glyph glyph-name="Gamma" unicode="&#x393;" horiz-adv-x="642" 
d="M680 492c-4 -24 -9 -49 -51 -49c-41 0 -38 26 -34 49l7 42h-292l-76 -457h67c19 0 48 -1 41 -39c-6 -37 -36 -38 -54 -38h-195c-19 0 -48 1 -42 38c7 38 35 39 55 39h43l76 457h-43c-19 0 -48 2 -42 38c7 38 35 39 55 39h457c41 0 46 -12 40 -49z" />
    <glyph glyph-name="Gbreve" unicode="&#x11e;" horiz-adv-x="817" 
d="M811 241c-6 -36 -37 -38 -55 -38h-22l-26 -154c-4 -23 -9 -49 -50 -49c-42 0 -39 25 -35 49l3 15c-46 -35 -123 -75 -222 -75c-191 0 -323 142 -294 317c28 168 202 316 402 316c89 0 155 -26 193 -56c8 13 13 19 18 27c11 18 20 29 43 29c36 0 33 -29 30 -49l-23 -135
c-4 -24 -9 -48 -51 -48c-11 0 -34 0 -36 29c-2 25 -6 63 -53 94c-31 20 -77 32 -127 32c-153 0 -289 -109 -311 -240s80 -239 227 -239c96 0 186 55 222 137h-75c-19 0 -47 1 -41 39c6 36 36 38 54 38h187c19 0 48 -2 42 -39zM712 741c-14 -84 -126 -88 -194 -88
s-180 4 -166 88c4 24 22 39 46 39c30 0 32 -20 32 -35c2 -12 63 -12 101 -12c37 0 99 0 105 12c6 15 14 35 44 35c25 0 36 -15 32 -39z" />
    <glyph glyph-name="gbreve" unicode="&#x11f;" 
d="M575 386c-5 -35 -36 -49 -56 -49c-11 0 -34 7 -38 32c-11 -1 -25 -4 -40 -10c11 -26 13 -53 8 -81c-15 -91 -102 -165 -196 -165c-37 0 -65 12 -79 20c-3 -6 -4 -14 -4 -14s-2 -19 4 -30c7 -10 12 -10 25 -10c7 -2 19 -2 27 -2h68c90 0 128 -22 140 -29
c48 -28 58 -80 51 -119c-14 -86 -130 -151 -260 -151s-224 64 -210 151c2 11 13 77 89 123c-6 14 -12 37 -7 67c5 29 15 50 28 66c-11 20 -20 52 -14 93c15 87 101 164 197 164c43 0 73 -16 89 -27c50 31 98 32 109 32c60 0 74 -36 69 -61zM364 278c8 47 -22 88 -70 88
c-46 0 -91 -39 -100 -89c-8 -47 22 -89 70 -89c46 0 92 40 100 90zM411 -71c13 75 -92 75 -174 75c-68 0 -77 0 -102 -14c-31 -18 -43 -45 -46 -61c-7 -40 57 -76 148 -76s167 36 174 76zM503 578c-14 -84 -127 -88 -195 -88s-179 4 -165 88c4 24 21 39 45 39
c30 0 32 -20 32 -35c2 -12 63 -12 101 -12c37 0 99 0 105 12c6 15 14 35 44 35c25 0 37 -15 33 -39z" />
    <glyph glyph-name="Gcaron" unicode="&#x1e6;" horiz-adv-x="817" 
d="M811 241c-6 -36 -37 -38 -55 -38h-22l-26 -154c-4 -23 -9 -49 -50 -49c-42 0 -39 25 -35 49l3 15c-46 -35 -123 -75 -222 -75c-191 0 -323 142 -294 317c28 168 202 316 402 316c89 0 155 -26 193 -56c8 13 13 19 18 27c11 18 20 29 43 29c36 0 33 -29 30 -49l-23 -135
c-4 -24 -9 -48 -51 -48c-11 0 -34 0 -36 29c-2 25 -6 63 -53 94c-31 20 -77 32 -127 32c-153 0 -289 -109 -311 -240s80 -239 227 -239c96 0 186 55 222 137h-75c-19 0 -47 1 -41 39c6 36 36 38 54 38h187c19 0 48 -2 42 -39zM681 722c-2 -14 -12 -28 -32 -35l-121 -42
c-8 -2 -17 -2 -25 0l-107 42c-16 6 -21 20 -19 34c3 19 21 39 43 39c4 0 8 0 12 -2l98 -31l108 31c6 2 10 2 14 2c21 0 32 -20 29 -38z" />
    <glyph glyph-name="gcaron" unicode="&#x1e7;" 
d="M575 386c-5 -35 -36 -49 -56 -49c-11 0 -34 7 -38 32c-11 -1 -25 -4 -40 -10c11 -26 13 -53 8 -81c-15 -91 -102 -165 -196 -165c-37 0 -65 12 -79 20c-3 -6 -4 -14 -4 -14s-2 -19 4 -30c7 -10 12 -10 25 -10c7 -2 19 -2 27 -2h68c90 0 128 -22 140 -29
c48 -28 58 -80 51 -119c-14 -86 -130 -151 -260 -151s-224 64 -210 151c2 11 13 77 89 123c-6 14 -12 37 -7 67c5 29 15 50 28 66c-11 20 -20 52 -14 93c15 87 101 164 197 164c43 0 73 -16 89 -27c50 31 98 32 109 32c60 0 74 -36 69 -61zM364 278c8 47 -22 88 -70 88
c-46 0 -91 -39 -100 -89c-8 -47 22 -89 70 -89c46 0 92 40 100 90zM411 -71c13 75 -92 75 -174 75c-68 0 -77 0 -102 -14c-31 -18 -43 -45 -46 -61c-7 -40 57 -76 148 -76s167 36 174 76zM477 588c-1 -11 -8 -23 -23 -31l-127 -72c-12 -7 -30 -7 -40 0l-103 72
c-11 8 -14 20 -13 31c4 20 25 39 46 39c6 0 12 -2 17 -6l86 -58l106 58c7 4 13 6 19 6c21 0 36 -19 32 -39z" />
    <glyph glyph-name="Gcircumflex" unicode="&#x11c;" horiz-adv-x="817" 
d="M811 241c-6 -36 -37 -38 -55 -38h-22l-26 -154c-4 -23 -9 -49 -50 -49c-42 0 -39 25 -35 49l3 15c-46 -35 -123 -75 -222 -75c-191 0 -323 142 -294 317c28 168 202 316 402 316c89 0 155 -26 193 -56c8 13 13 19 18 27c11 18 20 29 43 29c36 0 33 -29 30 -49l-23 -135
c-4 -24 -9 -48 -51 -48c-11 0 -34 0 -36 29c-2 25 -6 63 -53 94c-31 20 -77 32 -127 32c-153 0 -289 -109 -311 -240s80 -239 227 -239c96 0 186 55 222 137h-75c-19 0 -47 1 -41 39c6 36 36 38 54 38h187c19 0 48 -2 42 -39zM675 682c-4 -19 -21 -39 -43 -39
c-4 0 -8 0 -13 2l-97 31l-109 -31c-5 -2 -9 -2 -13 -2c-21 0 -33 20 -30 38c3 14 13 28 32 35l121 42c9 2 18 2 25 0l107 -42c16 -6 22 -20 20 -34z" />
    <glyph glyph-name="gcircumflex" unicode="&#x11d;" 
d="M575 386c-5 -35 -36 -49 -56 -49c-11 0 -34 7 -38 32c-11 -1 -25 -4 -40 -10c11 -26 13 -53 8 -81c-15 -91 -102 -165 -196 -165c-37 0 -65 12 -79 20c-3 -6 -4 -14 -4 -14s-2 -19 4 -30c7 -10 12 -10 25 -10c7 -2 19 -2 27 -2h68c90 0 128 -22 140 -29
c48 -28 58 -80 51 -119c-14 -86 -130 -151 -260 -151s-224 64 -210 151c2 11 13 77 89 123c-6 14 -12 37 -7 67c5 29 15 50 28 66c-11 20 -20 52 -14 93c15 87 101 164 197 164c43 0 73 -16 89 -27c50 31 98 32 109 32c60 0 74 -36 69 -61zM364 278c8 47 -22 88 -70 88
c-46 0 -91 -39 -100 -89c-8 -47 22 -89 70 -89c46 0 92 40 100 90zM411 -71c13 75 -92 75 -174 75c-68 0 -77 0 -102 -14c-31 -18 -43 -45 -46 -61c-7 -40 57 -76 148 -76s167 36 174 76zM466 518c-4 -20 -25 -39 -46 -39c-6 0 -11 2 -17 6l-86 58l-106 -58
c-6 -4 -13 -6 -19 -6c-21 0 -36 19 -32 39c2 11 9 23 23 31l127 72c12 7 30 7 40 0l103 -72c12 -8 15 -20 13 -31z" />
    <glyph glyph-name="Gcommaaccent" unicode="&#x122;" horiz-adv-x="817" 
d="M811 241c-6 -36 -37 -38 -55 -38h-22l-26 -154c-4 -23 -9 -49 -50 -49c-42 0 -39 25 -35 49l3 15c-46 -35 -123 -75 -222 -75c-191 0 -323 142 -294 317c28 168 202 316 402 316c89 0 155 -26 193 -56c8 13 13 19 18 27c11 18 20 29 43 29c36 0 33 -29 30 -49l-23 -135
c-4 -24 -9 -48 -51 -48c-11 0 -34 0 -36 29c-2 25 -6 63 -53 94c-31 20 -77 32 -127 32c-153 0 -289 -109 -311 -240s80 -239 227 -239c96 0 186 55 222 137h-75c-19 0 -47 1 -41 39c6 36 36 38 54 38h187c19 0 48 -2 42 -39zM446 -88c-12 -72 -74 -118 -92 -118
s-29 18 -27 31s9 19 36 42c10 11 14 21 17 29c-33 8 -29 39 -28 45c4 24 25 44 52 44s51 -20 42 -73z" />
    <glyph glyph-name="gcommaaccent" unicode="&#x123;" 
d="M382 620c-2 -13 -9 -19 -36 -42c-9 -11 -14 -21 -16 -29c32 -8 28 -39 27 -45c-4 -24 -25 -44 -52 -44s-51 20 -42 73c12 72 75 118 93 118s29 -18 26 -31zM575 386c-5 -35 -36 -49 -56 -49c-11 0 -34 7 -38 32c-11 -1 -25 -4 -40 -10c11 -26 13 -53 8 -81
c-15 -91 -102 -165 -196 -165c-37 0 -65 12 -79 20c-3 -6 -4 -14 -4 -14s-2 -19 4 -30c7 -10 12 -10 25 -10c7 -2 19 -2 27 -2h68c90 0 128 -22 140 -29c48 -28 58 -80 51 -119c-14 -86 -130 -151 -260 -151s-224 64 -210 151c2 11 13 77 89 123c-6 14 -12 37 -7 67
c5 29 15 50 28 66c-11 20 -20 52 -14 93c15 87 101 164 197 164c43 0 73 -16 89 -27c50 31 98 32 109 32c60 0 74 -36 69 -61zM364 278c8 47 -22 88 -70 88c-46 0 -91 -39 -100 -89c-8 -47 22 -89 70 -89c46 0 92 40 100 90zM411 -71c13 75 -92 75 -174 75
c-68 0 -77 0 -102 -14c-31 -18 -43 -45 -46 -61c-7 -40 57 -76 148 -76s167 36 174 76z" />
    <glyph glyph-name="Gdotaccent" unicode="&#x120;" horiz-adv-x="817" 
d="M811 241c-6 -36 -37 -38 -55 -38h-22l-26 -154c-4 -23 -9 -49 -50 -49c-42 0 -39 25 -35 49l3 15c-46 -35 -123 -75 -222 -75c-191 0 -323 142 -294 317c28 168 202 316 402 316c89 0 155 -26 193 -56c8 13 13 19 18 27c11 18 20 29 43 29c36 0 33 -29 30 -49l-23 -135
c-4 -24 -9 -48 -51 -48c-11 0 -34 0 -36 29c-2 25 -6 63 -53 94c-31 20 -77 32 -127 32c-153 0 -289 -109 -311 -240s80 -239 227 -239c96 0 186 55 222 137h-75c-19 0 -47 1 -41 39c6 36 36 38 54 38h187c19 0 48 -2 42 -39zM584 711c-5 -28 -33 -57 -68 -57
c-31 0 -53 26 -47 57c4 29 32 57 67 57c31 0 53 -26 48 -57z" />
    <glyph glyph-name="gdotaccent" unicode="&#x121;" 
d="M575 386c-5 -35 -36 -49 -56 -49c-11 0 -34 7 -38 32c-11 -1 -25 -4 -40 -10c11 -26 13 -53 8 -81c-15 -91 -102 -165 -196 -165c-37 0 -65 12 -79 20c-3 -6 -4 -14 -4 -14s-2 -19 4 -30c7 -10 12 -10 25 -10c7 -2 19 -2 27 -2h68c90 0 128 -22 140 -29
c48 -28 58 -80 51 -119c-14 -86 -130 -151 -260 -151s-224 64 -210 151c2 11 13 77 89 123c-6 14 -12 37 -7 67c5 29 15 50 28 66c-11 20 -20 52 -14 93c15 87 101 164 197 164c43 0 73 -16 89 -27c50 31 98 32 109 32c60 0 74 -36 69 -61zM364 278c8 47 -22 88 -70 88
c-46 0 -91 -39 -100 -89c-8 -47 22 -89 70 -89c46 0 92 40 100 90zM411 -71c13 75 -92 75 -174 75c-68 0 -77 0 -102 -14c-31 -18 -43 -45 -46 -61c-7 -40 57 -76 148 -76s167 36 174 76zM376 553c-5 -28 -33 -57 -68 -57c-31 0 -53 26 -47 57c4 29 32 57 67 57
c31 0 53 -26 48 -57z" />
    <glyph glyph-name="germandbls" unicode="&#xdf;" 
d="M527 179c-19 -112 -124 -185 -218 -185c-72 0 -100 42 -93 82c5 32 31 49 56 49c16 0 29 -8 35 -19c6 -10 7 -13 3 -34c4 -1 9 -1 12 -1c48 0 108 39 120 108c8 51 3 173 -121 180c0 0 -30 7 -25 38c5 29 27 38 72 42c70 9 97 45 100 62c3 21 -37 39 -91 39
c-24 0 -48 -4 -70 -13c-30 -12 -32 -22 -34 -38l-74 -440c-6 -38 -17 -49 -56 -49h-80c-19 0 -48 1 -42 38c7 38 35 39 55 39h43l47 282h-43c-19 0 -48 2 -42 38c7 38 35 39 55 39h43l10 59c16 96 136 122 202 122c99 0 173 -48 162 -115c-5 -29 -25 -73 -93 -111
c77 -68 75 -165 67 -212z" />
    <glyph glyph-name="uni0300" unicode="&#x300;" horiz-adv-x="0" 
d="M-59 511c-1 -10 -18 -48 -49 -48c-8 0 -13 3 -20 6l-119 57c-27 13 -28 29 -26 42c4 25 26 43 50 43c0 0 9 0 21 -6l119 -58c16 -7 28 -14 24 -36z" />
    <glyph glyph-name="guillemotleft" unicode="&#xab;" horiz-adv-x="583" 
d="M304 40c1 -20 -17 -40 -37 -40h-15c-14 0 -24 9 -26 22c-10 66 -35 128 -73 179c-9 12 -6 30 7 42c55 51 100 112 132 179c7 13 20 22 34 22h15c20 0 32 -20 23 -40c-29 -65 -71 -128 -123 -182c34 -55 55 -117 63 -182zM479 40c1 -20 -17 -40 -37 -40h-15
c-14 0 -24 9 -26 22c-10 66 -35 128 -73 179c-9 12 -6 30 7 42c55 51 100 112 132 179c7 13 20 22 34 22h15c20 0 32 -20 23 -40c-29 -65 -71 -128 -123 -182c34 -55 55 -117 63 -182z" />
    <glyph glyph-name="guillemotright" unicode="&#xbb;" horiz-adv-x="583" 
d="M498 201c-56 -52 -100 -113 -133 -179c-6 -13 -19 -22 -34 -22h-15c-20 0 -32 20 -23 40c31 65 72 128 123 182c-33 54 -53 117 -63 182c-1 20 17 40 37 40h15c15 0 25 -9 26 -22c11 -66 35 -128 74 -179c9 -12 6 -30 -7 -42zM323 201c-56 -52 -100 -113 -133 -179
c-6 -13 -19 -22 -34 -22h-15c-20 0 -32 20 -23 40c31 65 72 128 123 182c-33 54 -53 117 -63 182c-1 20 17 40 37 40h15c15 0 25 -9 26 -22c11 -66 35 -128 74 -179c9 -12 6 -30 -7 -42z" />
    <glyph glyph-name="guilsinglleft" unicode="&#x2039;" horiz-adv-x="408" 
d="M304 40c1 -20 -17 -40 -37 -40h-15c-14 0 -24 9 -26 22c-10 66 -35 128 -73 179c-9 12 -6 30 7 42c55 51 100 112 132 179c7 13 20 22 34 22h15c20 0 32 -20 23 -40c-29 -65 -71 -128 -123 -182c34 -55 55 -117 63 -182z" />
    <glyph glyph-name="guilsinglright" unicode="&#x203a;" horiz-adv-x="408" 
d="M323 201c-56 -52 -100 -113 -133 -179c-6 -13 -19 -22 -34 -22h-15c-20 0 -32 20 -23 40c31 65 72 128 123 182c-33 54 -53 117 -63 182c-1 20 17 40 37 40h15c15 0 25 -9 26 -22c11 -66 35 -128 74 -179c9 -12 6 -30 -7 -42z" />
    <glyph glyph-name="Hbar" unicode="&#x126;" horiz-adv-x="758" 
d="M716 38c-6 -37 -35 -38 -53 -38h-172c-19 0 -48 1 -42 38c7 38 35 39 55 39h43l34 202h-311l-34 -202h43c20 0 48 -1 41 -39c-6 -37 -35 -38 -54 -38h-172c-18 0 -47 1 -41 38c7 38 35 39 54 39h44l56 338h-48c-22 0 -36 17 -32 39c3 21 23 38 45 38h48l7 42h-44
c-18 0 -47 2 -41 38c7 38 35 39 54 39h172c20 0 48 -1 41 -39c-6 -36 -35 -38 -54 -38h-43l-7 -42h311l7 42h-43c-19 0 -48 2 -42 38c7 38 35 39 55 39h172c19 0 47 -1 40 -39c-6 -36 -35 -38 -53 -38h-44l-7 -42h48c22 0 36 -17 33 -38c-4 -22 -24 -39 -46 -39h-48
l-56 -338h44c19 0 47 -1 40 -39zM593 356l10 59h-311l-10 -59h311z" />
    <glyph glyph-name="hbar" unicode="&#x127;" horiz-adv-x="583" 
d="M572 38c-6 -37 -35 -38 -54 -38h-172c-19 0 -47 1 -40 39c6 36 35 38 53 38h44l35 209c8 48 4 79 -57 79c-50 0 -133 -31 -149 -126l-27 -162h44c19 0 47 -1 40 -39c-6 -37 -35 -38 -53 -38h-172c-19 0 -48 1 -42 38c7 38 35 39 55 39h43l63 379h-48c-21 0 -38 7 -34 29
c3 21 23 29 44 29h48l3 20h-43c-19 0 -48 2 -42 38c7 38 35 39 55 39h80c41 0 46 -12 40 -49l-8 -48h100c21 0 37 -8 34 -29c-4 -22 -23 -29 -44 -29h-100l-10 -59c42 29 90 45 142 45c85 0 142 -39 124 -151l-36 -214h43c20 0 48 -1 41 -39z" />
    <glyph glyph-name="Hbrevebelow" unicode="&#x1e2a;" horiz-adv-x="758" 
d="M716 38c-6 -37 -35 -38 -53 -38h-172c-19 0 -48 1 -42 38c7 38 35 39 55 39h43l34 202h-311l-34 -202h43c20 0 48 -1 41 -39c-6 -37 -35 -38 -54 -38h-172c-18 0 -47 1 -41 38c7 38 35 39 54 39h44l76 457h-44c-18 0 -47 2 -41 38c7 38 35 39 54 39h172
c20 0 48 -1 41 -39c-6 -36 -35 -38 -54 -38h-43l-30 -178h311l30 178h-43c-19 0 -48 2 -42 38c7 38 35 39 55 39h172c19 0 47 -1 40 -39c-6 -36 -35 -38 -53 -38h-44l-76 -457h44c19 0 47 -1 40 -39zM539 -125c-14 -84 -127 -88 -195 -88s-179 4 -165 88c4 24 22 39 46 39
c30 0 31 -20 32 -35c2 -12 63 -12 101 -12c37 0 99 0 105 12c5 15 14 35 44 35c25 0 36 -15 32 -39z" />
    <glyph glyph-name="hbrevebelow" unicode="&#x1e2b;" horiz-adv-x="583" 
d="M572 38c-6 -37 -35 -38 -54 -38h-172c-19 0 -47 1 -40 39c6 36 35 38 53 38h44l35 209c8 48 4 79 -57 79c-50 0 -133 -31 -149 -126l-27 -162h44c19 0 47 -1 40 -39c-6 -37 -35 -38 -53 -38h-172c-19 0 -48 1 -42 38c7 38 35 39 55 39h43l76 457h-43c-19 0 -48 2 -42 38
c7 38 35 39 55 39h80c41 0 46 -12 40 -49l-28 -165c42 29 90 45 142 45c85 0 142 -39 124 -151l-36 -214h43c20 0 48 -1 41 -39zM451 -125c-14 -84 -127 -88 -195 -88s-179 4 -165 88c4 24 22 39 46 39c30 0 31 -20 32 -35c2 -12 63 -12 101 -12c37 0 99 0 105 12
c5 15 14 35 44 35c25 0 36 -15 32 -39z" />
    <glyph glyph-name="Hcircumflex" unicode="&#x124;" horiz-adv-x="758" 
d="M716 38c-6 -37 -35 -38 -53 -38h-172c-19 0 -48 1 -42 38c7 38 35 39 55 39h43l34 202h-311l-34 -202h43c20 0 48 -1 41 -39c-6 -37 -35 -38 -54 -38h-172c-18 0 -47 1 -41 38c7 38 35 39 54 39h44l76 457h-44c-18 0 -47 2 -41 38c7 38 35 39 54 39h172
c20 0 48 -1 41 -39c-6 -36 -35 -38 -54 -38h-43l-30 -178h311l30 178h-43c-19 0 -48 2 -42 38c7 38 35 39 55 39h172c19 0 47 -1 40 -39c-6 -36 -35 -38 -53 -38h-44l-76 -457h44c19 0 47 -1 40 -39zM646 682c-4 -19 -21 -39 -43 -39c-4 0 -8 0 -13 2l-97 31l-109 -31
c-5 -2 -9 -2 -13 -2c-21 0 -33 20 -30 38c3 14 13 28 32 35l121 42c9 2 18 2 25 0l107 -42c16 -6 22 -20 20 -34z" />
    <glyph glyph-name="hcircumflex" unicode="&#x125;" horiz-adv-x="583" 
d="M572 38c-6 -37 -35 -38 -54 -38h-172c-19 0 -47 1 -40 39c6 36 35 38 53 38h44l35 209c8 48 4 79 -57 79c-50 0 -133 -31 -149 -126l-27 -162h44c19 0 47 -1 40 -39c-6 -37 -35 -38 -53 -38h-172c-19 0 -48 1 -42 38c7 38 35 39 55 39h43l76 457h-43c-19 0 -48 2 -42 38
c7 38 35 39 55 39h80c41 0 46 -12 40 -49l-28 -165c42 29 90 45 142 45c85 0 142 -39 124 -151l-36 -214h43c20 0 48 -1 41 -39zM558 682c-4 -19 -21 -39 -43 -39c-4 0 -8 0 -13 2l-97 31l-109 -31c-5 -2 -9 -2 -13 -2c-21 0 -33 20 -30 38c3 14 13 28 32 35l121 42
c9 2 18 2 25 0l107 -42c16 -6 22 -20 20 -34z" />
    <glyph glyph-name="Hdieresis" unicode="&#x1e26;" horiz-adv-x="758" 
d="M716 38c-6 -37 -35 -38 -53 -38h-172c-19 0 -48 1 -42 38c7 38 35 39 55 39h43l34 202h-311l-34 -202h43c20 0 48 -1 41 -39c-6 -37 -35 -38 -54 -38h-172c-18 0 -47 1 -41 38c7 38 35 39 54 39h44l76 457h-44c-18 0 -47 2 -41 38c7 38 35 39 54 39h172
c20 0 48 -1 41 -39c-6 -36 -35 -38 -54 -38h-43l-30 -178h311l30 178h-43c-19 0 -48 2 -42 38c7 38 35 39 55 39h172c19 0 47 -1 40 -39c-6 -36 -35 -38 -53 -38h-44l-76 -457h44c19 0 47 -1 40 -39zM450 695c-5 -27 -29 -52 -62 -52c-28 0 -48 23 -43 52c4 26 29 53 62 53
c29 0 47 -25 43 -53zM647 695c-5 -27 -29 -52 -62 -52c-28 0 -48 23 -43 52c4 26 29 53 62 53c29 0 47 -25 43 -53z" />
    <glyph glyph-name="hdieresis" unicode="&#x1e27;" horiz-adv-x="583" 
d="M572 38c-6 -37 -35 -38 -54 -38h-172c-19 0 -47 1 -40 39c6 36 35 38 53 38h44l35 209c8 48 4 79 -57 79c-50 0 -133 -31 -149 -126l-27 -162h44c19 0 47 -1 40 -39c-6 -37 -35 -38 -53 -38h-172c-19 0 -48 1 -42 38c7 38 35 39 55 39h43l76 457h-43c-19 0 -48 2 -42 38
c7 38 35 39 55 39h80c41 0 46 -12 40 -49l-28 -165c42 29 90 45 142 45c85 0 142 -39 124 -151l-36 -214h43c20 0 48 -1 41 -39zM362 695c-5 -27 -29 -52 -62 -52c-28 0 -48 23 -43 52c4 26 29 53 62 53c29 0 47 -25 43 -53zM559 695c-5 -27 -29 -52 -62 -52
c-28 0 -48 23 -43 52c4 26 29 53 62 53c29 0 47 -25 43 -53z" />
    <glyph glyph-name="Hdotbelow" unicode="&#x1e24;" horiz-adv-x="758" 
d="M716 38c-6 -37 -35 -38 -53 -38h-172c-19 0 -48 1 -42 38c7 38 35 39 55 39h43l34 202h-311l-34 -202h43c20 0 48 -1 41 -39c-6 -37 -35 -38 -54 -38h-172c-18 0 -47 1 -41 38c7 38 35 39 54 39h44l76 457h-44c-18 0 -47 2 -41 38c7 38 35 39 54 39h172
c20 0 48 -1 41 -39c-6 -36 -35 -38 -54 -38h-43l-30 -178h311l30 178h-43c-19 0 -48 2 -42 38c7 38 35 39 55 39h172c19 0 47 -1 40 -39c-6 -36 -35 -38 -53 -38h-44l-76 -457h44c19 0 47 -1 40 -39zM413 -137c-5 -29 -32 -57 -67 -57c-31 0 -53 26 -48 57c5 29 33 57 68 57
c31 0 52 -26 47 -57z" />
    <glyph glyph-name="hdotbelow" unicode="&#x1e25;" horiz-adv-x="583" 
d="M572 38c-6 -37 -35 -38 -54 -38h-172c-19 0 -47 1 -40 39c6 36 35 38 53 38h44l35 209c8 48 4 79 -57 79c-50 0 -133 -31 -149 -126l-27 -162h44c19 0 47 -1 40 -39c-6 -37 -35 -38 -53 -38h-172c-19 0 -48 1 -42 38c7 38 35 39 55 39h43l76 457h-43c-19 0 -48 2 -42 38
c7 38 35 39 55 39h80c41 0 46 -12 40 -49l-28 -165c42 29 90 45 142 45c85 0 142 -39 124 -151l-36 -214h43c20 0 48 -1 41 -39zM325 -137c-5 -29 -32 -57 -67 -57c-31 0 -53 26 -48 57c5 29 33 57 68 57c31 0 52 -26 47 -57z" />
    <glyph glyph-name="uni0309" unicode="&#x309;" horiz-adv-x="0" 
d="M-52 571c-5 -28 -26 -51 -63 -70c-20 -10 -32 -20 -34 -31l-2 -17c-4 -20 -21 -36 -42 -36c-19 0 -34 16 -30 36l2 17c8 47 49 79 98 103c-4 9 -19 13 -42 13c-14 0 -25 -5 -29 -11c-5 -28 -26 -41 -44 -41c-24 0 -34 19 -31 37c9 55 66 87 119 87c65 0 107 -33 98 -87z
" />
    <glyph glyph-name="hungarumlaut" unicode="&#x2dd;" 
d="M349 568c-3 -19 -15 -27 -28 -37l-77 -54c-15 -11 -20 -13 -31 -13c-23 0 -39 29 -36 46s11 22 26 33l77 54c14 11 20 14 33 14c24 0 40 -18 36 -43zM554 568c-3 -19 -15 -27 -28 -37l-77 -54c-15 -11 -20 -13 -31 -13c-23 0 -39 29 -36 46s11 22 26 33l77 54
c14 11 20 14 33 14c24 0 40 -18 36 -43z" />
    <glyph glyph-name="uni030B" unicode="&#x30b;" horiz-adv-x="0" 
d="M-169 568c-3 -19 -15 -27 -28 -37l-77 -54c-15 -11 -20 -13 -31 -13c-23 0 -39 29 -36 46s11 22 26 33l77 54c14 11 20 14 33 14c24 0 40 -18 36 -43zM36 568c-3 -19 -15 -27 -28 -37l-77 -54c-15 -11 -20 -13 -31 -13c-23 0 -39 29 -36 46s11 22 26 33l77 54
c14 11 20 14 33 14c24 0 40 -18 36 -43z" />
    <glyph glyph-name="Iacute" unicode="&#xcd;" horiz-adv-x="350" 
d="M319 38c-6 -37 -35 -38 -54 -38h-181c-19 0 -48 1 -42 38c7 38 35 39 55 39h48l76 457h-48c-19 0 -48 2 -42 38c7 38 35 39 55 39h181c20 0 48 -1 41 -39c-6 -36 -35 -38 -54 -38h-48l-76 -457h48c20 0 48 -1 41 -39zM414 758c-2 -13 -9 -29 -40 -42l-138 -57
c-8 -3 -14 -6 -22 -6c-31 0 -35 38 -33 48c3 22 18 29 36 36l138 58c14 6 23 6 23 6c24 0 40 -18 36 -43z" />
    <glyph glyph-name="iacute" unicode="&#xed;" horiz-adv-x="292" 
d="M276 38c-6 -37 -35 -38 -53 -38h-164c-18 0 -47 1 -41 38c7 38 35 39 54 39h44l47 282h-39c-18 0 -48 2 -42 39c7 37 37 38 55 38h76c40 0 46 -12 40 -48l-52 -311h34c19 0 48 -2 41 -39zM353 568c-2 -13 -9 -29 -40 -42l-139 -57c-7 -3 -14 -6 -22 -6
c-31 0 -34 38 -33 48c4 22 18 29 36 36l139 58c14 6 23 6 23 6c24 0 40 -18 36 -43z" />
    <glyph glyph-name="Ibreve" unicode="&#x12c;" horiz-adv-x="350" 
d="M319 38c-6 -37 -35 -38 -54 -38h-181c-19 0 -48 1 -42 38c7 38 35 39 55 39h48l76 457h-48c-19 0 -48 2 -42 38c7 38 35 39 55 39h181c20 0 48 -1 41 -39c-6 -36 -35 -38 -54 -38h-48l-76 -457h48c20 0 48 -1 41 -39zM479 741c-14 -84 -126 -88 -194 -88s-180 4 -166 88
c4 24 22 39 46 39c30 0 32 -20 32 -35c2 -12 63 -12 101 -12c37 0 99 0 105 12c6 15 14 35 44 35c25 0 36 -15 32 -39z" />
    <glyph glyph-name="ibreve" unicode="&#x12d;" horiz-adv-x="292" 
d="M276 38c-6 -37 -35 -38 -53 -38h-164c-18 0 -47 1 -41 38c7 38 35 39 54 39h44l47 282h-39c-18 0 -48 2 -42 39c7 37 37 38 55 38h76c40 0 46 -12 40 -48l-52 -311h34c19 0 48 -2 41 -39zM420 562c-14 -84 -127 -88 -195 -88s-179 4 -165 88c4 24 21 39 45 39
c30 0 32 -20 32 -35c2 -12 63 -12 101 -12c37 0 99 0 105 12c6 15 14 35 44 35c25 0 37 -15 33 -39z" />
    <glyph glyph-name="Icaron" unicode="&#x1cf;" horiz-adv-x="350" 
d="M319 38c-6 -37 -35 -38 -54 -38h-181c-19 0 -48 1 -42 38c7 38 35 39 55 39h48l76 457h-48c-19 0 -48 2 -42 38c7 38 35 39 55 39h181c20 0 48 -1 41 -39c-6 -36 -35 -38 -54 -38h-48l-76 -457h48c20 0 48 -1 41 -39zM448 722c-2 -14 -12 -28 -32 -35l-121 -42
c-8 -2 -17 -2 -25 0l-107 42c-16 6 -21 20 -19 34c3 19 21 39 43 39c4 0 8 0 12 -2l98 -31l108 31c6 2 10 2 14 2c21 0 32 -20 29 -38z" />
    <glyph glyph-name="icaron" unicode="&#x1d0;" horiz-adv-x="292" 
d="M276 38c-6 -37 -35 -38 -53 -38h-164c-18 0 -47 1 -41 38c7 38 35 39 54 39h44l47 282h-39c-18 0 -48 2 -42 39c7 37 37 38 55 38h76c40 0 46 -12 40 -48l-52 -311h34c19 0 48 -2 41 -39zM394 572c-1 -11 -8 -23 -23 -31l-127 -72c-12 -7 -30 -7 -40 0l-103 72
c-11 8 -14 20 -13 31c4 20 25 39 46 39c6 0 12 -2 17 -6l86 -58l106 58c7 4 13 6 19 6c21 0 36 -19 32 -39z" />
    <glyph glyph-name="Icircumflex" unicode="&#xce;" horiz-adv-x="350" 
d="M319 38c-6 -37 -35 -38 -54 -38h-181c-19 0 -48 1 -42 38c7 38 35 39 55 39h48l76 457h-48c-19 0 -48 2 -42 38c7 38 35 39 55 39h181c20 0 48 -1 41 -39c-6 -36 -35 -38 -54 -38h-48l-76 -457h48c20 0 48 -1 41 -39zM442 682c-4 -19 -21 -39 -43 -39c-4 0 -8 0 -13 2
l-97 31l-109 -31c-5 -2 -9 -2 -13 -2c-21 0 -33 20 -30 38c3 14 13 28 32 35l121 42c9 2 18 2 25 0l107 -42c16 -6 22 -20 20 -34z" />
    <glyph glyph-name="icircumflex" unicode="&#xee;" horiz-adv-x="292" 
d="M276 38c-6 -37 -35 -38 -53 -38h-164c-18 0 -47 1 -41 38c7 38 35 39 54 39h44l47 282h-39c-18 0 -48 2 -42 39c7 37 37 38 55 38h76c40 0 46 -12 40 -48l-52 -311h34c19 0 48 -2 41 -39zM383 502c-4 -20 -25 -39 -46 -39c-6 0 -11 2 -17 6l-86 58l-106 -58
c-6 -4 -13 -6 -19 -6c-21 0 -36 19 -32 39c2 11 9 23 23 31l127 72c12 7 30 7 40 0l103 -72c12 -8 15 -20 13 -31z" />
    <glyph glyph-name="Idblgrave" unicode="&#x208;" horiz-adv-x="350" 
d="M319 38c-6 -37 -35 -38 -54 -38h-181c-19 0 -48 1 -42 38c7 38 35 39 55 39h48l76 457h-48c-19 0 -48 2 -42 38c7 38 35 39 55 39h181c20 0 48 -1 41 -39c-6 -36 -35 -38 -54 -38h-48l-76 -457h48c20 0 48 -1 41 -39zM462 699c-2 -17 -28 -46 -51 -46c-11 0 -15 2 -26 13
l-59 54c-10 10 -19 18 -16 37c4 25 26 43 50 43c13 0 18 -3 29 -14l59 -54c11 -11 17 -16 14 -33zM257 699c-2 -17 -28 -46 -51 -46c-11 0 -15 2 -26 13l-59 54c-10 10 -19 18 -16 37c4 25 26 43 50 43c13 0 18 -3 29 -14l59 -54c11 -11 17 -16 14 -33z" />
    <glyph glyph-name="idblgrave" unicode="&#x209;" horiz-adv-x="292" 
d="M276 38c-6 -37 -35 -38 -53 -38h-164c-18 0 -47 1 -41 38c7 38 35 39 54 39h44l47 282h-39c-18 0 -48 2 -42 39c7 37 37 38 55 38h76c40 0 46 -12 40 -48l-52 -311h34c19 0 48 -2 41 -39zM401 510c-3 -17 -29 -46 -52 -46c-11 0 -14 2 -25 13l-59 54
c-11 10 -19 18 -16 37c4 25 26 43 50 43c13 0 17 -3 29 -14l59 -54c11 -11 17 -16 14 -33zM196 510c-3 -17 -29 -46 -52 -46c-11 0 -14 2 -25 13l-59 54c-11 10 -19 18 -16 37c4 25 26 43 50 43c13 0 17 -3 29 -14l59 -54c11 -11 17 -16 14 -33z" />
    <glyph glyph-name="Idieresis" unicode="&#xcf;" horiz-adv-x="350" 
d="M319 38c-6 -37 -35 -38 -54 -38h-181c-19 0 -48 1 -42 38c7 38 35 39 55 39h48l76 457h-48c-19 0 -48 2 -42 38c7 38 35 39 55 39h181c20 0 48 -1 41 -39c-6 -36 -35 -38 -54 -38h-48l-76 -457h48c20 0 48 -1 41 -39zM246 695c-5 -27 -29 -52 -62 -52
c-28 0 -48 23 -43 52c4 26 29 53 62 53c29 0 47 -25 43 -53zM443 695c-5 -27 -29 -52 -62 -52c-28 0 -48 23 -43 52c4 26 29 53 62 53c29 0 47 -25 43 -53z" />
    <glyph glyph-name="idieresis" unicode="&#xef;" horiz-adv-x="292" 
d="M276 38c-6 -37 -35 -38 -53 -38h-164c-18 0 -47 1 -41 38c7 38 35 39 54 39h44l47 282h-39c-18 0 -48 2 -42 39c7 37 37 38 55 38h76c40 0 46 -12 40 -48l-52 -311h34c19 0 48 -2 41 -39zM205 537c-5 -27 -29 -52 -62 -52c-28 0 -48 23 -43 52c4 26 28 53 61 53
c29 0 48 -25 44 -53zM372 537c-5 -27 -29 -52 -62 -52c-28 0 -48 23 -43 52c4 26 28 53 61 53c29 0 48 -25 44 -53z" />
    <glyph glyph-name="Idieresisacute" unicode="&#x1e2e;" horiz-adv-x="350" 
d="M319 38c-6 -37 -35 -38 -54 -38h-181c-19 0 -48 1 -42 38c7 38 35 39 55 39h48l76 457h-48c-19 0 -48 2 -42 38c7 38 35 39 55 39h181c20 0 48 -1 41 -39c-6 -36 -35 -38 -54 -38h-48l-76 -457h48c20 0 48 -1 41 -39zM246 695c-5 -27 -29 -52 -62 -52
c-28 0 -48 23 -43 52c4 26 29 53 62 53c29 0 47 -25 43 -53zM443 695c-5 -27 -29 -52 -62 -52c-28 0 -48 23 -43 52c4 26 29 53 62 53c29 0 47 -25 43 -53zM437 894c-2 -13 -9 -29 -40 -42l-138 -57c-8 -3 -14 -6 -22 -6c-31 0 -35 38 -33 48c3 22 18 29 36 36l138 58
c14 6 23 6 23 6c24 0 40 -18 36 -43z" />
    <glyph glyph-name="idieresisacute" unicode="&#x1e2f;" horiz-adv-x="292" 
d="M276 38c-6 -37 -35 -38 -53 -38h-164c-18 0 -47 1 -41 38c7 38 35 39 54 39h44l47 282h-39c-18 0 -48 2 -42 39c7 37 37 38 55 38h76c40 0 46 -12 40 -48l-52 -311h34c19 0 48 -2 41 -39zM205 537c-5 -27 -29 -52 -62 -52c-28 0 -48 23 -43 52c4 26 28 53 61 53
c29 0 48 -25 44 -53zM372 537c-5 -27 -29 -52 -62 -52c-28 0 -48 23 -43 52c4 26 28 53 61 53c29 0 48 -25 44 -53zM381 736c-2 -13 -9 -29 -40 -42l-138 -57c-8 -3 -14 -6 -22 -6c-31 0 -35 38 -33 48c3 22 18 29 36 36l138 58c14 6 23 6 23 6c24 0 40 -18 36 -43z" />
    <glyph glyph-name="Idotaccent" unicode="&#x130;" horiz-adv-x="350" 
d="M319 38c-6 -37 -35 -38 -54 -38h-181c-19 0 -48 1 -42 38c7 38 35 39 55 39h48l76 457h-48c-19 0 -48 2 -42 38c7 38 35 39 55 39h181c20 0 48 -1 41 -39c-6 -36 -35 -38 -54 -38h-48l-76 -457h48c20 0 48 -1 41 -39zM351 711c-5 -28 -33 -57 -68 -57
c-31 0 -53 26 -47 57c4 29 32 57 67 57c31 0 53 -26 48 -57z" />
    <glyph glyph-name="Idotbelow" unicode="&#x1eca;" horiz-adv-x="350" 
d="M319 38c-6 -37 -35 -38 -54 -38h-181c-19 0 -48 1 -42 38c7 38 35 39 55 39h48l76 457h-48c-19 0 -48 2 -42 38c7 38 35 39 55 39h181c20 0 48 -1 41 -39c-6 -36 -35 -38 -54 -38h-48l-76 -457h48c20 0 48 -1 41 -39zM209 -137c-5 -29 -32 -57 -67 -57
c-31 0 -53 26 -48 57c5 29 33 57 68 57c31 0 52 -26 47 -57z" />
    <glyph glyph-name="idotbelow" unicode="&#x1ecb;" horiz-adv-x="292" 
d="M276 38c-6 -37 -35 -38 -53 -38h-164c-18 0 -47 1 -41 38c7 38 35 39 54 39h44l47 282h-39c-18 0 -48 2 -42 39c7 37 37 38 55 38h76c40 0 46 -12 40 -48l-52 -311h34c19 0 48 -2 41 -39zM293 537c-5 -28 -33 -57 -68 -57c-31 0 -53 26 -47 57c4 29 32 57 67 57
c31 0 53 -26 48 -57zM180 -137c-5 -29 -32 -57 -67 -57c-31 0 -53 26 -48 57c5 29 33 57 68 57c31 0 52 -26 47 -57z" />
    <glyph glyph-name="Igrave" unicode="&#xcc;" horiz-adv-x="350" 
d="M319 38c-6 -37 -35 -38 -54 -38h-181c-19 0 -48 1 -42 38c7 38 35 39 55 39h48l76 457h-48c-19 0 -48 2 -42 38c7 38 35 39 55 39h181c20 0 48 -1 41 -39c-6 -36 -35 -38 -54 -38h-48l-76 -457h48c20 0 48 -1 41 -39zM404 701c-2 -10 -18 -48 -49 -48c-8 0 -14 3 -20 6
l-120 57c-27 13 -28 29 -26 42c4 25 26 43 50 43c0 0 9 0 21 -6l120 -58c16 -7 27 -14 24 -36z" />
    <glyph glyph-name="igrave" unicode="&#xec;" horiz-adv-x="292" 
d="M276 38c-6 -37 -35 -38 -53 -38h-164c-18 0 -47 1 -41 38c7 38 35 39 54 39h44l47 282h-39c-18 0 -48 2 -42 39c7 37 37 38 55 38h76c40 0 46 -12 40 -48l-52 -311h34c19 0 48 -2 41 -39zM342 511c-1 -10 -18 -48 -49 -48c-8 0 -13 3 -20 6l-119 57c-27 13 -28 29 -26 42
c4 25 26 43 50 43c0 0 9 0 21 -6l119 -58c16 -7 28 -14 24 -36z" />
    <glyph glyph-name="Ihookabove" unicode="&#x1ec8;" horiz-adv-x="350" 
d="M319 38c-6 -37 -35 -38 -54 -38h-181c-19 0 -48 1 -42 38c7 38 35 39 55 39h48l76 457h-48c-19 0 -48 2 -42 38c7 38 35 39 55 39h181c20 0 48 -1 41 -39c-6 -36 -35 -38 -54 -38h-48l-76 -457h48c20 0 48 -1 41 -39zM418 808c-6 -28 -27 -51 -64 -70
c-20 -10 -31 -20 -33 -31l-3 -17c-3 -20 -21 -36 -42 -36c-19 0 -33 16 -30 36l3 17c8 47 48 79 97 103c-3 9 -19 13 -42 13c-14 0 -25 -5 -29 -11c-4 -28 -25 -41 -43 -41c-24 0 -34 19 -31 37c9 55 65 87 118 87c65 0 108 -33 99 -87z" />
    <glyph glyph-name="ihookabove" unicode="&#x1ec9;" horiz-adv-x="292" 
d="M276 38c-6 -37 -35 -38 -53 -38h-164c-18 0 -47 1 -41 38c7 38 35 39 54 39h44l47 282h-39c-18 0 -48 2 -42 39c7 37 37 38 55 38h76c40 0 46 -12 40 -48l-52 -311h34c19 0 48 -2 41 -39zM349 571c-5 -28 -26 -51 -63 -70c-20 -10 -32 -20 -34 -31l-2 -17
c-4 -20 -21 -36 -42 -36c-19 0 -34 16 -30 36l2 17c8 47 49 79 98 103c-4 9 -19 13 -42 13c-14 0 -25 -5 -29 -11c-5 -28 -26 -41 -44 -41c-24 0 -34 19 -31 37c9 55 66 87 119 87c65 0 107 -33 98 -87z" />
    <glyph glyph-name="Imacron" unicode="&#x12a;" horiz-adv-x="350" 
d="M319 38c-6 -37 -35 -38 -54 -38h-181c-19 0 -48 1 -42 38c7 38 35 39 55 39h48l76 457h-48c-19 0 -48 2 -42 38c7 38 35 39 55 39h181c20 0 48 -1 41 -39c-6 -36 -35 -38 -54 -38h-48l-76 -457h48c20 0 48 -1 41 -39zM485 702c-6 -37 -35 -39 -54 -39h-289
c-20 0 -47 2 -41 40s35 39 54 39h290c20 0 46 -1 40 -40z" />
    <glyph glyph-name="imacron" unicode="&#x12b;" horiz-adv-x="292" 
d="M276 38c-6 -37 -35 -38 -53 -38h-164c-18 0 -47 1 -41 38c7 38 35 39 54 39h44l47 282h-39c-18 0 -48 2 -42 39c7 37 37 38 55 38h76c40 0 46 -12 40 -48l-52 -311h34c19 0 48 -2 41 -39zM428 537c-7 -37 -35 -39 -54 -39h-289c-20 0 -48 2 -41 40c6 38 34 39 53 39h290
c20 0 47 -1 41 -40z" />
    <glyph glyph-name="infinity" unicode="&#x221e;" horiz-adv-x="1050" 
d="M512 214l-30 47c-38 59 -88 115 -163 115c-76 0 -135 -78 -149 -160c-14 -85 6 -170 80 -170c102 0 193 78 262 168zM952 216c14 84 -6 169 -80 169c-103 0 -194 -78 -262 -168l30 -47c38 -59 87 -115 163 -115c75 0 135 78 149 161zM1028 216
c-21 -127 -135 -233 -260 -233c-89 0 -148 65 -193 134l-19 28c-72 -90 -162 -166 -266 -166c-130 0 -218 106 -196 237c21 126 135 232 259 232c89 0 149 -65 194 -134l18 -28c73 90 163 166 267 166c130 0 218 -106 196 -236z" />
    <glyph glyph-name="interrobang" unicode="&#x203d;" horiz-adv-x="496" 
d="M315 57c-6 -32 -35 -57 -67 -57s-53 25 -47 57c5 32 34 58 66 58s53 -26 48 -58zM507 488c-7 -42 -30 -75 -71 -101c-83 -53 -96 -115 -100 -143l-3 -17c-7 -42 -20 -48 -55 -48c-47 0 -46 14 -38 59c3 19 7 42 19 66l16 107l17 126c-24 -3 -50 -10 -68 -24
c3 -6 4 -15 2 -25c-5 -33 -35 -53 -60 -53c-24 0 -50 17 -43 55c9 56 63 113 179 124l4 24c11 61 51 64 59 64s47 -3 36 -64l-4 -24c116 -17 116 -95 110 -126zM425 488c5 30 -18 42 -41 47l-9 -52l-11 -57c11 8 23 17 36 25c15 10 23 22 25 37z" />
    <glyph glyph-name="Iogonek" unicode="&#x12e;" horiz-adv-x="350" 
d="M319 38c-6 -37 -35 -38 -54 -38h-34c-38 -19 -68 -57 -74 -98c-3 -18 15 -29 29 -29c7 0 13 2 21 7c40 34 67 39 78 32c11 -10 10 -37 -1 -48c-31 -35 -74 -61 -114 -61c-67 0 -96 55 -88 101c6 35 33 70 64 96h-62c-19 0 -48 1 -42 38c7 38 35 39 55 39h48l76 457h-48
c-19 0 -48 2 -42 38c7 38 35 39 55 39h181c20 0 48 -1 41 -39c-6 -36 -35 -38 -54 -38h-48l-76 -457h48c20 0 48 -1 41 -39z" />
    <glyph glyph-name="iogonek" unicode="&#x12f;" horiz-adv-x="292" 
d="M280 555c-6 -32 -35 -58 -67 -58s-53 26 -47 58c5 32 34 57 66 57s53 -25 48 -57zM276 38c-6 -37 -35 -38 -53 -38h-53c-38 -19 -66 -57 -72 -98c-3 -18 15 -29 29 -29c6 0 13 2 21 7c40 34 67 39 78 32c10 -10 10 -37 -1 -48c-31 -35 -75 -61 -114 -61
c-67 0 -96 55 -88 101c6 35 33 70 63 96h-27c-18 0 -47 1 -41 38c7 38 35 39 54 39h44l47 282h-39c-18 0 -48 2 -42 39c7 37 37 38 55 38h76c40 0 46 -12 40 -48l-52 -311h34c19 0 48 -2 41 -39z" />
    <glyph glyph-name="Iota" unicode="&#x399;" horiz-adv-x="350" 
d="M319 38c-6 -37 -35 -38 -54 -38h-181c-19 0 -48 1 -42 38c7 38 35 39 55 39h48l76 457h-48c-19 0 -48 2 -42 38c7 38 35 39 55 39h181c20 0 48 -1 41 -39c-6 -36 -35 -38 -54 -38h-48l-76 -457h48c20 0 48 -1 41 -39z" />
    <glyph glyph-name="Itilde" unicode="&#x128;" horiz-adv-x="350" 
d="M319 38c-6 -37 -35 -38 -54 -38h-181c-19 0 -48 1 -42 38c7 38 35 39 55 39h48l76 457h-48c-19 0 -48 2 -42 38c7 38 35 39 55 39h181c20 0 48 -1 41 -39c-6 -36 -35 -38 -54 -38h-48l-76 -457h48c20 0 48 -1 41 -39zM478 737c-3 -19 -38 -44 -61 -60
c-27 -18 -59 -34 -87 -34c-36 0 -54 22 -66 36c-8 9 -16 18 -21 18c-12 0 -38 -16 -69 -41c-9 -7 -18 -13 -31 -13c-20 0 -36 20 -32 40c3 19 37 44 61 60c27 18 58 34 86 34c36 0 55 -21 67 -35c8 -10 16 -18 21 -18c12 0 37 15 68 40c10 8 18 13 31 13c20 0 36 -20 33 -40
z" />
    <glyph glyph-name="itilde" unicode="&#x129;" horiz-adv-x="292" 
d="M276 38c-6 -37 -35 -38 -53 -38h-164c-18 0 -47 1 -41 38c7 38 35 39 54 39h44l47 282h-39c-18 0 -48 2 -42 39c7 37 37 38 55 38h76c40 0 46 -12 40 -48l-52 -311h34c19 0 48 -2 41 -39zM419 564c-3 -19 -37 -44 -61 -60c-27 -18 -59 -34 -87 -34c-36 0 -54 22 -66 36
c-8 9 -16 18 -21 18c-12 0 -37 -16 -68 -41c-10 -7 -19 -13 -32 -13c-20 0 -35 20 -32 40c3 19 37 44 61 60c27 18 59 34 87 34c36 0 54 -21 66 -35c8 -10 16 -18 21 -18c12 0 37 15 69 40c9 8 18 13 31 13c20 0 35 -20 32 -40z" />
    <glyph glyph-name="jcaron" unicode="&#x1f0;" horiz-adv-x="321" 
d="M208 -37c-13 -75 -66 -184 -174 -184c-77 0 -116 33 -108 82c5 34 35 54 61 54c11 0 50 -2 42 -59c3 -1 17 -1 21 -1c53 0 69 79 74 112l66 392h-53c-19 0 -48 2 -42 39c7 37 37 38 55 38h89c41 0 46 -12 40 -48zM408 572c-1 -11 -8 -23 -23 -31l-127 -72
c-12 -7 -30 -7 -40 0l-103 72c-11 8 -14 20 -13 31c4 20 25 39 46 39c6 0 12 -2 17 -6l86 -58l106 58c7 4 13 6 19 6c21 0 36 -19 32 -39z" />
    <glyph glyph-name="Jcircumflex" unicode="&#x134;" 
d="M577 573c-7 -37 -36 -39 -56 -39h-20l-66 -395c-15 -94 -108 -150 -199 -150c-103 0 -161 51 -150 116c6 37 35 54 62 54c29 0 47 -23 42 -51c-2 -12 -5 -19 -9 -24c23 -18 61 -18 68 -18c17 0 90 4 102 79l65 389h-70c-19 0 -49 2 -42 39c6 36 36 38 55 38h175
c19 0 49 -2 43 -38zM614 682c-4 -19 -21 -39 -43 -39c-4 0 -8 0 -13 2l-97 31l-109 -31c-5 -2 -9 -2 -13 -2c-21 0 -33 20 -30 38c3 14 13 28 32 35l121 42c9 2 18 2 25 0l107 -42c16 -6 22 -20 20 -34z" />
    <glyph glyph-name="jcircumflex" unicode="&#x135;" horiz-adv-x="321" 
d="M208 -37c-13 -75 -66 -184 -174 -184c-77 0 -116 33 -108 82c5 34 35 54 61 54c11 0 50 -2 42 -59c3 -1 17 -1 21 -1c53 0 69 79 74 112l66 392h-53c-19 0 -48 2 -42 39c7 37 37 38 55 38h89c41 0 46 -12 40 -48zM397 502c-4 -20 -25 -39 -46 -39c-6 0 -11 2 -17 6
l-86 58l-106 -58c-6 -4 -13 -6 -19 -6c-21 0 -36 19 -32 39c2 11 9 23 23 31l127 72c12 7 30 7 40 0l103 -72c12 -8 15 -20 13 -31z" />
    <glyph glyph-name="Kappa" unicode="&#x39a;" horiz-adv-x="788" 
d="M748 38c-6 -36 -37 -38 -55 -38h-122c-18 0 -48 1 -42 38c5 30 22 37 52 38l-164 233l-168 -120l-19 -112h44c19 0 48 -1 41 -39c-6 -37 -36 -38 -54 -38h-159c-19 0 -48 1 -42 38c7 38 35 39 55 39h43l76 457h-43c-19 0 -48 2 -42 38c7 38 35 39 55 39h159
c19 0 48 -1 41 -39c-6 -36 -36 -38 -54 -38h-44l-42 -252l354 253c-25 2 -37 10 -32 38c6 37 36 38 54 38h141c18 0 48 -1 41 -39c-6 -36 -36 -38 -54 -38h-36l-252 -180l195 -277h31c18 0 49 -2 42 -39z" />
    <glyph glyph-name="Kcommaaccent" unicode="&#x136;" horiz-adv-x="788" 
d="M748 38c-6 -36 -37 -38 -55 -38h-122c-18 0 -48 1 -42 38c5 30 22 37 52 38l-164 233l-168 -120l-19 -112h44c19 0 48 -1 41 -39c-6 -37 -36 -38 -54 -38h-159c-19 0 -48 1 -42 38c7 38 35 39 55 39h43l76 457h-43c-19 0 -48 2 -42 38c7 38 35 39 55 39h159
c19 0 48 -1 41 -39c-6 -36 -36 -38 -54 -38h-44l-42 -252l354 253c-25 2 -37 10 -32 38c6 37 36 38 54 38h141c18 0 48 -1 41 -39c-6 -36 -36 -38 -54 -38h-36l-252 -180l195 -277h31c18 0 49 -2 42 -39zM431 -88c-12 -72 -74 -118 -92 -118s-29 18 -27 31s9 19 36 42
c10 11 14 21 17 29c-33 8 -29 39 -28 45c4 24 25 44 52 44s51 -20 42 -73z" />
    <glyph glyph-name="kcommaaccent" unicode="&#x137;" horiz-adv-x="554" 
d="M543 38c-6 -36 -36 -38 -54 -38h-123c-19 0 -47 1 -40 39c6 36 35 38 53 38h1l-85 131l-85 -66l-11 -65h43c20 0 48 -1 41 -39c-6 -37 -35 -38 -54 -38h-159c-18 0 -47 1 -41 38c7 38 35 39 54 39h44l76 457h-44c-18 0 -47 2 -41 38c7 38 35 39 54 39h68
c41 0 46 -12 40 -49l-54 -324l157 121h-16c-18 0 -47 2 -41 38c7 38 35 39 54 39h160c18 0 48 -1 41 -39c-6 -36 -36 -38 -54 -38h-35l-135 -104l115 -178h30c18 0 48 -2 41 -39zM315 -88c-12 -72 -74 -118 -92 -118s-29 18 -27 31s9 19 36 42c10 11 14 21 17 29
c-33 8 -29 39 -28 45c4 24 25 44 52 44s51 -20 42 -73z" />
    <glyph glyph-name="Lacute" unicode="&#x139;" horiz-adv-x="642" 
d="M606 49c-6 -38 -17 -49 -56 -49h-457c-19 0 -48 1 -42 38c7 38 35 39 55 39h43l76 457h-43c-19 0 -48 2 -42 38c7 38 35 39 55 39h195c19 0 48 -1 41 -39c-6 -36 -36 -38 -54 -38h-67l-76 -457h292l10 58c4 25 9 49 51 49c41 0 38 -25 34 -49zM559 758
c-2 -13 -9 -29 -40 -42l-138 -57c-8 -3 -14 -6 -22 -6c-31 0 -35 38 -33 48c3 22 18 29 36 36l138 58c14 6 23 6 23 6c24 0 40 -18 36 -43z" />
    <glyph glyph-name="lacute" unicode="&#x13a;" horiz-adv-x="292" 
d="M285 38c-6 -37 -35 -38 -54 -38h-171c-19 0 -48 1 -42 38c7 38 35 39 55 39h43l76 457h-43c-19 0 -48 2 -42 38c7 38 35 39 55 39h80c41 0 46 -12 40 -49l-81 -485h43c20 0 48 -1 41 -39zM384 758c-2 -13 -9 -29 -40 -42l-138 -57c-8 -3 -14 -6 -22 -6
c-31 0 -35 38 -33 48c3 22 18 29 36 36l138 58c14 6 23 6 23 6c24 0 40 -18 36 -43z" />
    <glyph glyph-name="Lambda" unicode="&#x39b;" horiz-adv-x="700" 
d="M665 38c-6 -37 -35 -38 -54 -38h-145c-19 0 -48 1 -42 38c7 38 35 39 55 39h28l-71 443l-218 -443h28c20 0 48 -1 41 -39c-6 -37 -35 -38 -54 -38h-145c-19 0 -48 1 -42 38c7 38 35 39 55 39h27l251 508c19 37 45 38 65 38h19c20 0 46 -1 53 -38l81 -508h27
c20 0 48 -1 41 -39z" />
    <glyph glyph-name="Lcaron" unicode="&#x13d;" horiz-adv-x="642" 
d="M606 49c-6 -38 -17 -49 -56 -49h-457c-19 0 -48 1 -42 38c7 38 35 39 55 39h43l76 457h-43c-19 0 -48 2 -42 38c7 38 35 39 55 39h195c19 0 48 -1 41 -39c-6 -36 -36 -38 -54 -38h-67l-76 -457h292l10 58c4 25 9 49 51 49c41 0 38 -25 34 -49zM589 538
c-12 -72 -75 -118 -93 -118s-29 18 -27 31s9 19 36 42c10 11 15 21 17 29c-33 8 -28 39 -27 45c4 24 25 44 52 44s51 -20 42 -73z" />
    <glyph glyph-name="lcaron" unicode="&#x13e;" horiz-adv-x="292" 
d="M285 38c-6 -37 -35 -38 -54 -38h-171c-19 0 -48 1 -42 38c7 38 35 39 55 39h43l76 457h-43c-19 0 -48 2 -42 38c7 38 35 39 55 39h80c41 0 46 -12 40 -49l-81 -485h43c20 0 48 -1 41 -39zM422 538c-12 -72 -75 -118 -93 -118s-29 18 -27 31s9 19 36 42c10 11 15 21 17 29
c-33 8 -28 39 -27 45c4 24 25 44 52 44s51 -20 42 -73z" />
    <glyph glyph-name="Lcommaaccent" unicode="&#x13b;" horiz-adv-x="642" 
d="M606 49c-6 -38 -17 -49 -56 -49h-457c-19 0 -48 1 -42 38c7 38 35 39 55 39h43l76 457h-43c-19 0 -48 2 -42 38c7 38 35 39 55 39h195c19 0 48 -1 41 -39c-6 -36 -36 -38 -54 -38h-67l-76 -457h292l10 58c4 25 9 49 51 49c41 0 38 -25 34 -49zM358 -88
c-12 -72 -74 -118 -92 -118s-29 18 -27 31s9 19 36 42c10 11 14 21 17 29c-33 8 -29 39 -28 45c4 24 25 44 52 44s51 -20 42 -73z" />
    <glyph glyph-name="lcommaaccent" unicode="&#x13c;" horiz-adv-x="292" 
d="M285 38c-6 -37 -35 -38 -54 -38h-171c-19 0 -48 1 -42 38c7 38 35 39 55 39h43l76 457h-43c-19 0 -48 2 -42 38c7 38 35 39 55 39h80c41 0 46 -12 40 -49l-81 -485h43c20 0 48 -1 41 -39zM183 -88c-12 -72 -74 -118 -92 -118s-29 18 -27 31s9 19 36 42c10 11 14 21 17 29
c-33 8 -29 39 -28 45c4 24 25 44 52 44s51 -20 42 -73z" />
    <glyph glyph-name="Ldot" unicode="&#x13f;" horiz-adv-x="642" 
d="M606 49c-6 -38 -17 -49 -56 -49h-457c-19 0 -48 1 -42 38c7 38 35 39 55 39h43l76 457h-43c-19 0 -48 2 -42 38c7 38 35 39 55 39h195c19 0 48 -1 41 -39c-6 -36 -36 -38 -54 -38h-67l-76 -457h292l10 58c4 25 9 49 51 49c41 0 38 -25 34 -49zM609 317
c-5 -28 -33 -57 -68 -57c-31 0 -52 26 -47 57c5 29 32 57 67 57c31 0 53 -26 48 -57z" />
    <glyph glyph-name="ldot" unicode="&#x140;" horiz-adv-x="369" 
d="M285 38c-6 -37 -35 -38 -54 -38h-171c-19 0 -48 1 -42 38c7 38 35 39 55 39h43l76 457h-43c-19 0 -48 2 -42 38c7 38 35 39 55 39h80c41 0 46 -12 40 -49l-81 -485h43c20 0 48 -1 41 -39zM440 317c-5 -28 -33 -57 -68 -57c-31 0 -52 26 -47 57c5 29 32 57 67 57
c31 0 53 -26 48 -57z" />
    <glyph glyph-name="Ldotbelow" unicode="&#x1e36;" horiz-adv-x="642" 
d="M606 49c-6 -38 -17 -49 -56 -49h-457c-19 0 -48 1 -42 38c7 38 35 39 55 39h43l76 457h-43c-19 0 -48 2 -42 38c7 38 35 39 55 39h195c19 0 48 -1 41 -39c-6 -36 -36 -38 -54 -38h-67l-76 -457h292l10 58c4 25 9 49 51 49c41 0 38 -25 34 -49zM355 -137
c-5 -29 -32 -57 -67 -57c-31 0 -53 26 -48 57c5 29 33 57 68 57c31 0 52 -26 47 -57z" />
    <glyph glyph-name="ldotbelow" unicode="&#x1e37;" horiz-adv-x="292" 
d="M285 38c-6 -37 -35 -38 -54 -38h-171c-19 0 -48 1 -42 38c7 38 35 39 55 39h43l76 457h-43c-19 0 -48 2 -42 38c7 38 35 39 55 39h80c41 0 46 -12 40 -49l-81 -485h43c20 0 48 -1 41 -39zM180 -137c-5 -29 -32 -57 -67 -57c-31 0 -53 26 -48 57c5 29 33 57 68 57
c31 0 52 -26 47 -57z" />
    <glyph glyph-name="Ldotbelowmacron" unicode="&#x1e38;" horiz-adv-x="642" 
d="M606 49c-6 -38 -17 -49 -56 -49h-457c-19 0 -48 1 -42 38c7 38 35 39 55 39h43l76 457h-43c-19 0 -48 2 -42 38c7 38 35 39 55 39h195c19 0 48 -1 41 -39c-6 -36 -36 -38 -54 -38h-67l-76 -457h292l10 58c4 25 9 49 51 49c41 0 38 -25 34 -49zM355 -137
c-5 -29 -32 -57 -67 -57c-31 0 -53 26 -48 57c5 29 33 57 68 57c31 0 52 -26 47 -57zM500 702c-6 -37 -35 -39 -54 -39h-289c-20 0 -47 2 -41 40s35 39 54 39h290c20 0 46 -1 40 -40z" />
    <glyph glyph-name="ldotbelowmacron" unicode="&#x1e39;" horiz-adv-x="292" 
d="M285 38c-6 -37 -35 -38 -54 -38h-171c-19 0 -48 1 -42 38c7 38 35 39 55 39h43l76 457h-43c-19 0 -48 2 -42 38c7 38 35 39 55 39h80c41 0 46 -12 40 -49l-81 -485h43c20 0 48 -1 41 -39zM180 -137c-5 -29 -32 -57 -67 -57c-31 0 -53 26 -48 57c5 29 33 57 68 57
c31 0 52 -26 47 -57zM439 702c-6 -37 -35 -39 -54 -39h-289c-20 0 -47 2 -41 40s35 39 54 39h290c20 0 46 -1 40 -40z" />
    <glyph glyph-name="uni0332" unicode="&#x332;" horiz-adv-x="0" 
d="M-88 -150c-6 -37 -35 -39 -54 -39h-289c-20 0 -47 2 -41 40s35 39 54 39h290c20 0 46 -1 40 -40z" />
    <glyph glyph-name="lira" unicode="&#x20a4;" horiz-adv-x="758" 
d="M741 149c-15 -88 -94 -160 -179 -160c-60 0 -127 35 -186 67c-43 -48 -129 -67 -208 -67c-66 0 -121 38 -111 99c8 49 59 92 139 92c5 0 71 5 124 -17c-6 17 -9 23 -17 40h-142c-23 0 -41 9 -37 32c4 24 25 33 48 33h121c-8 26 -19 66 -23 85h-84c-23 0 -41 9 -37 33
s25 32 48 32h70c15 119 138 193 255 193c115 0 213 -62 196 -164c-4 -23 -27 -43 -51 -43s-38 20 -34 43c9 58 -58 79 -125 79c-69 0 -147 -37 -155 -108h213c24 0 40 -8 36 -32s-23 -33 -47 -33h-199c5 -21 17 -61 25 -85h160c24 0 40 -9 36 -33c-4 -23 -23 -32 -47 -32
h-135c5 -16 12 -52 12 -68c53 -29 112 -60 170 -60c38 0 72 34 79 74c4 23 26 42 49 42c25 0 40 -19 36 -42zM297 90c-23 8 -46 13 -71 13c-37 0 -87 0 -89 -15c-2 -13 22 -13 41 -13c44 0 94 0 119 15z" />
    <glyph glyph-name="logicalnot" unicode="&#xac;" horiz-adv-x="817" 
d="M796 232c-4 -23 -27 -43 -50 -43s-40 20 -36 43l17 105h-569c-23 0 -39 20 -36 43c4 23 28 43 51 43h612c23 0 39 -20 35 -43z" />
    <glyph glyph-name="longs" unicode="&#x17f;" horiz-adv-x="321" 
d="M458 550c-6 -33 -36 -52 -60 -52c-31 0 -44 27 -42 42c-28 0 -78 -5 -88 -67l-66 -396h67c19 0 48 -1 41 -39c-6 -37 -36 -38 -54 -38h-195c-18 0 -48 1 -42 38c7 38 35 39 55 39h44l47 282h-34c-18 0 -47 2 -41 38c7 38 36 39 55 39h33l7 43c15 90 100 138 183 138
c16 0 101 -2 90 -67z" />
    <glyph glyph-name="Lslash" unicode="&#x141;" horiz-adv-x="642" 
d="M606 49c-6 -38 -17 -49 -56 -49h-457c-19 0 -48 1 -42 38c7 38 35 39 55 39h43l29 172l-23 -16c-21 -15 -39 -11 -52 9c-13 22 1 40 19 52l71 46l32 194h-43c-19 0 -48 2 -42 38c7 38 35 39 55 39h195c19 0 48 -1 41 -39c-6 -36 -36 -38 -54 -38h-67l-24 -142l167 105
c20 13 42 8 50 -12c7 -17 0 -39 -19 -51l-213 -133l-37 -224h292l10 58c4 25 9 49 51 49c41 0 38 -25 34 -49z" />
    <glyph glyph-name="lslash" unicode="&#x142;" horiz-adv-x="353" 
d="M442 485c7 -18 -1 -40 -19 -51l-141 -89l-45 -268h43c20 0 48 -1 41 -39c-6 -37 -35 -38 -54 -38h-171c-19 0 -48 1 -42 38c7 38 35 39 55 39h43l36 216l-95 -60c-21 -14 -41 -8 -50 8c-10 19 -1 41 18 53l142 89l25 151h-43c-19 0 -48 2 -42 38c7 38 35 39 55 39h80
c41 0 46 -12 40 -49l-21 -125l95 60c20 13 43 6 50 -12z" />
    <glyph glyph-name="macron" unicode="&#xaf;" 
d="M545 537c-7 -37 -35 -39 -54 -39h-289c-20 0 -48 2 -41 40c6 38 34 39 53 39h290c20 0 47 -1 41 -40z" />
    <glyph glyph-name="uni0331" unicode="&#x331;" horiz-adv-x="0" 
d="M-88 -150c-6 -37 -35 -39 -54 -39h-289c-20 0 -47 2 -41 40s35 39 54 39h290c20 0 46 -1 40 -40z" />
    <glyph glyph-name="uni0304" unicode="&#x304;" horiz-adv-x="0" 
d="M27 537c-7 -37 -35 -39 -54 -39h-289c-20 0 -48 2 -41 40c6 38 34 39 53 39h290c20 0 47 -1 41 -40z" />
    <glyph glyph-name="married" unicode="&#x26ad;" 
d="M665 308c-20 -123 -133 -220 -260 -220c-46 0 -99 19 -121 42c-40 -23 -89 -42 -135 -42c-125 0 -207 102 -188 219c20 121 151 218 244 218c49 0 91 -9 138 -40c32 17 89 40 135 40c121 0 208 -94 187 -217zM588 307c13 76 -40 136 -117 136c-24 0 -49 1 -77 -16
c21 -30 24 -78 17 -120c-6 -40 -26 -84 -60 -119c26 -17 55 -18 74 -18c74 0 151 61 163 137zM232 186c-22 43 -24 79 -17 121c7 40 24 84 53 119c-19 14 -43 18 -66 18c-74 0 -150 -57 -163 -133c-13 -77 41 -140 115 -140c9 0 51 0 78 15zM322 307c3 16 1 30 -1 45
c-8 -15 -14 -29 -17 -45c-2 -16 -1 -31 2 -45c7 14 14 29 16 45z" />
    <glyph glyph-name="Mdotbelow" unicode="&#x1e42;" horiz-adv-x="933" 
d="M882 38c-6 -37 -35 -38 -54 -38h-159c-19 0 -48 1 -41 39c6 36 36 38 54 38h44l70 419l-271 -446c-21 -35 -47 -39 -57 -39c-32 0 -41 27 -44 41l-122 445l-70 -420h44c19 0 48 -1 41 -39c-6 -37 -36 -38 -54 -38h-159c-19 0 -48 1 -42 38c7 38 35 39 55 39h43l76 457
h-43c-19 0 -48 2 -42 38c7 38 35 39 55 39h93c37 0 49 -8 57 -41l127 -467l283 469c23 39 49 39 71 39h93c20 0 48 -1 41 -39c-6 -36 -35 -38 -54 -38h-43l-76 -457h43c20 0 48 -1 41 -39zM501 -137c-5 -29 -32 -57 -67 -57c-31 0 -53 26 -48 57c5 29 33 57 68 57
c31 0 52 -26 47 -57z" />
    <glyph glyph-name="mdotbelow" unicode="&#x1e43;" horiz-adv-x="875" 
d="M861 38c-6 -37 -36 -38 -54 -38h-172c-18 0 -47 1 -41 38c7 38 35 39 54 39h44l35 209c8 50 2 79 -58 79c-48 0 -133 -30 -149 -126l-27 -162h43c20 0 48 -1 41 -39c-6 -37 -35 -38 -54 -38h-171c-19 0 -48 1 -42 38c7 38 35 39 55 39h43l35 209c8 50 2 79 -58 79
c-48 0 -133 -30 -149 -126l-27 -162h44c19 0 47 -1 40 -39c-6 -37 -35 -38 -53 -38h-172c-18 0 -48 1 -42 38c7 38 35 39 55 39h44l47 282h-44c-18 0 -48 2 -42 38c7 38 35 39 55 39h81c39 0 44 -11 40 -40c44 31 93 46 142 46c51 0 99 -14 119 -63c55 46 112 63 165 63
c94 0 141 -47 124 -151l-36 -214h44c20 0 48 -1 41 -39zM472 -137c-5 -29 -32 -57 -67 -57c-31 0 -53 26 -48 57c5 29 33 57 68 57c31 0 52 -26 47 -57z" />
    <glyph glyph-name="uni2127" unicode="&#x2127;" horiz-adv-x="758" 
d="M800 538c-3 -17 -10 -48 -44 -48c-29 0 -31 23 -28 45h-106c4 -31 16 -61 51 -119c35 -60 76 -125 62 -207c-20 -120 -174 -219 -358 -219c-179 0 -303 98 -283 219c14 82 75 147 129 206c57 61 79 89 92 120h-106c-3 -22 -13 -45 -42 -45c-34 0 -31 31 -28 48l4 25
c6 38 16 49 55 49h165c22 0 48 -1 41 -42c-12 -75 -78 -149 -164 -247c-30 -37 -54 -74 -61 -114c-13 -76 77 -142 212 -142c132 0 246 65 259 142c10 58 -20 111 -49 163c-29 50 -68 123 -56 198c7 41 33 42 55 42h164c39 0 47 -9 40 -49z" />
    <glyph glyph-name="minus" unicode="&#x2212;" horiz-adv-x="817" 
d="M808 306c-7 -42 -45 -43 -60 -43h-592c-15 0 -53 1 -46 43c7 41 49 43 66 43h580c17 0 59 -2 52 -43z" />
    <glyph glyph-name="Mu" unicode="&#x39c;" horiz-adv-x="933" 
d="M882 38c-6 -37 -35 -38 -54 -38h-159c-19 0 -48 1 -41 39c6 36 36 38 54 38h44l70 419l-271 -446c-21 -35 -47 -39 -57 -39c-32 0 -41 27 -44 41l-122 445l-70 -420h44c19 0 48 -1 41 -39c-6 -37 -36 -38 -54 -38h-159c-19 0 -48 1 -42 38c7 38 35 39 55 39h43l76 457
h-43c-19 0 -48 2 -42 38c7 38 35 39 55 39h93c37 0 49 -8 57 -41l127 -467l283 469c23 39 49 39 71 39h93c20 0 48 -1 41 -39c-6 -36 -35 -38 -54 -38h-43l-76 -457h43c20 0 48 -1 41 -39z" />
    <glyph glyph-name="uni00B5" unicode="&#xb5;" horiz-adv-x="583" 
d="M572 38c-6 -37 -35 -38 -54 -38h-80c-20 0 -41 0 -41 27c-30 -17 -74 -33 -132 -33c-21 0 -48 1 -72 9l-24 -142h43c20 0 48 -1 41 -39c-6 -36 -36 -38 -54 -38h-172c-18 0 -47 2 -41 38c7 38 35 39 54 39h44l83 498h-43c-19 0 -48 2 -42 38c7 38 35 39 55 39h80
c41 0 46 -12 40 -48l-44 -262c-4 -26 -8 -55 71 -55c30 0 119 6 133 90l33 198h-44c-19 0 -47 2 -41 39c7 37 36 38 54 38h81c40 0 46 -12 40 -48l-52 -311h43c20 0 48 -1 41 -39z" />
    <glyph glyph-name="multiply" unicode="&#xd7;" horiz-adv-x="817" 
d="M664 60c-33 -30 -58 -2 -67 8l-148 178l-208 -178c-11 -10 -46 -38 -69 -8c-25 28 8 58 19 68l208 178l-148 178c-9 10 -32 40 3 68c33 30 58 2 67 -8l148 -178l208 178c11 10 46 38 69 8c25 -28 -8 -58 -19 -68l-208 -178l148 -178c9 -10 32 -40 -3 -68z" />
    <glyph glyph-name="uni266A" unicode="&#x266a;" horiz-adv-x="642" 
d="M611 154c-5 -28 -27 -46 -51 -46c-35 0 -34 43 -32 70c1 53 -22 110 -45 161l-29 -171c-2 -11 -4 -20 -6 -31c-2 -9 -2 -17 -3 -24c-16 -98 -126 -152 -210 -152c-92 0 -174 59 -158 155s120 144 207 144c36 0 67 -7 96 -21l49 293c1 8 1 16 3 25c4 23 19 55 53 55
c25 0 40 -18 35 -47c-1 -31 -1 -55 6 -81c25 -111 106 -204 85 -330z" />
    <glyph glyph-name="Nacute" unicode="&#x143;" horiz-adv-x="758" 
d="M798 572c-6 -36 -35 -38 -53 -38h-44l-81 -485c-7 -42 -19 -49 -56 -49c-23 0 -47 0 -63 37l-197 483l-74 -443h43c20 0 48 -1 41 -39c-6 -37 -35 -38 -54 -38h-159c-18 0 -47 1 -41 38c7 38 35 39 54 39h44l76 457h-44c-18 0 -47 2 -41 38c7 38 35 39 54 39h92
c23 0 47 0 63 -37l197 -483l74 443h-43c-19 0 -48 2 -42 38c7 38 35 39 55 39h159c19 0 47 -1 40 -39zM618 758c-2 -13 -9 -29 -40 -42l-138 -57c-8 -3 -14 -6 -22 -6c-31 0 -35 38 -33 48c3 22 18 29 36 36l138 58c14 6 23 6 23 6c24 0 40 -18 36 -43z" />
    <glyph glyph-name="nacute" unicode="&#x144;" horiz-adv-x="583" 
d="M572 38c-6 -37 -35 -38 -54 -38h-172c-19 0 -47 1 -40 39c6 36 35 38 53 38h44l35 209c8 48 4 79 -57 79c-50 0 -133 -31 -149 -126l-27 -162h44c19 0 47 -1 40 -39c-6 -37 -35 -38 -53 -38h-172c-19 0 -48 1 -42 38c7 38 35 39 55 39h43l47 282h-43c-19 0 -48 2 -42 38
c7 38 35 39 55 39h80c39 0 44 -11 41 -39c42 28 90 45 142 45c85 0 142 -39 124 -151l-36 -214h43c20 0 48 -1 41 -39zM499 568c-2 -13 -9 -29 -40 -42l-139 -57c-7 -3 -14 -6 -22 -6c-31 0 -34 38 -33 48c4 22 18 29 36 36l139 58c14 6 23 6 23 6c24 0 40 -18 36 -43z" />
    <glyph glyph-name="naira" unicode="&#x20a6;" horiz-adv-x="758" 
d="M798 572c-6 -36 -35 -38 -53 -38h-44l-18 -110h43c21 0 36 -17 32 -38c-3 -22 -24 -39 -45 -39h-43l-14 -83h43c21 0 36 -17 33 -39c-4 -21 -25 -38 -46 -38h-43l-23 -138c-7 -42 -19 -49 -56 -49c-23 0 -47 0 -63 37l-61 150h-192l-18 -110h43c20 0 48 -1 41 -39
c-6 -37 -35 -38 -54 -38h-159c-18 0 -47 1 -41 38c7 38 35 39 54 39h44l18 110h-43c-21 0 -36 17 -32 38c3 22 24 39 45 39h43l14 83h-43c-21 0 -36 17 -33 39c4 21 25 38 46 38h43l18 110h-44c-18 0 -47 2 -41 38c7 38 35 39 54 39h92c23 0 47 0 63 -37l61 -150h192l18 110
h-43c-19 0 -48 2 -42 38c7 38 35 39 55 39h159c19 0 47 -1 40 -39zM340 424l-40 98l-16 -98h56zM406 264l-34 83h-100l-14 -83h148zM587 264l14 83h-148l34 -83h100zM559 89l16 98h-56z" />
    <glyph glyph-name="uni00A0" unicode="&#xa0;" 
 />
    <glyph glyph-name="Ncaron" unicode="&#x147;" horiz-adv-x="758" 
d="M798 572c-6 -36 -35 -38 -53 -38h-44l-81 -485c-7 -42 -19 -49 -56 -49c-23 0 -47 0 -63 37l-197 483l-74 -443h43c20 0 48 -1 41 -39c-6 -37 -35 -38 -54 -38h-159c-18 0 -47 1 -41 38c7 38 35 39 54 39h44l76 457h-44c-18 0 -47 2 -41 38c7 38 35 39 54 39h92
c23 0 47 0 63 -37l197 -483l74 443h-43c-19 0 -48 2 -42 38c7 38 35 39 55 39h159c19 0 47 -1 40 -39zM652 722c-2 -14 -12 -28 -32 -35l-121 -42c-8 -2 -17 -2 -25 0l-107 42c-16 6 -21 20 -19 34c3 19 21 39 43 39c4 0 8 0 12 -2l98 -31l108 31c6 2 10 2 14 2
c21 0 32 -20 29 -38z" />
    <glyph glyph-name="ncaron" unicode="&#x148;" horiz-adv-x="583" 
d="M572 38c-6 -37 -35 -38 -54 -38h-172c-19 0 -47 1 -40 39c6 36 35 38 53 38h44l35 209c8 48 4 79 -57 79c-50 0 -133 -31 -149 -126l-27 -162h44c19 0 47 -1 40 -39c-6 -37 -35 -38 -53 -38h-172c-19 0 -48 1 -42 38c7 38 35 39 55 39h43l47 282h-43c-19 0 -48 2 -42 38
c7 38 35 39 55 39h80c39 0 44 -11 41 -39c42 28 90 45 142 45c85 0 142 -39 124 -151l-36 -214h43c20 0 48 -1 41 -39zM540 572c-1 -11 -8 -23 -23 -31l-127 -72c-12 -7 -30 -7 -40 0l-103 72c-11 8 -14 20 -13 31c4 20 25 39 46 39c6 0 12 -2 17 -6l86 -58l106 58
c7 4 13 6 19 6c21 0 36 -19 32 -39z" />
    <glyph glyph-name="Ncommaaccent" unicode="&#x145;" horiz-adv-x="758" 
d="M798 572c-6 -36 -35 -38 -53 -38h-44l-81 -485c-7 -42 -19 -49 -56 -49c-23 0 -47 0 -63 37l-197 483l-74 -443h43c20 0 48 -1 41 -39c-6 -37 -35 -38 -54 -38h-159c-18 0 -47 1 -41 38c7 38 35 39 54 39h44l76 457h-44c-18 0 -47 2 -41 38c7 38 35 39 54 39h92
c23 0 47 0 63 -37l197 -483l74 443h-43c-19 0 -48 2 -42 38c7 38 35 39 55 39h159c19 0 47 -1 40 -39zM417 -88c-12 -72 -74 -118 -92 -118s-29 18 -27 31s9 19 36 42c10 11 14 21 17 29c-33 8 -29 39 -28 45c4 24 25 44 52 44s51 -20 42 -73z" />
    <glyph glyph-name="ncommaaccent" unicode="&#x146;" horiz-adv-x="583" 
d="M572 38c-6 -37 -35 -38 -54 -38h-172c-19 0 -47 1 -40 39c6 36 35 38 53 38h44l35 209c8 48 4 79 -57 79c-50 0 -133 -31 -149 -126l-27 -162h44c19 0 47 -1 40 -39c-6 -37 -35 -38 -53 -38h-172c-19 0 -48 1 -42 38c7 38 35 39 55 39h43l47 282h-43c-19 0 -48 2 -42 38
c7 38 35 39 55 39h80c39 0 44 -11 41 -39c42 28 90 45 142 45c85 0 142 -39 124 -151l-36 -214h43c20 0 48 -1 41 -39zM329 -88c-12 -72 -74 -118 -92 -118s-29 18 -27 31s9 19 36 42c10 11 14 21 17 29c-33 8 -29 39 -28 45c4 24 25 44 52 44s51 -20 42 -73z" />
    <glyph glyph-name="Ndotaccent" unicode="&#x1e44;" horiz-adv-x="758" 
d="M798 572c-6 -36 -35 -38 -53 -38h-44l-81 -485c-7 -42 -19 -49 -56 -49c-23 0 -47 0 -63 37l-197 483l-74 -443h43c20 0 48 -1 41 -39c-6 -37 -35 -38 -54 -38h-159c-18 0 -47 1 -41 38c7 38 35 39 54 39h44l76 457h-44c-18 0 -47 2 -41 38c7 38 35 39 54 39h92
c23 0 47 0 63 -37l197 -483l74 443h-43c-19 0 -48 2 -42 38c7 38 35 39 55 39h159c19 0 47 -1 40 -39zM553 700c-5 -28 -33 -57 -68 -57c-31 0 -53 26 -47 57c4 29 32 57 67 57c31 0 53 -26 48 -57z" />
    <glyph glyph-name="ndotaccent" unicode="&#x1e45;" horiz-adv-x="583" 
d="M572 38c-6 -37 -35 -38 -54 -38h-172c-19 0 -47 1 -40 39c6 36 35 38 53 38h44l35 209c8 48 4 79 -57 79c-50 0 -133 -31 -149 -126l-27 -162h44c19 0 47 -1 40 -39c-6 -37 -35 -38 -53 -38h-172c-19 0 -48 1 -42 38c7 38 35 39 55 39h43l47 282h-43c-19 0 -48 2 -42 38
c7 38 35 39 55 39h80c39 0 44 -11 41 -39c42 28 90 45 142 45c85 0 142 -39 124 -151l-36 -214h43c20 0 48 -1 41 -39zM439 537c-5 -28 -33 -57 -68 -57c-31 0 -53 26 -47 57c4 29 32 57 67 57c31 0 53 -26 48 -57z" />
    <glyph glyph-name="Ndotbelow" unicode="&#x1e46;" horiz-adv-x="758" 
d="M798 572c-6 -36 -35 -38 -53 -38h-44l-81 -485c-7 -42 -19 -49 -56 -49c-23 0 -47 0 -63 37l-197 483l-74 -443h43c20 0 48 -1 41 -39c-6 -37 -35 -38 -54 -38h-159c-18 0 -47 1 -41 38c7 38 35 39 54 39h44l76 457h-44c-18 0 -47 2 -41 38c7 38 35 39 54 39h92
c23 0 47 0 63 -37l197 -483l74 443h-43c-19 0 -48 2 -42 38c7 38 35 39 55 39h159c19 0 47 -1 40 -39zM413 -137c-5 -29 -32 -57 -67 -57c-31 0 -53 26 -48 57c5 29 33 57 68 57c31 0 52 -26 47 -57z" />
    <glyph glyph-name="ndotbelow" unicode="&#x1e47;" horiz-adv-x="583" 
d="M572 38c-6 -37 -35 -38 -54 -38h-172c-19 0 -47 1 -40 39c6 36 35 38 53 38h44l35 209c8 48 4 79 -57 79c-50 0 -133 -31 -149 -126l-27 -162h44c19 0 47 -1 40 -39c-6 -37 -35 -38 -53 -38h-172c-19 0 -48 1 -42 38c7 38 35 39 55 39h43l47 282h-43c-19 0 -48 2 -42 38
c7 38 35 39 55 39h80c39 0 44 -11 41 -39c42 28 90 45 142 45c85 0 142 -39 124 -151l-36 -214h43c20 0 48 -1 41 -39zM326 -137c-5 -29 -32 -57 -67 -57c-31 0 -53 26 -48 57c5 29 33 57 68 57c31 0 52 -26 47 -57z" />
    </font>
</defs>
</svg>
